<svg width="586" height="587" viewBox="0 0 586 587" fill="none" xmlns="http://www.w3.org/2000/svg">
<ellipse cx="293" cy="293.5" rx="291" ry="291.5" fill="#FF9D0A" stroke="#FF9D0A" stroke-width="3"/>
<ellipse cx="198.5" cy="397.5" rx="144.5" ry="145.5" fill="#F6D4C8" fill-opacity="0.34"/>
<path d="M173.144 282.148V294.687H199.084C198.223 298.899 195.447 302.058 190.852 304.164C186.258 306.27 180.706 307.323 174.388 307.323C166.731 307.323 160.509 305.791 155.627 302.632C150.745 299.569 148.352 294.592 148.352 287.796C148.352 281.478 150.745 276.501 155.627 272.959C160.413 269.417 166.731 267.599 174.484 267.599C186.928 267.599 194.585 270.47 197.457 276.118H216.122C215.165 271.14 212.676 266.929 208.656 263.291C204.54 259.654 199.467 257.069 193.532 255.346C187.598 253.623 180.993 252.762 173.91 252.762C160.987 252.762 150.458 255.921 142.226 262.238C133.994 268.556 129.974 277.075 129.974 287.7C129.974 293.347 131.123 298.325 133.42 302.728C135.717 307.131 138.972 310.673 143.088 313.353C147.108 316.129 151.798 318.235 157.159 319.575C162.519 321.011 168.262 321.681 174.58 321.681C187.119 321.681 197.457 318.809 205.689 312.874C213.921 307.035 218.037 298.995 218.037 288.657V282.148H173.144Z" fill="white"/>
<path fill-rule="evenodd" clip-rule="evenodd" d="M267.464 321.681C280.674 321.681 291.203 318.618 299.052 312.396C306.805 306.27 310.73 297.846 310.73 287.221C310.73 276.692 306.805 268.269 299.052 262.047C291.203 255.921 280.674 252.762 267.464 252.762C254.159 252.762 243.63 255.921 235.877 262.047C228.028 268.269 224.199 276.692 224.199 287.221C224.199 297.846 228.028 306.27 235.877 312.396C243.63 318.618 254.159 321.681 267.464 321.681ZM267.464 307.514C259.807 307.514 253.776 305.695 249.277 301.962C244.683 298.229 242.481 293.347 242.481 287.221C242.481 281.191 244.683 276.309 249.277 272.576C253.776 268.843 259.807 266.929 267.464 266.929C275.122 266.929 281.152 268.843 285.651 272.576C290.15 276.309 292.447 281.191 292.447 287.221C292.447 293.347 290.15 298.229 285.651 301.962C281.152 305.695 275.122 307.514 267.464 307.514Z" fill="white"/>
<path fill-rule="evenodd" clip-rule="evenodd" d="M350.615 321.681C360.665 321.681 368.802 319.479 375.119 315.076C381.437 310.673 384.595 304.642 384.595 296.793C384.595 289.04 381.437 282.914 375.119 278.511C368.802 274.108 360.665 271.906 350.615 271.906C340.468 271.906 332.236 274.108 326.014 278.511C319.697 282.914 316.634 289.04 316.634 296.793C316.634 304.642 319.697 310.673 326.014 315.076C332.236 319.479 340.468 321.681 350.615 321.681ZM350.615 309.62C345.829 309.62 341.904 308.471 338.937 306.078C335.969 303.685 334.534 300.622 334.534 296.793C334.534 293.06 335.969 289.997 338.937 287.604C341.904 285.211 345.829 283.967 350.615 283.967C355.401 283.967 359.229 285.211 362.197 287.604C365.164 289.997 366.696 293.06 366.696 296.793C366.696 300.622 365.164 303.685 362.197 306.078C359.229 308.471 355.401 309.62 350.615 309.62Z" fill="white"/>
<path d="M456.154 295.166C456.154 279.659 447.179 272.115 429.375 272.115H391.255V320.723H408.868V300.144C408.868 294.975 410.304 291.05 413.367 288.274C416.334 285.594 420.259 284.158 425.14 284.158C429.735 284.158 433.181 285.498 435.383 287.987C437.488 290.572 438.637 294.4 438.637 299.473V320.723H456.154V295.166Z" fill="white"/>
<path d="M252.771 337.564C249.692 334.884 245.062 335.247 242.423 338.377C239.78 341.511 240.134 346.232 243.212 348.922L247.997 343.248C243.212 348.922 243.214 348.924 243.216 348.926L243.221 348.93L243.231 348.939L243.259 348.963C243.28 348.981 243.307 349.005 243.341 349.033C243.371 349.059 243.406 349.088 243.445 349.122C243.493 349.162 243.548 349.208 243.609 349.26C243.834 349.448 244.151 349.709 244.556 350.032C245.365 350.678 246.528 351.575 248.013 352.637C250.978 354.759 255.253 357.562 260.581 360.362C271.183 365.933 286.293 371.665 303.732 371.665C321.191 371.665 336.005 365.922 346.332 360.316C351.517 357.501 355.644 354.681 358.499 352.545C359.929 351.475 361.047 350.571 361.825 349.918C362.214 349.591 362.519 349.327 362.737 349.135C362.846 349.039 362.933 348.962 362.997 348.903C363.029 348.874 363.056 348.85 363.077 348.831L363.105 348.805L363.115 348.796L363.12 348.791C363.122 348.79 363.124 348.788 358.19 343.248L363.124 348.788C366.13 346.014 366.357 341.285 363.632 338.225C360.91 335.169 356.274 334.934 353.268 337.696L353.266 337.698L353.262 337.702L353.259 337.705L353.255 337.708L353.25 337.712C353.227 337.733 353.182 337.773 353.117 337.831C352.987 337.946 352.773 338.131 352.48 338.377C351.894 338.869 350.991 339.601 349.797 340.494C347.406 342.283 343.876 344.699 339.418 347.119C330.459 351.982 318.045 356.708 303.732 356.708C289.401 356.708 276.644 351.971 267.32 347.072C262.686 344.637 258.984 342.206 256.463 340.402C255.204 339.501 254.247 338.762 253.621 338.263C253.309 338.013 253.08 337.824 252.939 337.706C252.902 337.675 252.871 337.649 252.846 337.628C252.823 337.609 252.805 337.594 252.793 337.583L252.771 337.564Z" fill="white"/>
</svg>
