<svg xmlns="http://www.w3.org/2000/svg" viewBox="0 0 500 500"><g id="freepik--Fence--inject-8"><g id="freepik--fence--inject-8"><g id="freepik--Puck--inject-8"><path d="M36.75,124.51a1.25,1.25,0,0,0-.75-1,4,4,0,0,0-3.62,0,1.25,1.25,0,0,0-.75,1V297.6a1.28,1.28,0,0,0,.75,1,4,4,0,0,0,3.62,0,1.28,1.28,0,0,0,.75-1Z" style="fill:#ebebeb"></path><path d="M32.38,123.47a1.25,1.25,0,0,0-.75,1,1.28,1.28,0,0,0,.75,1,4,4,0,0,0,3.62,0,1.28,1.28,0,0,0,.75-1,1.25,1.25,0,0,0-.75-1A4,4,0,0,0,32.38,123.47Z" style="fill:#f0f0f0"></path></g><g id="freepik--puck--inject-8"><path d="M117.26,76.08a1.28,1.28,0,0,0-.75-1,4,4,0,0,0-3.62,0,1.28,1.28,0,0,0-.75,1V249.17a1.28,1.28,0,0,0,.75,1.05,4,4,0,0,0,3.62,0,1.28,1.28,0,0,0,.75-1.05Z" style="fill:#ebebeb"></path><path d="M112.89,75a1.1,1.1,0,0,0,0,2.09,4,4,0,0,0,3.62,0,1.1,1.1,0,0,0,0-2.09A4,4,0,0,0,112.89,75Z" style="fill:#f0f0f0"></path></g><g id="freepik--puck--inject-8"><path d="M202.75,53.09a1.26,1.26,0,0,0-.75-1,4,4,0,0,0-3.62,0,1.26,1.26,0,0,0-.75,1V226.18a1.28,1.28,0,0,0,.75,1,4,4,0,0,0,3.62,0,1.28,1.28,0,0,0,.75-1Z" style="fill:#ebebeb"></path><path d="M198.38,52.05a1.26,1.26,0,0,0-.75,1,1.28,1.28,0,0,0,.75,1,4,4,0,0,0,3.62,0,1.28,1.28,0,0,0,.75-1,1.26,1.26,0,0,0-.75-1A4,4,0,0,0,198.38,52.05Z" style="fill:#f0f0f0"></path></g><g id="freepik--puck--inject-8"><path d="M460.6,124.51a1.25,1.25,0,0,1,.75-1,4,4,0,0,1,3.62,0,1.25,1.25,0,0,1,.75,1V297.6a1.28,1.28,0,0,1-.75,1,4,4,0,0,1-3.62,0,1.28,1.28,0,0,1-.75-1Z" style="fill:#ebebeb"></path><path d="M465,123.47a1.25,1.25,0,0,1,.75,1,1.28,1.28,0,0,1-.75,1,4,4,0,0,1-3.62,0,1.28,1.28,0,0,1-.75-1,1.25,1.25,0,0,1,.75-1A4,4,0,0,1,465,123.47Z" style="fill:#f0f0f0"></path></g><g id="freepik--puck--inject-8"><path d="M380.09,76.08a1.28,1.28,0,0,1,.75-1,4,4,0,0,1,3.62,0,1.28,1.28,0,0,1,.75,1V249.17a1.28,1.28,0,0,1-.75,1.05,4,4,0,0,1-3.62,0,1.28,1.28,0,0,1-.75-1.05Z" style="fill:#ebebeb"></path><path d="M384.46,75a1.1,1.1,0,0,1,0,2.09,4,4,0,0,1-3.62,0,1.1,1.1,0,0,1,0-2.09A4,4,0,0,1,384.46,75Z" style="fill:#f0f0f0"></path></g><g id="freepik--puck--inject-8"><path d="M294.6,53.09a1.26,1.26,0,0,1,.75-1,4,4,0,0,1,3.62,0,1.26,1.26,0,0,1,.75,1V226.18a1.28,1.28,0,0,1-.75,1,4,4,0,0,1-3.62,0,1.28,1.28,0,0,1-.75-1Z" style="fill:#ebebeb"></path><path d="M299,52.05a1.26,1.26,0,0,1,.75,1,1.28,1.28,0,0,1-.75,1,4,4,0,0,1-3.62,0,1.28,1.28,0,0,1-.75-1,1.26,1.26,0,0,1,.75-1A4,4,0,0,1,299,52.05Z" style="fill:#f0f0f0"></path></g><path d="M486.92,260.73c-12.31-18.11-31.61-35.09-57.93-49.66-98.85-54.75-259.13-54.75-358,0-26.32,14.57-45.62,31.55-57.93,49.66v69.5H486.92Z" style="fill:#f0f0f0"></path><path d="M486.92,262.77a2.07,2.07,0,0,1-1.69-.89c-12.53-18.45-31.78-34.94-57.22-49-98.16-54.36-257.86-54.36-356,0-25.44,14.09-44.69,30.59-57.22,49a2,2,0,0,1-3.37-2.28c12.89-19,32.62-35.9,58.62-50.3,99.24-55,260.72-55,360,0,26,14.4,45.73,31.32,58.62,50.3a2,2,0,0,1-1.68,3.18Z" style="fill:#ebebeb"></path><path d="M486.92,157.72a.5.5,0,0,1-.42-.22c-12.67-18.64-32.1-35.3-57.76-49.5-98.55-54.58-258.92-54.59-357.48,0C45.6,122.2,26.17,138.86,13.5,157.5a.5.5,0,0,1-.7.13.49.49,0,0,1-.14-.7C25.42,138.15,45,121.39,70.76,107.1c98.84-54.73,259.65-54.72,358.48,0,25.79,14.28,45.34,31,58.1,49.82a.51.51,0,0,1-.14.71A.46.46,0,0,1,486.92,157.72Z" style="fill:#e0e0e0"></path></g></g><g id="freepik--Floor--inject-8"><ellipse id="freepik--floor--inject-8" cx="250" cy="340.18" rx="243.84" ry="140.78" style="fill:#fafafa"></ellipse></g><g id="freepik--Clouds--inject-8"><path id="freepik--Cloud--inject-8" d="M172.9,49.06a10.39,10.39,0,0,0-3.44-.63c-1.11-.09-1.46-.31-1.67-.55A8.19,8.19,0,0,0,158,45a6.29,6.29,0,0,0-7.42-4.2c.12-3.46-4.29-7.17-8.26-8-3.81-.81-7.12-.47-9.29,2-2.33-4.54-11.44-5.82-16.37-3.42-2.83,1.38-5.24,2.8-6.41,5.39a10.76,10.76,0,0,0-1.07,5.17c-1.92-1.69-5.77-2.15-8.34-1.16-2.76,1.07-3,3.16-3.11,5.28a9.57,9.57,0,0,0-5-.09c-1.75.51-2.75,1.88-2.51,3-1.38-.08-4.67,1-4.29,2.49.42,1.63,4.18,1.47,5.58,1.42a26.05,26.05,0,0,0,3.92-.62,6.11,6.11,0,0,0,2,.39c2.39,0,3.4-1,3.78-1.93,1.17,2.45,5.32,4.32,8.25,5.08,5.53,1.41,13.34.55,16.74-3.58a6.24,6.24,0,0,0,1.65,2,9.47,9.47,0,0,0,5.11,2.07c2.27.22,8.36.51,10.07-3.1,1.22,2.4,6.63,3.49,10.76,2.91a16.9,16.9,0,0,0,4.61-1.4A25.1,25.1,0,0,0,161,53.1a2.2,2.2,0,0,1,2.26-.15c2.83.85,6.12,1.2,9,0C174.58,52,175.06,50,172.9,49.06Z" style="fill:#f0f0f0"></path><path id="freepik--cloud--inject-8" d="M85.79,31.52a6.85,6.85,0,0,0-2.25-.41c-.72-.06-1-.2-1.09-.36A5.37,5.37,0,0,0,76,28.85a4.11,4.11,0,0,0-4.85-2.74c.08-2.26-2.81-4.69-5.4-5.24s-4.66-.31-6.08,1.32c-1.52-3-7.47-3.8-10.7-2.23-1.85.9-3.42,1.83-4.19,3.53a7.06,7.06,0,0,0-.7,3.38,5.94,5.94,0,0,0-5.45-.76c-1.81.7-2,2.06-2,3.45a6.26,6.26,0,0,0-3.29-.06c-1.14.34-1.8,1.23-1.64,1.95-.9-.05-3.05.68-2.8,1.63s2.73,1,3.65.93a17.56,17.56,0,0,0,2.56-.4,3.89,3.89,0,0,0,1.33.25c1.57,0,2.23-.68,2.48-1.26.76,1.61,3.47,2.83,5.39,3.32,3.61.92,8.72.36,10.95-2.34a3.92,3.92,0,0,0,1.07,1.31,6.28,6.28,0,0,0,3.35,1.36c1.48.13,5.46.32,6.58-2,.8,1.56,4.34,2.28,7,1.9a11.63,11.63,0,0,0,3-.91A18.22,18.22,0,0,0,78,34.16a1.47,1.47,0,0,1,1.48-.1,8.79,8.79,0,0,0,5.88,0C86.89,33.43,87.2,32.16,85.79,31.52Z" style="fill:#f5f5f5"></path></g><g id="freepik--Sun--inject-8"><circle id="freepik--sun--inject-8" cx="408.71" cy="39.02" r="14.07" style="fill:#f5f5f5"></circle></g><g id="freepik--Shadows--inject-8"><ellipse id="freepik--Shadow--inject-8" cx="254.49" cy="358.02" rx="50.26" ry="29.02" style="fill:#e0e0e0"></ellipse><ellipse id="freepik--shadow--inject-8" cx="98.82" cy="388.05" rx="52.89" ry="30.54" style="fill:#e0e0e0"></ellipse><ellipse id="freepik--shadow--inject-8" cx="406" cy="332.82" rx="52.84" ry="30.51" style="fill:#e0e0e0"></ellipse></g><g id="freepik--Hopscotch--inject-8"><g id="freepik--hopscotch--inject-8"><path d="M49.13,269.64l61.34-35.41a1.89,1.89,0,0,1,1.7,0l39.18,22.62c.47.28.47.72,0,1L90,293.25a1.91,1.91,0,0,1-1.71,0L49.13,270.63C48.66,270.36,48.66,269.92,49.13,269.64Zm62.19-33.93L51.69,270.14l37.47,21.63,59.63-34.42Z" style="fill:#455a64"></path><path d="M88.31,292.26l61.33-35.41a1.91,1.91,0,0,1,1.71,0l39.18,22.62c.47.28.47.72,0,1L129.2,315.87a1.91,1.91,0,0,1-1.71,0L88.31,293.25C87.84,293,87.84,292.54,88.31,292.26Zm62.19-33.93L90.87,292.76l37.47,21.63L188,280Z" style="fill:#455a64"></path><path d="M127.49,314.89h0l61.34-35.42a1.91,1.91,0,0,1,1.71,0l39.18,22.63a.52.52,0,0,1,0,1l-61.34,35.41a1.91,1.91,0,0,1-1.71,0l-39.18-22.62a.61.61,0,0,1-.35-.49A.6.6,0,0,1,127.49,314.89ZM189.68,281l-59.63,34.43L167.53,337l59.63-34.42Z" style="fill:#455a64"></path><path d="M205.85,360.13l61.34-35.41a1.85,1.85,0,0,1,1.71,0l39.18,22.62a.52.52,0,0,1,0,1l-61.34,35.42a1.89,1.89,0,0,1-1.7,0l-39.19-22.63A.52.52,0,0,1,205.85,360.13ZM268,326.19l-59.63,34.43,37.48,21.64,59.63-34.43Z" style="fill:#455a64"></path><path d="M275.7,365,337,329.63a1.91,1.91,0,0,1,1.71,0l39.18,22.62a.52.52,0,0,1,0,1l-61.34,35.41a1.89,1.89,0,0,1-1.7,0L275.7,366a.53.53,0,0,1,0-1Zm62.19-33.93-59.63,34.43,37.48,21.63,59.63-34.42Z" style="fill:#455a64"></path><path d="M214.37,400.46,275.7,365a1.91,1.91,0,0,1,1.71,0l39.18,22.62a.61.61,0,0,1,.35.5.59.59,0,0,1-.35.49l-61.34,35.41a1.89,1.89,0,0,1-1.7,0l-39.18-22.62A.52.52,0,0,1,214.37,400.46Zm62.19-33.94L216.93,401l37.47,21.63L314,388.16Z" style="fill:#455a64"></path><path d="M284.22,405.37,345.55,370a1.91,1.91,0,0,1,1.71,0l39.18,22.62a.52.52,0,0,1,0,1L325.1,429a1.91,1.91,0,0,1-1.7,0l-39.18-22.62C283.75,406.08,283.75,405.64,284.22,405.37Zm62.19-33.93-59.63,34.42,37.47,21.64,59.63-34.43Z" style="fill:#455a64"></path><path d="M197.34,319.8l61.34-35.41a1.89,1.89,0,0,1,1.7,0L299.56,307c.48.27.48.71,0,1l-61.33,35.41a1.91,1.91,0,0,1-1.71,0l-39.18-22.62C196.87,320.51,196.87,320.07,197.34,319.8Zm62.19-33.93L199.9,320.29l37.48,21.64L297,307.5Z" style="fill:#455a64"></path><path d="M136,355.21l61.33-35.41a1.91,1.91,0,0,1,1.71,0l39.18,22.62a.52.52,0,0,1,0,1l-61.34,35.41a1.89,1.89,0,0,1-1.7,0L136,356.2C135.54,355.93,135.54,355.49,136,355.21Zm62.18-33.93-59.62,34.43L176,377.34l59.63-34.42Z" style="fill:#455a64"></path><path d="M318.06,431.07l72-41.57c15.18-8.76,39.88-8.76,55.05,0s15.18,23,0,31.79l-72,41.57c-7.35,4.24-17.13,6.58-27.53,6.58s-20.17-2.34-27.53-6.58C302.89,454.1,302.88,439.84,318.06,431.07Zm53.35,30.8,72-41.57c14.24-8.22,14.24-21.59,0-29.81s-37.41-8.23-51.64,0l-72,41.57c-14.24,8.22-14.24,21.59,0,29.81,6.9,4,16.07,6.18,25.82,6.18S364.52,465.86,371.41,461.87Z" style="fill:#455a64"></path><path d="M378.93,412.11a1.31,1.31,0,0,1-.7-.75c-.08-.28.12-.55.59-.82l.11-.06a4.56,4.56,0,0,1,.82-.36,6.78,6.78,0,0,1,1-.25,3.84,3.84,0,0,1,1-.06,1.84,1.84,0,0,1,.85.24l19.19,11.08,0-2.78,0,.16a.86.86,0,0,1,0-.5.93.93,0,0,1,.44-.48,2.65,2.65,0,0,1,.53-.18,2.24,2.24,0,0,1,.73-.06,12.11,12.11,0,0,1,1.45.13,3.75,3.75,0,0,1,1.23.37.83.83,0,0,1,.5.63l.19,6.45a1,1,0,0,1-.08.52.91.91,0,0,1-.41.48l-.78.44a1.89,1.89,0,0,1-1.06.24,2.18,2.18,0,0,1-1-.27Z" style="fill:#BA68C8"></path><path d="M354.78,432.76a6.16,6.16,0,0,1-1.1-3.88,7,7,0,0,1,1.71-3.91,16.3,16.3,0,0,1,4.63-3.71,23.06,23.06,0,0,1,7.34-2.77,28,28,0,0,1,7.44-.44,27.5,27.5,0,0,1,7,1.43,25.66,25.66,0,0,1,5.85,2.85,15,15,0,0,1,3.78,3.43,7,7,0,0,1,1.5,3.8,6.25,6.25,0,0,1-1.21,3.89,13.1,13.1,0,0,1-4.35,3.69,26.26,26.26,0,0,1-7.51,2.95,28.83,28.83,0,0,1-7.63.67,28.15,28.15,0,0,1-7.23-1.32,26.15,26.15,0,0,1-6.32-3A13.16,13.16,0,0,1,354.78,432.76Zm13.32,3.89a20,20,0,0,0,5.19,1,19,19,0,0,0,5.25-.43,17.67,17.67,0,0,0,5-2,8.3,8.3,0,0,0,2.9-2.53,4.19,4.19,0,0,0,.73-2.76,5.54,5.54,0,0,0-1.21-2.8,12.09,12.09,0,0,0-3-2.65,20.69,20.69,0,0,0-4.58-2.3,20.24,20.24,0,0,0-5-1.09,18.17,18.17,0,0,0-5,.24,14.53,14.53,0,0,0-4.65,1.73,11.28,11.28,0,0,0-3.25,2.64,4.94,4.94,0,0,0-1.17,2.86,4.73,4.73,0,0,0,.91,2.91,10.66,10.66,0,0,0,3,2.76A20.73,20.73,0,0,0,368.1,436.65Z" style="fill:#BA68C8"></path><path d="M326.16,404a9,9,0,0,1-1.93-2.92,6.08,6.08,0,0,1-.38-2.79,8.57,8.57,0,0,1,.69-2.57,10.1,10.1,0,0,1,1.36-2.22,20.34,20.34,0,0,1,1.56-1.75,16.74,16.74,0,0,1,1.33-1.18c.39-.29.61-.46.67-.49a2.71,2.71,0,0,1,1.37-.35,4.9,4.9,0,0,1,1.84.44l.21.12q.44.25.39.57a1.76,1.76,0,0,1-.61.86,13.55,13.55,0,0,0-1.16,1,12.26,12.26,0,0,0-1.36,1.6,8.39,8.39,0,0,0-1.05,2.07,5,5,0,0,0-.24,2.41,6.69,6.69,0,0,0,.69,2,7.85,7.85,0,0,0,1.33,1.82,6.47,6.47,0,0,1,1.2-2,9.7,9.7,0,0,1,2.52-2,17.89,17.89,0,0,1,3.87-1.67,17,17,0,0,1,4.08-.72,15.24,15.24,0,0,1,4,.31,12.61,12.61,0,0,1,3.65,1.4,6.2,6.2,0,0,1,2.6,2.4,3.18,3.18,0,0,1,.23,2.42,5.39,5.39,0,0,1-1.5,2.26,13.09,13.09,0,0,1-2.59,1.92,17.79,17.79,0,0,1-4.9,2,19.15,19.15,0,0,1-5,.51,18.46,18.46,0,0,1-4.75-.74,20,20,0,0,1-4.29-1.82A16.65,16.65,0,0,1,326.16,404Zm10.41-2.61a5.55,5.55,0,0,0-1,1.44,3.31,3.31,0,0,0-.33,1.48,2.46,2.46,0,0,0,.45,1.36,9.28,9.28,0,0,0,2.16.78,10,10,0,0,0,2.61.28,11.66,11.66,0,0,0,2.75-.36,9.37,9.37,0,0,0,2.45-1,7.62,7.62,0,0,0,1.47-1.1,3.92,3.92,0,0,0,.92-1.35,2,2,0,0,0,0-1.43,3,3,0,0,0-1.38-1.35,8.28,8.28,0,0,0-4.22-1.12,8.51,8.51,0,0,0-4.31,1.17A7.42,7.42,0,0,0,336.57,401.39Z" style="fill:#BA68C8"></path><g style="opacity:0.4"><path d="M326.16,404a9,9,0,0,1-1.93-2.92,6.08,6.08,0,0,1-.38-2.79,8.57,8.57,0,0,1,.69-2.57,10.1,10.1,0,0,1,1.36-2.22,20.34,20.34,0,0,1,1.56-1.75,16.74,16.74,0,0,1,1.33-1.18c.39-.29.61-.46.67-.49a2.71,2.71,0,0,1,1.37-.35,4.9,4.9,0,0,1,1.84.44l.21.12q.44.25.39.57a1.76,1.76,0,0,1-.61.86,13.55,13.55,0,0,0-1.16,1,12.26,12.26,0,0,0-1.36,1.6,8.39,8.39,0,0,0-1.05,2.07,5,5,0,0,0-.24,2.41,6.69,6.69,0,0,0,.69,2,7.85,7.85,0,0,0,1.33,1.82,6.47,6.47,0,0,1,1.2-2,9.7,9.7,0,0,1,2.52-2,17.89,17.89,0,0,1,3.87-1.67,17,17,0,0,1,4.08-.72,15.24,15.24,0,0,1,4,.31,12.61,12.61,0,0,1,3.65,1.4,6.2,6.2,0,0,1,2.6,2.4,3.18,3.18,0,0,1,.23,2.42,5.39,5.39,0,0,1-1.5,2.26,13.09,13.09,0,0,1-2.59,1.92,17.79,17.79,0,0,1-4.9,2,19.15,19.15,0,0,1-5,.51,18.46,18.46,0,0,1-4.75-.74,20,20,0,0,1-4.29-1.82A16.65,16.65,0,0,1,326.16,404Zm10.41-2.61a5.55,5.55,0,0,0-1,1.44,3.31,3.31,0,0,0-.33,1.48,2.46,2.46,0,0,0,.45,1.36,9.28,9.28,0,0,0,2.16.78,10,10,0,0,0,2.61.28,11.66,11.66,0,0,0,2.75-.36,9.37,9.37,0,0,0,2.45-1,7.62,7.62,0,0,0,1.47-1.1,3.92,3.92,0,0,0,.92-1.35,2,2,0,0,0,0-1.43,3,3,0,0,0-1.38-1.35,8.28,8.28,0,0,0-4.22-1.12,8.51,8.51,0,0,0-4.31,1.17A7.42,7.42,0,0,0,336.57,401.39Z" style="fill:#fff"></path></g><path d="M259.93,364.42c-.3-.17-.44-.37-.42-.59s.22-.51.61-.85.7-.58,1.18-1a9.54,9.54,0,0,0,1.34-1.61,9.84,9.84,0,0,0,1-2.08,5.47,5.47,0,0,0,.27-2.43,5.11,5.11,0,0,0-.72-2A10.06,10.06,0,0,0,261.8,352a7.3,7.3,0,0,1-1.16,2,8.48,8.48,0,0,1-2.5,2,17.73,17.73,0,0,1-3.88,1.68,16.88,16.88,0,0,1-4.06.71,15.06,15.06,0,0,1-4-.32,12.67,12.67,0,0,1-3.66-1.4A6.15,6.15,0,0,1,240,354.3a3.15,3.15,0,0,1-.22-2.41,5.29,5.29,0,0,1,1.51-2.26,13.82,13.82,0,0,1,2.6-1.93,18,18,0,0,1,4.89-2,18.56,18.56,0,0,1,4.93-.52,18.91,18.91,0,0,1,4.74.75,19.3,19.3,0,0,1,4.26,1.81,14.52,14.52,0,0,1,4.72,3.91,7.56,7.56,0,0,1,1.48,3.84,6.94,6.94,0,0,1-.7,3.48,13.56,13.56,0,0,1-1.84,2.85,15.19,15.19,0,0,1-2,2c-.61.49-1,.76-1,.81A2.63,2.63,0,0,1,262,365a4.9,4.9,0,0,1-1.86-.45Zm-9.62-8.76a8.51,8.51,0,0,0,4.31-1.17,6.68,6.68,0,0,0,1.53-1.19,5.55,5.55,0,0,0,1-1.44,3.43,3.43,0,0,0,.36-1.49,2.19,2.19,0,0,0-.46-1.36,10.53,10.53,0,0,0-2.17-.73,10.8,10.8,0,0,0-2.63-.31l.06,0a14.23,14.23,0,0,0-2.76.39,9.69,9.69,0,0,0-2.48,1,7.62,7.62,0,0,0-1.47,1.1,3.88,3.88,0,0,0-.93,1.34,1.89,1.89,0,0,0,0,1.42,3,3,0,0,0,1.38,1.36A8.38,8.38,0,0,0,250.31,355.66Z" style="fill:#BA68C8"></path><g style="opacity:0.2"><path d="M259.93,364.42c-.3-.17-.44-.37-.42-.59s.22-.51.61-.85.7-.58,1.18-1a9.54,9.54,0,0,0,1.34-1.61,9.84,9.84,0,0,0,1-2.08,5.47,5.47,0,0,0,.27-2.43,5.11,5.11,0,0,0-.72-2A10.06,10.06,0,0,0,261.8,352a7.3,7.3,0,0,1-1.16,2,8.48,8.48,0,0,1-2.5,2,17.73,17.73,0,0,1-3.88,1.68,16.88,16.88,0,0,1-4.06.71,15.06,15.06,0,0,1-4-.32,12.67,12.67,0,0,1-3.66-1.4A6.15,6.15,0,0,1,240,354.3a3.15,3.15,0,0,1-.22-2.41,5.29,5.29,0,0,1,1.51-2.26,13.82,13.82,0,0,1,2.6-1.93,18,18,0,0,1,4.89-2,18.56,18.56,0,0,1,4.93-.52,18.91,18.91,0,0,1,4.74.75,19.3,19.3,0,0,1,4.26,1.81,14.52,14.52,0,0,1,4.72,3.91,7.56,7.56,0,0,1,1.48,3.84,6.94,6.94,0,0,1-.7,3.48,13.56,13.56,0,0,1-1.84,2.85,15.19,15.19,0,0,1-2,2c-.61.49-1,.76-1,.81A2.63,2.63,0,0,1,262,365a4.9,4.9,0,0,1-1.86-.45Zm-9.62-8.76a8.51,8.51,0,0,0,4.31-1.17,6.68,6.68,0,0,0,1.53-1.19,5.55,5.55,0,0,0,1-1.44,3.43,3.43,0,0,0,.36-1.49,2.19,2.19,0,0,0-.46-1.36,10.53,10.53,0,0,0-2.17-.73,10.8,10.8,0,0,0-2.63-.31l.06,0a14.23,14.23,0,0,0-2.76.39,9.69,9.69,0,0,0-2.48,1,7.62,7.62,0,0,0-1.47,1.1,3.88,3.88,0,0,0-.93,1.34,1.89,1.89,0,0,0,0,1.42,3,3,0,0,0,1.38,1.36A8.38,8.38,0,0,0,250.31,355.66Z" style="fill:#fff"></path></g><path d="M175.21,314a3.22,3.22,0,0,1,.1-2.51,18.25,18.25,0,0,1-5.06,0,11.82,11.82,0,0,1-4.31-1.37,6.09,6.09,0,0,1-2.08-1.75,3,3,0,0,1-.58-1.79,3.57,3.57,0,0,1,.52-1.71,8.46,8.46,0,0,1,1.21-1.54,11.45,11.45,0,0,1,1.51-1.29c.54-.38,1-.68,1.4-.91,1-.55,1.9-1.05,2.83-1.49a24.82,24.82,0,0,1,2.37-1,7.2,7.2,0,0,1,1.31-.24,2.09,2.09,0,0,1,1.26.27l.17.12.21.21,0-.08.33.36a1.71,1.71,0,0,1,.26.42.77.77,0,0,1,0,.45.86.86,0,0,1-.4.41,5.12,5.12,0,0,1-.74.33.77.77,0,0,0-.17.07l-.82.29h.06c-.47.17-1,.38-1.61.65a21.84,21.84,0,0,0-2,1.07c-.18.1-.41.25-.7.45a6.16,6.16,0,0,0-.87.71,5.12,5.12,0,0,0-.75.91,2.07,2.07,0,0,0-.38,1,1.72,1.72,0,0,0,.28,1.06,3.35,3.35,0,0,0,1.2,1,6,6,0,0,0,2.23.73,10.69,10.69,0,0,0,2.53,0,11.73,11.73,0,0,0,2.5-.54,11.17,11.17,0,0,0,2.21-1l1.22-.7a2.34,2.34,0,0,1,1.59-.42,5,5,0,0,1,1.41.6l.24.13a1.42,1.42,0,0,1,.71.69c.08.23-.11.48-.57.74l-.62.36-.37.19a2.53,2.53,0,0,0-.37.18,7.5,7.5,0,0,0-1.3,1,4.27,4.27,0,0,0-1,1.35A2.31,2.31,0,0,0,180,313a2.44,2.44,0,0,0,1.31,1.43,4.44,4.44,0,0,0,1.78.56,7.55,7.55,0,0,0,2-.06,10.89,10.89,0,0,0,2.05-.54,12.08,12.08,0,0,0,1.88-.88,17.06,17.06,0,0,0,1.54-1c.47-.34.88-.65,1.24-.93s.64-.51.84-.7l.34-.3.15-.09a2,2,0,0,1,.93-.26,6.63,6.63,0,0,1,1.13.07l.45.12.45.12a1.42,1.42,0,0,1,.24.11l.18.1q.48.27.51.57c0,.2-.15.44-.51.71l0,0a20.8,20.8,0,0,1-2,1.7,28.08,28.08,0,0,1-2.46,1.6,18.18,18.18,0,0,1-3.56,1.56,17.63,17.63,0,0,1-3.89.77,15.16,15.16,0,0,1-3.82-.15,10.1,10.1,0,0,1-3.44-1.23A4.51,4.51,0,0,1,175.21,314Z" style="fill:#BA68C8"></path><g style="opacity:0.6000000000000001"><path d="M175.21,314a3.22,3.22,0,0,1,.1-2.51,18.25,18.25,0,0,1-5.06,0,11.82,11.82,0,0,1-4.31-1.37,6.09,6.09,0,0,1-2.08-1.75,3,3,0,0,1-.58-1.79,3.57,3.57,0,0,1,.52-1.71,8.46,8.46,0,0,1,1.21-1.54,11.45,11.45,0,0,1,1.51-1.29c.54-.38,1-.68,1.4-.91,1-.55,1.9-1.05,2.83-1.49a24.82,24.82,0,0,1,2.37-1,7.2,7.2,0,0,1,1.31-.24,2.09,2.09,0,0,1,1.26.27l.17.12.21.21,0-.08.33.36a1.71,1.71,0,0,1,.26.42.77.77,0,0,1,0,.45.86.86,0,0,1-.4.41,5.12,5.12,0,0,1-.74.33.77.77,0,0,0-.17.07l-.82.29h.06c-.47.17-1,.38-1.61.65a21.84,21.84,0,0,0-2,1.07c-.18.1-.41.25-.7.45a6.16,6.16,0,0,0-.87.71,5.12,5.12,0,0,0-.75.91,2.07,2.07,0,0,0-.38,1,1.72,1.72,0,0,0,.28,1.06,3.35,3.35,0,0,0,1.2,1,6,6,0,0,0,2.23.73,10.69,10.69,0,0,0,2.53,0,11.73,11.73,0,0,0,2.5-.54,11.17,11.17,0,0,0,2.21-1l1.22-.7a2.34,2.34,0,0,1,1.59-.42,5,5,0,0,1,1.41.6l.24.13a1.42,1.42,0,0,1,.71.69c.08.23-.11.48-.57.74l-.62.36-.37.19a2.53,2.53,0,0,0-.37.18,7.5,7.5,0,0,0-1.3,1,4.27,4.27,0,0,0-1,1.35A2.31,2.31,0,0,0,180,313a2.44,2.44,0,0,0,1.31,1.43,4.44,4.44,0,0,0,1.78.56,7.55,7.55,0,0,0,2-.06,10.89,10.89,0,0,0,2.05-.54,12.08,12.08,0,0,0,1.88-.88,17.06,17.06,0,0,0,1.54-1c.47-.34.88-.65,1.24-.93s.64-.51.84-.7l.34-.3.15-.09a2,2,0,0,1,.93-.26,6.63,6.63,0,0,1,1.13.07l.45.12.45.12a1.42,1.42,0,0,1,.24.11l.18.1q.48.27.51.57c0,.2-.15.44-.51.71l0,0a20.8,20.8,0,0,1-2,1.7,28.08,28.08,0,0,1-2.46,1.6,18.18,18.18,0,0,1-3.56,1.56,17.63,17.63,0,0,1-3.89.77,15.16,15.16,0,0,1-3.82-.15,10.1,10.1,0,0,1-3.44-1.23A4.51,4.51,0,0,1,175.21,314Z" style="fill:#fff"></path></g><path d="M137.18,293.38c-.36-.2-.68-.37-1-.54l-.32-.18a9.85,9.85,0,0,1-3-3.1,12.63,12.63,0,0,1-1.42-3.51,13.64,13.64,0,0,1-.36-3.42,18.71,18.71,0,0,1,.26-2.8l-8.24,4.76a2.1,2.1,0,0,1-.76.27,3.64,3.64,0,0,1-.81,0,6.07,6.07,0,0,1-.84-.12c-.28-.06-.54-.12-.78-.19a.33.33,0,0,0-.12-.05l-.12,0-.1-.06-.12,0-.1,0c-.38-.22-.5-.46-.36-.71a2,2,0,0,1,.74-.69l13.47-7.78a2.28,2.28,0,0,1,.76-.28,2.31,2.31,0,0,1,.74,0,3,3,0,0,1,.7.14,5.66,5.66,0,0,1,.59.22l.21.12c.25.14.39.27.42.4a3.74,3.74,0,0,1,.07.5v0c0,.09,0,.22-.06.4a6.18,6.18,0,0,1-.11.61c-.07.47-.15,1.05-.23,1.74a22.24,22.24,0,0,0-.16,2.29,20.9,20.9,0,0,0,.1,2.59,11.7,11.7,0,0,0,.54,2.63A8.8,8.8,0,0,0,138,289a7.22,7.22,0,0,0,2.11,1.91,5,5,0,0,0,.63.29l.73.29a7.33,7.33,0,0,0,3.34.36,8.76,8.76,0,0,0,3.32-1.14,13.9,13.9,0,0,0,2.24-1.57c.54-.5.91-.85,1.1-1.06a2,2,0,0,1,.27-.34,3.55,3.55,0,0,1,.38-.25,1.9,1.9,0,0,1,.68-.14,9.19,9.19,0,0,1,1.05,0c.36,0,.71.07,1,.13a2.2,2.2,0,0,1,.72.2c.29.18.47.35.52.53s-.07.45-.37.81l-.14.08q-.42.45-1.41,1.35a19.87,19.87,0,0,1-3.06,2.08,14.94,14.94,0,0,1-3.08,1.34,18.38,18.38,0,0,1-3.39.7,17.3,17.3,0,0,1-3.45,0,13.2,13.2,0,0,1-3.21-.74A6.2,6.2,0,0,1,137.18,293.38Z" style="fill:#BA68C8"></path><path d="M86.74,259.15a1.24,1.24,0,0,1-.63-.67c-.06-.25.11-.49.53-.73l.09-.05a4,4,0,0,1,.74-.32,6.45,6.45,0,0,1,.89-.23,3.89,3.89,0,0,1,.9,0,1.7,1.7,0,0,1,.75.22l17,9.83,0-2.47,0,.15a.86.86,0,0,1,0-.45.8.8,0,0,1,.4-.42,1.8,1.8,0,0,1,.47-.16,2,2,0,0,1,.65-.06,11.3,11.3,0,0,1,1.28.12,3.3,3.3,0,0,1,1.1.32.75.75,0,0,1,.44.57l.16,5.71a.91.91,0,0,1-.06.47.8.8,0,0,1-.37.42l-.69.4a1.65,1.65,0,0,1-.94.21,2,2,0,0,1-.9-.24Z" style="fill:#BA68C8"></path><g style="opacity:0.4"><path d="M86.74,259.15a1.24,1.24,0,0,1-.63-.67c-.06-.25.11-.49.53-.73l.09-.05a4,4,0,0,1,.74-.32,6.45,6.45,0,0,1,.89-.23,3.89,3.89,0,0,1,.9,0,1.7,1.7,0,0,1,.75.22l17,9.83,0-2.47,0,.15a.86.86,0,0,1,0-.45.8.8,0,0,1,.4-.42,1.8,1.8,0,0,1,.47-.16,2,2,0,0,1,.65-.06,11.3,11.3,0,0,1,1.28.12,3.3,3.3,0,0,1,1.1.32.75.75,0,0,1,.44.57l.16,5.71a.91.91,0,0,1-.06.47.8.8,0,0,1-.37.42l-.69.4a1.65,1.65,0,0,1-.94.21,2,2,0,0,1-.9-.24Z" style="fill:#fff"></path></g><path d="M328.4,370.36l-.18-.12a.52.52,0,0,1-.15-.21l-12.85-16.69h0a1.08,1.08,0,0,1-.27-.72c0-.18.24-.38.64-.61a5.41,5.41,0,0,1,1.13-.44l1.19-.33a1.5,1.5,0,0,1,.74,0,2.26,2.26,0,0,1,.47.22l.26.16a.8.8,0,0,1,.2.21v0l11.67,15.26,10.25-5.92a2.26,2.26,0,0,1,.74-.26,3.52,3.52,0,0,1,.8,0,7.68,7.68,0,0,1,.82.11l.82.18h0l.33.08.24.14c.4.23.53.47.41.7a2,2,0,0,1-.8.7l-13.44,7.76a2.31,2.31,0,0,1-1.45.3,6.28,6.28,0,0,1-1.34-.32Z" style="fill:#BA68C8"></path><g style="opacity:0.2"><path d="M328.4,370.36l-.18-.12a.52.52,0,0,1-.15-.21l-12.85-16.69h0a1.08,1.08,0,0,1-.27-.72c0-.18.24-.38.64-.61a5.41,5.41,0,0,1,1.13-.44l1.19-.33a1.5,1.5,0,0,1,.74,0,2.26,2.26,0,0,1,.47.22l.26.16a.8.8,0,0,1,.2.21v0l11.67,15.26,10.25-5.92a2.26,2.26,0,0,1,.74-.26,3.52,3.52,0,0,1,.8,0,7.68,7.68,0,0,1,.82.11l.82.18h0l.33.08.24.14c.4.23.53.47.41.7a2,2,0,0,1-.8.7l-13.44,7.76a2.31,2.31,0,0,1-1.45.3,6.28,6.28,0,0,1-1.34-.32Z"></path></g><path d="M262.52,400.29a2.77,2.77,0,0,1-.4-2.09,15.31,15.31,0,0,1-5.2-.1,14.37,14.37,0,0,1-4.41-1.62,6.59,6.59,0,0,1-2.34-2.06,3.47,3.47,0,0,1-.6-2.33,4.67,4.67,0,0,1,1.08-2.38,9.31,9.31,0,0,1,2.67-2.18A15.45,15.45,0,0,1,257.1,386a18.07,18.07,0,0,1,4.1-.61,17,17,0,0,1,4,.34,12.08,12.08,0,0,1,3.58,1.35,6.88,6.88,0,0,1,2.74,2.58,3.31,3.31,0,0,1,.12,3,13.64,13.64,0,0,1,3.68.2,9.59,9.59,0,0,1,3.05,1.07,5.17,5.17,0,0,1,1.84,1.66,3.17,3.17,0,0,1,.52,2,4,4,0,0,1-.87,2.07,7,7,0,0,1-2.26,1.9,12.75,12.75,0,0,1-3.32,1.33,17.05,17.05,0,0,1-3.59.5,14.89,14.89,0,0,1-3.44-.3A10.15,10.15,0,0,1,264.4,402,5.16,5.16,0,0,1,262.52,400.29Zm-4.08-5a9.39,9.39,0,0,0,2.26.27,9.76,9.76,0,0,0,2.32-.29,8.85,8.85,0,0,0,2.21-.9,4.43,4.43,0,0,0,1.51-1.3,2.17,2.17,0,0,0,.43-1.39,2.64,2.64,0,0,0-.55-1.37,4.6,4.6,0,0,0-1.41-1.2h0a6.66,6.66,0,0,0-2-.75,10.13,10.13,0,0,0-4.56,0,7.33,7.33,0,0,0-2.09.81,4.43,4.43,0,0,0-1.53,1.32,2.43,2.43,0,0,0-.48,1.43,2.33,2.33,0,0,0,.46,1.37,3.94,3.94,0,0,0,1.29,1.15l.08,0A7.52,7.52,0,0,0,258.44,395.33Zm12.73,5.4a6.11,6.11,0,0,0,3.14-.84,3.48,3.48,0,0,0,1.12-.95,2,2,0,0,0,.42-1.06,1.72,1.72,0,0,0-.29-1,2.81,2.81,0,0,0-1-.87,4.33,4.33,0,0,0-1.4-.5,6.9,6.9,0,0,0-1.58-.08,7.43,7.43,0,0,0-1.61.27,7.24,7.24,0,0,0-1.48.63,3.55,3.55,0,0,0-1.06.89,1.87,1.87,0,0,0-.42,1,1.55,1.55,0,0,0,.25,1,2.77,2.77,0,0,0,1,.86A5.82,5.82,0,0,0,271.17,400.73Z" style="fill:#BA68C8"></path><path d="M237.38,316.77a1,1,0,0,1-.52-.6c-.06-.23.09-.46.47-.67l2.39-1.38L232,309.68a1.22,1.22,0,0,1-.62-.67c-.06-.25.15-.51.65-.8l.15-.09a5.44,5.44,0,0,1,.79-.35,5.19,5.19,0,0,1,1-.24,5.52,5.52,0,0,1,1,0,1.72,1.72,0,0,1,.8.2l7.55,4.37,9.26-5.35a2.94,2.94,0,0,1,1.42-.39,2.39,2.39,0,0,1,1.23.26,1.11,1.11,0,0,1,.55.74l1.36,13.51a1.06,1.06,0,0,1-.06.53.89.89,0,0,1-.45.55l-.63.36a2,2,0,0,1-1.09.3,1.81,1.81,0,0,1-.92-.22l-11.18-6.45-2,1.14a2,2,0,0,1-.77.23,6.17,6.17,0,0,1-.86,0,6,6,0,0,1-.85-.15q-.42-.11-.72-.21Zm9-2.95,5.62,3.24L251.3,311Z" style="fill:#BA68C8"></path><path d="M189.82,358.24a1.27,1.27,0,0,1-.56-.57c-.1-.22,0-.44.23-.66l7.8-4.81-4.65-3.65a9.38,9.38,0,0,1-1.06.77l-1.2.72a18.06,18.06,0,0,1-4,1.7,18.69,18.69,0,0,1-4.35.74,17.25,17.25,0,0,1-4.27-.29,12.08,12.08,0,0,1-3.81-1.41,6.26,6.26,0,0,1-2.51-2.31,3.89,3.89,0,0,1-.48-2.55,5.24,5.24,0,0,1,1.24-2.51,10.28,10.28,0,0,1,2.71-2.18,41.41,41.41,0,0,1,4.16-2.15c1.15-.48,2-.81,2.5-1a3.59,3.59,0,0,1,1.09-.14,2.11,2.11,0,0,1,1.05.27l.18.11a4.77,4.77,0,0,1,.45.45,1.59,1.59,0,0,1,.32.51.82.82,0,0,1,0,.51.62.62,0,0,1-.35.41l-.33.18-.32.11-.06,0c-.59.18-1.39.47-2.38.86A26.52,26.52,0,0,0,178,343a4.57,4.57,0,0,0-1.42,1.25,3,3,0,0,0-.59,1.51,2.58,2.58,0,0,0,.39,1.53,3.89,3.89,0,0,0,1.47,1.35,7.35,7.35,0,0,0,2.19.83,9.51,9.51,0,0,0,2.38.21,10.3,10.3,0,0,0,2.39-.4,10,10,0,0,0,2.23-.95,17.39,17.39,0,0,0,2.18-1.46l1.17-1,.09-.05a5.28,5.28,0,0,1,.38-.44l.25-.25.19-.15.21-.12a2.59,2.59,0,0,1,1.33-.35,2.51,2.51,0,0,1,1.27.3,1.3,1.3,0,0,1,.19.13,2.7,2.7,0,0,1,.3.26l0,0,8.75,6.94-10.15,6.25a1.7,1.7,0,0,1-.76.23,4.51,4.51,0,0,1-.9,0,5.73,5.73,0,0,1-.86-.13l-.68-.19Z" style="fill:#BA68C8"></path><g style="opacity:0.2"><path d="M189.82,358.24a1.27,1.27,0,0,1-.56-.57c-.1-.22,0-.44.23-.66l7.8-4.81-4.65-3.65a9.38,9.38,0,0,1-1.06.77l-1.2.72a18.06,18.06,0,0,1-4,1.7,18.69,18.69,0,0,1-4.35.74,17.25,17.25,0,0,1-4.27-.29,12.08,12.08,0,0,1-3.81-1.41,6.26,6.26,0,0,1-2.51-2.31,3.89,3.89,0,0,1-.48-2.55,5.24,5.24,0,0,1,1.24-2.51,10.28,10.28,0,0,1,2.71-2.18,41.41,41.41,0,0,1,4.16-2.15c1.15-.48,2-.81,2.5-1a3.59,3.59,0,0,1,1.09-.14,2.11,2.11,0,0,1,1.05.27l.18.11a4.77,4.77,0,0,1,.45.45,1.59,1.59,0,0,1,.32.51.82.82,0,0,1,0,.51.62.62,0,0,1-.35.41l-.33.18-.32.11-.06,0c-.59.18-1.39.47-2.38.86A26.52,26.52,0,0,0,178,343a4.57,4.57,0,0,0-1.42,1.25,3,3,0,0,0-.59,1.51,2.58,2.58,0,0,0,.39,1.53,3.89,3.89,0,0,0,1.47,1.35,7.35,7.35,0,0,0,2.19.83,9.51,9.51,0,0,0,2.38.21,10.3,10.3,0,0,0,2.39-.4,10,10,0,0,0,2.23-.95,17.39,17.39,0,0,0,2.18-1.46l1.17-1,.09-.05a5.28,5.28,0,0,1,.38-.44l.25-.25.19-.15.21-.12a2.59,2.59,0,0,1,1.33-.35,2.51,2.51,0,0,1,1.27.3,1.3,1.3,0,0,1,.19.13,2.7,2.7,0,0,1,.3.26l0,0,8.75,6.94-10.15,6.25a1.7,1.7,0,0,1-.76.23,4.51,4.51,0,0,1-.9,0,5.73,5.73,0,0,1-.86-.13l-.68-.19Z"></path></g></g></g><g id="freepik--character-3--inject-8"><g id="freepik--Character--inject-8"><g id="freepik--Bottom--inject-8"><path d="M441,335.61c-1-8-2.92-11.08-3.47-15.25-.57-4.41-.32-9.32-.77-11.23,0,0,1.4-25.62,1.72-36a76.1,76.1,0,0,0-1.86-18.91s.15-20.55,0-36.38c0-4.31-.1-7.91-.24-11-.11-5.43-.37-10.5-.8-14.71h-52s-3.16,40.39-3,58.7a226.44,226.44,0,0,0,1.48,25.95c1.58,13.47,2.73,23.21,3,28.87.28,5.16-.66,6-4.11,10.86s-8.67,9.66-12.26,11.59-4.76,5-.55,6.75c3.47,1.44,10.71,2.05,14.87-.76s6.86-6.45,11.21-8.41c1.71-.77,7.16-.81,8-4.29s-.65-9.85-1.38-14.2v-1.41c.75-8.77,1.82-17.42,2.56-24.95a172,172,0,0,0,1-18.63L407,227.92l1.26-.29c1.65,10.45,3.83,24.14,4.83,30.15s5,31.58,6.3,37.9c.9,4.51,2.22,10.52,2.93,14.3-.69,2.89.76,11.54.2,20.36-.18,2.94-1.6,10.22,1.36,14.69,2.76,4.19,7.42,6.32,13.4,1.82C443.13,342.45,441.37,338.77,441,335.61Z" style="fill:#ffc4c3"></path><path d="M421.65,339.88c.26,4.22,1,7,2.78,9.4s5.12,3.05,8.53,2.18,7.78-3,8.78-6.67.83-6.18.08-10.07Z" style="fill:#263238"></path><path d="M436.74,309.13c1.4,0,.45,5.28,1.22,10.93.82,6.06,3,8.49,3.7,13.45.84,5.68.46,8.24-1.94,11.79s-10.83,7.27-14.93,2.5c-3.35-3.89-3.46-8.35-3.1-14.07a123,123,0,0,0,.42-14.51c-.24-4.27-1-8.72.23-9.24.09.62,1,5.32,1.6,4.87a.71.71,0,0,0,.21-.4,6,6,0,0,0,.13-1.85,1.94,1.94,0,0,1,0-.68,1.19,1.19,0,0,1,.27-.44,3.08,3.08,0,0,1,1.64-.73,23.61,23.61,0,0,1,8.37-.49.88.88,0,0,1,.55.22.84.84,0,0,1,.15.38,17.35,17.35,0,0,1,.14,1.77,1.3,1.3,0,0,0,.12.55.49.49,0,0,0,.45.29c.52,0,.47-.7.53-1.05s.18-.91.23-1.38A4.55,4.55,0,0,0,436.74,309.13Z" style="fill:#37474f"></path><path d="M441.35,331.9c.13.82.92,6.24-.85,7.29-1.92,1.14-2.93-3.1-2.93-3.1s-4.47-1-11,1.7c.33.87-.7,3.82-2.48,3.28s-2.42-6.76-2.43-6.84c-.31,5.47-.12,9.79,3.13,13.57,4.1,4.77,12.53,1.05,14.93-2.5s2.78-6.11,1.94-11.79C441.57,333,441.47,332.41,441.35,331.9Z" style="fill:#455a64"></path><path d="M437.05,336.48c0,2.06,2.44,1.26,2.57-1.65s-1.72-9.76-1.66-14.77c-.77-5.65.18-10.9-1.22-10.93,0,.07-.44,3.65-.44,4.1,0,4.21,0,12.12.41,15.95A56.06,56.06,0,0,1,437.05,336.48Z" style="fill:#263238"></path><path d="M427.33,337.7a53.91,53.91,0,0,1-1.28-7.19c-.46-3.79-1.62-11.73-2.54-15.85-.22-.89-1.17-4.65-1.17-4.68-.95.33-.53,3-.41,5.86.16,1.64.45,3.67.88,6.12,1.16,4.86.88,12,1.65,14.81S427.77,339.71,427.33,337.7Z" style="fill:#263238"></path><path d="M426.43,338a.6.6,0,0,0,.19-.06,19.79,19.79,0,0,1,10.81-1.38.57.57,0,0,0,.64-.34.42.42,0,0,0-.37-.52,20.58,20.58,0,0,0-11.55,1.49.42.42,0,0,0-.23.6A.53.53,0,0,0,426.43,338Z" style="fill:#f0f0f0"></path><path d="M425.3,333.53a.64.64,0,0,0,.17,0,24.37,24.37,0,0,1,12.1-1.54.57.57,0,0,0,.63-.36.43.43,0,0,0-.39-.51A25.33,25.33,0,0,0,425,332.71a.42.42,0,0,0-.24.59A.52.52,0,0,0,425.3,333.53Z" style="fill:#f0f0f0"></path><path d="M437.26,327.7a.57.57,0,0,0,.45-.32.41.41,0,0,0-.33-.54c-6.27-1.54-12.5,1.41-12.76,1.54a.42.42,0,0,0-.23.6.57.57,0,0,0,.7.15c.06,0,6.12-2.88,12-1.44A.81.81,0,0,0,437.26,327.7Z" style="fill:#f0f0f0"></path><path d="M437,324.26a.56.56,0,0,0,.44-.31.41.41,0,0,0-.31-.55,19,19,0,0,0-13,1.52.4.4,0,0,0-.18.6.55.55,0,0,0,.71.12,18.24,18.24,0,0,1,12.13-1.4A.62.62,0,0,0,437,324.26Z" style="fill:#f0f0f0"></path><path d="M436.83,320.25a.56.56,0,0,0,.43-.3.4.4,0,0,0-.3-.55c-6.46-1.78-12.85,1.49-13.11,1.64a.41.41,0,0,0-.2.6.54.54,0,0,0,.71.13c.06,0,6.23-3.19,12.23-1.54A.65.65,0,0,0,436.83,320.25Z" style="fill:#f0f0f0"></path><path d="M439.92,269.78a157.26,157.26,0,0,0-2.29-16.19s-.18-5.93-.13-13.65-.1-14.82-.26-25.12-.92-17.59-1.54-25.19H383.62c-2.8,21.32-3.67,44.94-3.88,59.05a210.12,210.12,0,0,0,1.7,28.2c.79,6.61,2.77,22.53,2.77,22.53,1.24,1.21,4.57,2.62,8.77,2.75a15.5,15.5,0,0,0,9.4-2.48s2.43-12.63,3.36-23.68a67.17,67.17,0,0,0-.55-13.69l3.27-24.73,2.51,13c2.37,14.62,9.25,52.65,9.25,52.65s3,2.49,8.71,1.88c6.06-.64,8.59-2.64,8.59-2.64S440.4,276.74,439.92,269.78Z" style="fill:#37474f"></path><path d="M408.46,237.58l-1.92-12.93S396,221.92,393,216.17c0,0,.85,7.69,11.94,12.05l1.52,9.8-1.25,24.29Z" style="fill:#263238"></path><path d="M363.63,331.71c-.26,0-.61,2.89.83,4.09,1.66,1.39,6.51,3.63,12.85,2.7s8.09-2.23,10.6-4.4,4.8-4.45,7.66-5.13c2.66-.63,6.71-1.77,7.55-2.61s.66-4.51.66-4.51Z" style="fill:#263238"></path><path d="M401.08,306a1.14,1.14,0,0,1,1.09.86c.21,1,.47,3.94.92,5.6a41.67,41.67,0,0,1,.59,10.67c-.32,1.88-5.82,3.14-8.58,4.25a26.51,26.51,0,0,0-7.7,5.05,19.54,19.54,0,0,1-11.66,4.5c-4.9,0-10.44-1.45-11.75-3.7-1.61-2.79-1.88-5.48,5.33-9,1.36-.66,5.08-3.23,6.71-4.29a30.6,30.6,0,0,0,4.74-4.07,16.34,16.34,0,0,0,2.41-3.18,10.2,10.2,0,0,0,1.11-2.15,22.46,22.46,0,0,0,.39-2.32c.1-.45.26-1.05.68-1.24a4.13,4.13,0,0,1,2.05-.22,26.36,26.36,0,0,1,4.89,1,3,3,0,0,1,1.66,1,2.64,2.64,0,0,1,.35,1.35,9.45,9.45,0,0,0,.06,1.41.84.84,0,0,0,.2.46c.25.25.64,0,.85-.15a18.36,18.36,0,0,0,1.91-2.39c.34-.43,1.88-.73,2.3-1.07a16.81,16.81,0,0,0,1.42-1.05C401.49,306.91,401.07,306.58,401.08,306Z" style="fill:#37474f"></path><path d="M387.4,332.42a37.79,37.79,0,0,1,3.33-2.64h0s-7.69,3.19-11.18.89c-2.25-1.48-1.22-3.34-1.18-3.93s-5.48-3-7.64-3.25h0c-.6.34-1.1.62-1.41.77-7.21,3.49-6.94,6.18-5.33,9,1.31,2.25,5.33,4,11.66,3.85A20.14,20.14,0,0,0,387.4,332.42Z" style="fill:#455a64"></path><path d="M378.94,325c-4.49,1.88-2.54,2.69-1.28,2.85s7.58-3.62,12.16-7.37c4.77-3.91,8.92-8,10.69-9.46.66-.53,1.38-1.19,2-1.8-.14-1-.25-1.9-.35-2.37-.18-.85-1.19-1.08-1.19-1.08v1.41a5.11,5.11,0,0,1-1.56.89,5.21,5.21,0,0,0-2.1,1.41,18.36,18.36,0,0,1-1.91,2.39C391.55,316.94,383.43,323.11,378.94,325Z" style="fill:#263238"></path><path d="M378,327.18a.43.43,0,0,0,.28-.11.45.45,0,0,0,.06-.63,10.75,10.75,0,0,0-8.33-3.12.44.44,0,0,0-.39.5.43.43,0,0,0,.5.38,10,10,0,0,1,7.53,2.82A.44.44,0,0,0,378,327.18Z" style="fill:#f0f0f0"></path><path d="M381.88,324.89a.46.46,0,0,0,.29-.1.45.45,0,0,0,.06-.63,10.74,10.74,0,0,0-8.25-3.32.45.45,0,0,0-.4.49.44.44,0,0,0,.49.4,10,10,0,0,1,7.47,3A.44.44,0,0,0,381.88,324.89Z" style="fill:#f0f0f0"></path><path d="M385.49,322.3a.43.43,0,0,0,.28-.11.44.44,0,0,0,.05-.63,10.71,10.71,0,0,0-8.33-3.12.44.44,0,0,0,.11.88,10,10,0,0,1,7.54,2.82A.44.44,0,0,0,385.49,322.3Z" style="fill:#f0f0f0"></path><path d="M388.33,319.76a.4.4,0,0,0,.29-.09.46.46,0,0,0,.08-.63,10.83,10.83,0,0,0-8.19-3.48.45.45,0,0,0-.41.49.45.45,0,0,0,.48.41,10,10,0,0,1,7.41,3.13A.42.42,0,0,0,388.33,319.76Z" style="fill:#f0f0f0"></path><path d="M391.7,316.81a.37.37,0,0,0,.28-.09.44.44,0,0,0,.09-.62c-1.7-2.25-5.63-3.8-9-3.5a.44.44,0,0,0-.41.48.45.45,0,0,0,.48.41c3-.26,6.66,1.15,8.18,3.15A.42.42,0,0,0,391.7,316.81Z" style="fill:#f0f0f0"></path></g><g id="freepik--Top--inject-8"><g id="freepik--Arm--inject-8"><path d="M366.58,116c2.62-8.81,4-15.3,4.62-18.49a16.87,16.87,0,0,0,.25-4.2,19.48,19.48,0,0,1,.46-5.45c.22-1.07.43-2.15.65-3.22.7-2.88,1.79-9.78,5.68-9.48A2.8,2.8,0,0,1,380.69,73a5,5,0,0,0,1.59-.14c1.07-.81,2.4-1.57,3.75-.87.34-.78,1-1.78,2-1.52,1.38.66,1.05,2.79.92,4.08-.73,3.26-3.27,7.75-3.53,10.7.06,1.79,2.24-2.37,2.53-2.68a3,3,0,0,1,2.58-1.11c1.89.17.51,2.2.37,3.27A17.12,17.12,0,0,1,387.81,92c-.6.7-1.15,1.28-1.64,1.79a9,9,0,0,0-2.44,5.43l-2.09,24a83,83,0,0,0,5.33,8.5c2.88,4.25,6.64,7,10.83,9.44,5.08,12.61-13.05,28.59-14.53,21.58-1.32-6.28-5.1-11.6-8.14-17.48-4.87-9.44-5.81-11.35-7.53-14.6C365.42,126.54,363.87,125.13,366.58,116Z" style="fill:#ffc4c3"></path><path d="M398.8,141a22.7,22.7,0,0,1-6.63-4.08,31.83,31.83,0,0,1-5.4-6c-1-1.69-3.12-4.58-3.12-4.58a14.32,14.32,0,0,0-7.54,4.32,19.61,19.61,0,0,0-4.6,8.43s3.45,6.7,5.88,11.13,7,13.57,7,17.77c3.64,4.19,6.23-1.86,8.68-3.74C400.28,158.7,406.16,144.56,398.8,141Z" style="fill:#37474f"></path><path d="M378.46,91a8.51,8.51,0,0,1,.93-2.2,6.24,6.24,0,0,1,3.74-3c.18,0,.14.18.06.26-.56.53-1.19,1-1.73,1.52a9.26,9.26,0,0,0-1.38,1.8,8.22,8.22,0,0,0-.82,2,7.62,7.62,0,0,0-.2,1.06,2.49,2.49,0,0,1-.22,1c-.09.15-.38.24-.47,0A4,4,0,0,1,378.46,91Z" style="fill:#ffa8a7"></path></g><g id="freepik--Chest--inject-8"><path d="M437,166c1.2-11.11,0-12.06-1.32-16.09s-4.51-7.91-8.28-8.31c0,0-11.82-.89-13.34-1a103.44,103.44,0,0,0-13.12,0c-3.26.25-5-.08-7.79,2.31s-7.75,7.23-8.5,19.68c-1,17.47-1,24.33-2.66,38.85,4.26,9.69,30.91,15.89,55.39,4.38,0,0-1.15-13.21-1.45-18.95C435.67,181.76,436.07,174.93,437,166Z" style="fill:#BA68C8"></path></g><path d="M435.7,150c-3.53-8.1-4.45-8.46-6.2-8.74-2.34-.37-14.59-.49-15.42-.53a105.54,105.54,0,0,0-13.12,0c-3.27.24-5.24,0-8,2.37s-7.4,6.82-8.19,18.54c.15-.91,1.18-6.3,3.85-9.6,2.91-3.62,9.65-6.31,9.65-6.31s0,2.34,3.2,4c3.78,2,12.42.41,15.9-2.78,0,0,4.25,9.39,6.53,12.77,2.71,4,6.84,9.37,12.91,8.57C437.94,158.61,437.39,153.84,435.7,150Z" style="fill:#455a64"></path><g id="freepik--Head--inject-8"><path d="M414.9,98.41a6,6,0,0,1-.28-1.13,5.32,5.32,0,0,1,.59-3.32,5.45,5.45,0,0,1,5.65-2.61c1.14.22,2.23.82,3.39.71,2.24-.22,3.81-3.08,6.24-2.18a6.42,6.42,0,0,1,2.65,2.26,11.68,11.68,0,0,0,2.36,2.59,7.13,7.13,0,0,0,3.6,1.09,4.21,4.21,0,0,1,4.23,2.81c.65,1.87-1.19,3.88-.72,5.8.35,1.45,1.78,2.32,3,3.15s2.53,2,2.36,3.53c-.16,1.33-1.43,2.21-2.61,2.86s-2.49,1.36-2.88,2.65c-.53,1.74.94,3.67.32,5.39-.46,1.27-1.89,1.9-3.22,2.13a14.52,14.52,0,0,0-4,.8,18,18,0,0,0-2.63,2,3.49,3.49,0,0,1-3.07.81c-1.41-.48-1.95-2.23-3.22-3-1.64-1-4-.13-5.61-1.25s-1.44-3.36-1-5.17,1.2-3.75.44-5.46a6.06,6.06,0,0,0-3-2.66,11.56,11.56,0,0,1-3.4-2.2,3,3,0,0,1-.5-3.72,2.75,2.75,0,0,1,1.1-.87c.32-.13.53-.17.71-.5a4.5,4.5,0,0,0,.27-2.67c-.06-.48-.47-.87-.68-1.3C415,98.76,415,98.59,414.9,98.41Z" style="fill:#f0997a"></path><path d="M426.21,97.26c2.88,2.26,6.3,7.19,4,10.75-3.55,2.6-7.87-2.33-9.45-5.29C418.89,98.3,421.42,93.47,426.21,97.26Z" style="fill:#BA68C8"></path><path d="M388.75,99.39c-5,8.34-1.47,16.08.39,17.46l29.14,19.66c2-4.57,8.74-6.64,12.06-16.27,1.93-5.58.73-14.43-4.23-17.52C422.89,89.45,397.16,85.33,388.75,99.39Z" style="fill:#f0997a"></path><path d="M424.38,128.16a7.5,7.5,0,0,0,3.55-3.57c1.11-2.13,1.1-5.29.37-6.59a4.43,4.43,0,0,0-4.5-2.19,3.7,3.7,0,0,0-2.79,2.28c-.43.75-1.14,2.67-2.2,2.32-1.56-.52-.93-3.76-.95-5.35-.11-9.55-7.15-13.83-14.23-13.25-6.56-2.92-11.12.5-13.33,5.3-1.65,3.58-.45,7.44-.72,8.55a18.59,18.59,0,0,0-1.34,5.35c-.39,3.12-.41,6.74,2.28,10.51a15.19,15.19,0,0,0,10.72,5.77h0l0,5.8c-6.14,6.54,11.66,8.64,17.64-.56l.6-15.44A5.24,5.24,0,0,0,424.38,128.16Z" style="fill:#ffc4c3"></path><path d="M401.24,137.26a24,24,0,0,0,11.57-2,11.18,11.18,0,0,0,5.07-5.8,7.37,7.37,0,0,1-3.24,7.08c-4.95,3.38-13.39,3.18-13.39,3.18Z" style="fill:#ffa8a7"></path><path d="M396.22,111.07l-3.77.83a2,2,0,0,1,1.48-2.37A1.93,1.93,0,0,1,396.22,111.07Z" style="fill:#263238"></path><path d="M411.85,114.17l-3.06-2.37a1.91,1.91,0,0,1,2.71-.42A2,2,0,0,1,411.85,114.17Z" style="fill:#263238"></path><path d="M406.52,117.08a1.69,1.69,0,1,0,1.86-1.5A1.69,1.69,0,0,0,406.52,117.08Z" style="fill:#263238"></path><path d="M393.18,115.3a1.69,1.69,0,1,0,1.86-1.5A1.69,1.69,0,0,0,393.18,115.3Z" style="fill:#263238"></path><path d="M407,126c-1-1.26-2.16.11-4.67.31s-3.84-1.24-4.44.33c-.51,1.3.81,4.29,4.95,4.22C406.39,130.83,407.93,127.14,407,126Z" style="fill:#b16668"></path><path d="M402.33,126.33a29.56,29.56,0,0,0,3.49-.83l0,1.16a5.33,5.33,0,0,1-2.79.93,7.22,7.22,0,0,1-3.89-.57l-.23-1.1A17.54,17.54,0,0,0,402.33,126.33Z" style="fill:#fafafa"></path><path d="M402.84,130.88a6.46,6.46,0,0,1-2.22-.32,4.77,4.77,0,0,1,5.06-2.48,4.44,4.44,0,0,1,1.15.38A4.53,4.53,0,0,1,402.84,130.88Z" style="fill:#ffa8a7"></path><path d="M387.81,118.29a2.54,2.54,0,1,0,2.3-2.85A2.61,2.61,0,0,0,387.81,118.29Z" style="fill:#ffa8a7"></path><path d="M415.45,121.43a2.55,2.55,0,0,1-3,2,2.62,2.62,0,0,1-1.9-3.15,2.52,2.52,0,0,1,3-2A2.63,2.63,0,0,1,415.45,121.43Z" style="fill:#ffa8a7"></path><polygon points="402.12 113.61 400.52 122.84 395.63 120.21 402.12 113.61" style="fill:#ffa8a7"></polygon><path d="M399.91,99.47c-3.86.82-7.94,2.53-9.8,6.36a6.27,6.27,0,0,0-.85,2.31c0,.37.57.45.85.53a19.42,19.42,0,0,0,5.37.66.81.81,0,0,0,1-.6,10.6,10.6,0,0,1,1.1-2.29c.25-.37,1-1.37.95-.54a20.45,20.45,0,0,0,0,3.75,1.38,1.38,0,0,0,.78.81c2.16,1.14,6,1.57,6.9,1.67a3.78,3.78,0,0,0,1.73-.08c.71-.43.91-1.62.94-4.11,0-.28,0-.49.11-.54.7.12,1.44,3,1.53,3.41s.1.92,1.37,1.14a14.13,14.13,0,0,0,6.56-.16c.12-.05.33,0,.42-.12a2.37,2.37,0,0,0,.18-1.15c0-2-1.21-3.58-2.41-5a18.58,18.58,0,0,0-4.17-3.68C407.55,99.2,404.21,98.78,399.91,99.47Z" style="fill:#f0997a"></path></g><g id="freepik--arm--inject-8"><path d="M425.6,141.38c2.18,0,6.13-3.79,9.84-9.95a130.36,130.36,0,0,0,6.42-11.91l.8-24h0c-.25-2.09-4-5.45-4.76-8.51s-1.09-4.66-1.76-6.94c-.64-1.3,1.05-2,2.05-1.35,2.09.42,3,5.33,4.2,4.7.29-.31-.09-1.74-.24-2.38-.66-3.51-2-8.42-1.87-10.5s1.61-3.07,2.93-1.84c.62.62.52,1,.8,1.42,1-.42,1.68-.37,2.9.56a3.77,3.77,0,0,1,.63.84,2.83,2.83,0,0,1,2.37.55,4.55,4.55,0,0,1,1.41,1.8c3.24.43,3.87,6.08,4.29,8.76.19,1.67.31,3.35.48,5a20.36,20.36,0,0,1-.14,5.64,15.43,15.43,0,0,0-.06,4.7c.63,4.71,2,15.08,2.72,23.56.41,4.71.45,6-1.53,10.11-2.62,5.41-7.21,11-12.32,20.16-3.42,6.14-6,10.32-8,15.65-3.25.65-6.1-1.51-9.14-6.25C423.43,154.68,422.82,145.58,425.6,141.38Z" style="fill:#ffc4c3"></path><path d="M425.29,140.94c1.09-.21,2.49-1.14,4.72-3s8.22-11.35,8.22-11.35a14,14,0,0,0,5.2,10.56c5.43,4.43,8.35,3.27,8.35,3.27s-4.41,7.55-6.82,12-7.65,13.05-8.15,15.83c-2.81.58-8.72-2.25-11.79-10.83S424.09,142.36,425.29,140.94Z" style="fill:#37474f"></path><path d="M443.81,84.65a3.34,3.34,0,0,1,2.33.61A6.53,6.53,0,0,1,448,87a5.33,5.33,0,0,1,.91,5.17.11.11,0,0,1-.21,0c-.11-.75-.1-1.52-.27-2.27a6.73,6.73,0,0,0-1.06-2.42A6.41,6.41,0,0,0,443.78,85C443.64,84.91,443.71,84.69,443.81,84.65Z" style="fill:#ffa8a7"></path></g></g><path d="M367.92,80.6c.44-2.08.74-4.08,1.92-5.9a10.27,10.27,0,0,1,2.25-2.49c.93-.73,2.05-1.18,3-1.94.14-.12.18-.54-.08-.53a6.29,6.29,0,0,0-3.57,1.64,11,11,0,0,0-2.52,2.84,9,9,0,0,0-1.36,6.57C367.6,81.06,367.9,80.72,367.92,80.6Zm-2.87-8.23a22,22,0,0,1,2.88-3.23c.08-.09.16-.4-.07-.37-1.57.26-2.81,1.78-3.6,3.08a6.91,6.91,0,0,0-1.12,4.58c0,.19.28,0,.31-.09A15.23,15.23,0,0,1,365.05,72.37Z" style="fill:#37474f"></path><path d="M463.6,122.29a16.29,16.29,0,0,1,.7,6.16,10.53,10.53,0,0,1-1,3.19c-.54,1.06-1.38,1.94-1.89,3-.07.16.06.57.3.45a6.35,6.35,0,0,0,2.56-3,10.79,10.79,0,0,0,1.12-3.63,8.92,8.92,0,0,0-1.48-6.54C463.7,121.73,463.57,122.16,463.6,122.29Zm6,6.3a23,23,0,0,1-1.29,4.13c0,.12,0,.43.21.31,1.33-.89,1.83-2.79,2-4.3a6.86,6.86,0,0,0-.88-4.63c-.11-.16-.26.1-.25.21A15.35,15.35,0,0,1,469.63,128.59Z" style="fill:#37474f"></path></g></g><g id="freepik--character-2--inject-8"><g id="freepik--character--inject-8"><g id="freepik--bottom--inject-8"><path d="M281.17,213.71c3.32,12.76,7,25.37,8.52,34.26s4.07,21.43.86,26.72c-3.12,5.14-7,6.35-15.54,4.92-7.05-1.18-38.72-12.22-40.29-12.57-3.55-.77-7.21,5.57-8.52,9.79-.93,3-.53,4.12-2.61,8.48-.74,1.55-2.08,3.73-7.89,5.89-1.56.58-5.17,1.16-6.59-2.56-.54-1.41-1.93-3.65.22-10.21a33.89,33.89,0,0,1,2.85-6.14,28.72,28.72,0,0,0,3.5-8.63,63.58,63.58,0,0,0,1-7.18c.41-4.2,3-8.59,8-7.64,3.06.59,5.87,3.4,8.88,4.29,5.12,1.52,29,2.67,35.13,6.71l-28.33-46.13Z" style="fill:#ffa8a7"></path><path d="M281.49,213.71s6.36,17.12,10.6,32.76c4.32,15.88,2.61,24.87-.65,28.91s-7.49,5.61-15,4.82S242.74,270,242.74,270s-4.62-9.4.76-15.66c0,0,13,1,18,2.2a14.29,14.29,0,0,1,3.46,1.14l-24.58-43.94Z" style="fill:#37474f"></path><path d="M224.71,248.84c-1.53-.78-2.93-1.88-5.69,0s-3.65,4.44-4.21,8.86-.72,7-2.23,10.39-2.82,4.81-4.24,7.54-2.28,8.14-1.4,10.88a8,8,0,0,0,3.77,4.48Z" style="fill:#263238"></path><path d="M224,286.63a14.32,14.32,0,0,0,.56-1.5c.75-2.36,1.06-4.84,1.84-7.19a18.45,18.45,0,0,1,4.43-7.39c0-.25,1.39-1.09,1.63-1.24.54-.37,1.11-.73,1.66-1.1a1.26,1.26,0,0,0,.56-.63,1.24,1.24,0,0,0-.23-.93c-.73-1.29-1.5-2.57-2.31-3.82a3.26,3.26,0,0,0-3.64-1.76l-1.9.26a4.44,4.44,0,0,1,1.48-1.31,3.48,3.48,0,0,0,1-.63,2.19,2.19,0,0,0,.42-1.58,5.15,5.15,0,0,1,.19-2.28c.58-1.15,2.06-1.53,2.86-2.47a.68.68,0,0,0,.21-.61l0-.06a.62.62,0,0,0-.3-.23c-2.45-1.28-4.84-3.26-7.61-3.79-5.05-1-7.75,3.52-8.17,7.81a70.31,70.31,0,0,1-1.19,7.33A27.54,27.54,0,0,1,212,272.1a34.89,34.89,0,0,0-3,6.36,21.72,21.72,0,0,0-1.17,6,7.94,7.94,0,0,0,1,4.83,7.57,7.57,0,0,0,3.86,2.92,11.69,11.69,0,0,0,7.83-.85C222.16,290.35,223.22,288.43,224,286.63Z" style="fill:#37474f"></path><path d="M210.41,275c3.48,3.56,10.17,8.09,14.93,7.09-.08,3.42-1.43,9.68-7.4,10.74-5.11.91-9.07-2.32-9.59-3.93A17.19,17.19,0,0,1,210.41,275Z" style="fill:#fafafa"></path><path d="M228.24,213.71c-1.89,5.37-4.13,15.36-1,28.47S240.6,282,241.1,284.77a53.94,53.94,0,0,0-.77,18.21c1.26,10.3,3.57,19.42,2.8,25.3s-4,7.69-4.43,12.7c-.26,2.8,1.81,5.14,5,6.89s5.89,6.57,7.45,9.92,8.47,7.25,15.12,6.34,8.4-3.86,6.73-6.33-3.48-2.66-6.73-6.7-6.74-9-7.23-14.51c-.86-9.53,1.88-18.64,3.47-29.3s3.55-21.82,3.07-28.5-2.13-41.57-2.13-41.57a28.19,28.19,0,0,0,16.35-23.51Z" style="fill:#ffa8a7"></path><path d="M242.47,325c3.13,3.59,12.32,4.38,17.87,1.18,3.48-21.19,5.68-38,5.8-42.87S264.07,242,264.07,242s19.56-7.5,18.36-28.3l-54.76-.3a44.4,44.4,0,0,0-1.9,13c.07,6.55-.13,13.2,3.34,24.69s11.67,33.69,11.67,33.69a48.93,48.93,0,0,0-1.5,12C239.28,300.91,242.47,325,242.47,325Z" style="fill:#455a64"></path><path d="M238.3,341.8a4.64,4.64,0,0,0,0,4.5c.89,1.2,4.62,3.16,6,4.24s3.61,4.52,4.8,7,2.67,5.5,9.13,7.79,11,.75,13.08-.24a4.28,4.28,0,0,0,2.6-4.73,14.76,14.76,0,0,1-15,0c-8.15-4.59-8-8.55-12.07-12.53A35.18,35.18,0,0,0,238.3,341.8Z" style="fill:#263238"></path><path d="M268.62,352.37c-.81-.78-1.59-1.57-2.35-2.4a23.5,23.5,0,0,1-3.75-5.86,20.29,20.29,0,0,1-2.2-8.82,1.45,1.45,0,0,0-.38-1.23,1.34,1.34,0,0,0-.82-.17A24.15,24.15,0,0,0,252,335.2c-1,.33-2.09.87-2.29,1.9-.15.75.24,1.61-.19,2.24-1.61-1.44-2.28-3.72-3.92-5.13-.69-.59-1.52-1-2.17-1.65a2.29,2.29,0,0,1-.7-2.46c-1,.29-.85,1.64-1.19,2.41s-.87,1.78-1.32,2.66a15.29,15.29,0,0,0-1.87,5.63c-.27,2.87,1.84,5.26,5.1,7.05s5.81,6.81,7.61,10.13a10.5,10.5,0,0,0,1.93,2.44,19.1,19.1,0,0,0,14.44,3.84c2.36-.32,4.86-.78,6.17-3.07s0-4.59-1.79-6C270.69,354.28,269.63,353.34,268.62,352.37Z" style="fill:#37474f"></path><path d="M253,360.42c.93-3.61,6-6.73,10.41-7.63s5.71-.3,6.16,0,3.79,2.68,4.42,3.82a5.23,5.23,0,0,1,0,4.61c-.71,1.69-4.51,3.39-9.18,3.39C261,364.61,255.74,363.36,253,360.42Z" style="fill:#fafafa"></path></g><g id="freepik--top--inject-8"><path d="M276.13,159.81s-3.51,7.51-6.68,15.65c-6.66,17.09-7.52,22.2-8.11,26s2.24,7.34,7,10a160.79,160.79,0,0,0,19.4,8.7c7.81,2.9,14,3.54,17.07,1.88a7.85,7.85,0,0,0,1.43-1.28,2.66,2.66,0,0,0,.87-1.16c.12-.42,0-.87.17-1.27a3.12,3.12,0,0,1,.92-1.16,2.85,2.85,0,0,0,.89-1.82,9.5,9.5,0,0,1-.07-1.76c.16-.62.73-1,1.05-1.6a2.54,2.54,0,0,0,.07-2.09c-.67-2.08-1.93-2.56-4.59-2.13-.38-1.26-.73-3-3.31-2.28-3.31.86-7.89,2.28-10.15,1.35-4.77-2-12-7.14-12-7.14a132,132,0,0,0,6.14-15C289,176.43,290.36,165.74,276.13,159.81Z" style="fill:#ffa8a7"></path><path d="M274.68,158.92c7.33,1.82,10.55,5.8,12.07,8.71s3,9.67-.93,19.52l-3.09,7.6s-10.94.42-17.82-6.95Z" style="fill:#455a64"></path><path d="M305.59,207.74a7,7,0,0,1,.12,4.41,28,28,0,0,1-1.9,4.06,1.45,1.45,0,0,1-.33.36.49.49,0,0,1-.33.07,1.52,1.52,0,0,1-.8-.5,3.08,3.08,0,0,1-.71-1.94c0-1.45.36-3.1-.23-4.54a4.12,4.12,0,0,1,.11,1.64,1.66,1.66,0,0,0-1,.48,2.43,2.43,0,0,0-.67,1.05,2.64,2.64,0,0,0-.11,1.28,3,3,0,0,0,.37.95,2.26,2.26,0,0,0-.95,2,3,3,0,0,0,1,1.9,1.9,1.9,0,0,0-.81,1.53,1.5,1.5,0,0,0,.41.93,2.4,2.4,0,0,0,.79.55,2.9,2.9,0,0,1-.65-.66,1.47,1.47,0,0,1-.24-.82,1.67,1.67,0,0,1,1-1.29l.29-.15-.25-.24a2.94,2.94,0,0,1-.94-1.79,1.79,1.79,0,0,1,.85-1.64l.26-.16-.17-.24a2.51,2.51,0,0,1-.48-2,2.16,2.16,0,0,1,1.3-1.59c0,.19,0,.39-.05.57,0,.78-.21,1.48-.27,2.29a3.37,3.37,0,0,0,.76,2.3,2,2,0,0,0,1.11.69,1,1,0,0,0,.76-.15,2.3,2.3,0,0,0,.46-.48,10.59,10.59,0,0,0,1-2.11c.26-.73.58-1.39.82-2.16A6.34,6.34,0,0,0,305.59,207.74Z" style="fill:#f28f8f"></path><g id="freepik--chest--inject-8"><path d="M228.8,179.38c0-11.27,2.91-12.7,6-15.65a91.52,91.52,0,0,1,9.18-7.45s11.95.37,13.47.46a104.53,104.53,0,0,1,13.15,1.42c3.25.59,5.05.45,7.56,3.15s7,8.07,6.42,20.63c-.82,17.63-1.65,27-.16,40-4.64,10.43-36.48,18.49-59.53,1.26,0,0,2.93-17.12,3.14-22.92C228.39,191,228.81,188.39,228.8,179.38Z" style="fill:#BA68C8"></path></g><path d="M278.17,161.31c-2.51-2.7-4.31-2.56-7.56-3.15a104.53,104.53,0,0,0-13.15-1.42c-1.52-.09-13.47-.46-13.47-.46a91.52,91.52,0,0,0-9.18,7.45c-3.1,3-6,4.38-6,15.65,0,2.34,0,4.25-.07,6,6.86-1.35,11.47-5.29,15.2-8.5,5.39-4.63,9.57-14.2,9.57-14.2,3.15,3.57,11.64,6.06,15.65,4.48,3.43-1.35,3.63-3.71,3.63-3.71s6.47,3.43,9,7.36c2.23,3.45,2.75,8.66,2.84,9.9C284.85,169,280.6,163.91,278.17,161.31Z" style="fill:#455a64"></path><path d="M243,157c-7.22,0-12.08-.27-22.86,14.44s-14.34,22.15-15.41,25.83,1.28,7.57,5.71,10.79a158.07,158.07,0,0,0,18.13,11.1c7.38,3.88,13.47,5.3,16.7,4.05a8.27,8.27,0,0,0,1.57-1.08,2.75,2.75,0,0,0,1-1.05c.17-.39.15-.85.33-1.24a3.37,3.37,0,0,1,1.06-1,2.85,2.85,0,0,0,1.12-1.69,8.44,8.44,0,0,1,.16-1.75c.23-.6.85-.94,1.24-1.45a2.6,2.6,0,0,0,.34-2.07c-.41-2.15-1.59-2.79-4.29-2.7-.21-1.29-.34-3-3-2.69-3.4.44-6.58,2.35-10.25.05a112.9,112.9,0,0,1-11-8.61L239.78,176S245.73,165.41,243,157Z" style="fill:#ffa8a7"></path><path d="M247.84,209.13a3.49,3.49,0,0,0-1.54.16c-.85.29-1.77,1.35-3.32,1.33a6.09,6.09,0,0,0,3.33-.22,2.32,2.32,0,0,1,2.16.13,2.25,2.25,0,0,0-1.88-.69A2.63,2.63,0,0,1,247.84,209.13Z" style="fill:#f28f8f"></path><path d="M244,156.28c-6,0-11.14-.42-17.26,6.13-5,5.33-11,14.43-11,14.43s6,10.21,15.56,11.3a145.62,145.62,0,0,0,9-12.11C243.45,171.08,245.94,160.65,244,156.28Z" style="fill:#455a64"></path><g id="freepik--head--inject-8"><path d="M285.91,116.57c4.11,8.89.76,14.15-2.42,16.14L252.8,151c-1.51-4.79-5.38-7-9.14-18.6-1.76-5.46.28-14.53,6-14.63C250.94,104,279,101.58,285.91,116.57Z" style="fill:#37474f"></path><path d="M248.48,143.1a7.57,7.57,0,0,1-3.18-4c-.88-2.25-.54-5.43.34-6.65a4.44,4.44,0,0,1,4.73-1.71,3.72,3.72,0,0,1,2.56,2.58c.35.8.86,2.8,1.95,2.56s1.38-2.08,1.4-3a5.59,5.59,0,0,1,0-1.47c.21-.66,1-1.11,1.41-1.61a7.55,7.55,0,0,0,1.56-3.95c.21-1.42.22-2.86.5-4.27a1.67,1.67,0,0,1,.33-.84,1.87,1.87,0,0,1,1.49-.39c6.07.2,12.26.73,18.16-.72a2.88,2.88,0,0,1,1.42-.13c1.63.42,2.36,2.75,2.9,4.14a15.21,15.21,0,0,1,1.05,8.15,8.55,8.55,0,0,0-.37,2.5,19,19,0,0,1,.76,5.51c.07,3.17-.3,6.8-3.4,10.3a15.35,15.35,0,0,1-11.36,4.63l-.67,5.81c5.46,7.21-13.58,7.08-18.6-2.79l2-15.2A5.28,5.28,0,0,1,248.48,143.1Z" style="fill:#ffa8a7"></path><path d="M270.7,154.69a24.23,24.23,0,0,1-11.39-3.23,11.24,11.24,0,0,1-4.45-6.36,7.4,7.4,0,0,0,2.49,7.44c4.6,3.92,13.07,4.62,13.07,4.62Z" style="fill:#f28f8f"></path><path d="M278.53,129l3.69,1.24a2,2,0,0,0-1.23-2.54A2,2,0,0,0,278.53,129Z" style="fill:#263238"></path><path d="M262.53,130.41l3.33-2a1.93,1.93,0,0,0-2.68-.71A2,2,0,0,0,262.53,130.41Z" style="fill:#263238"></path><path d="M267.56,133.9a1.71,1.71,0,0,1-3.41,0,1.71,1.71,0,1,1,3.41,0Z" style="fill:#263238"></path><path d="M281.12,133.54a1.71,1.71,0,1,1-1.7-1.7A1.7,1.7,0,0,1,281.12,133.54Z" style="fill:#263238"></path><path d="M266.12,142.81c1.18-1.15,2.16.33,4.66.81s4-.83,4.41.8c.37,1.36-1.27,4.21-5.42,3.71C266.23,147.69,265.08,143.83,266.12,142.81Z" style="fill:#b16668"></path><path d="M270.78,143.62a33.62,33.62,0,0,1-3.42-1.2l-.09,1.16A5.32,5.32,0,0,0,270,144.8a7.28,7.28,0,0,0,4-.15l.35-1.08A17.23,17.23,0,0,1,270.78,143.62Z" style="fill:#fafafa"></path><path d="M269.77,148.13A6.67,6.67,0,0,0,272,148a4.84,4.84,0,0,0-4.81-3,4.67,4.67,0,0,0-1.19.26A4.57,4.57,0,0,0,269.77,148.13Z" style="fill:#f28f8f"></path><path d="M286.19,137.11a2.59,2.59,0,0,1-3,2.09,2.62,2.62,0,0,1-2-3.1,2.58,2.58,0,0,1,3-2.09A2.63,2.63,0,0,1,286.19,137.11Z" style="fill:#f28f8f"></path><path d="M258.15,137.31A2.55,2.55,0,0,0,261,139.6a2.65,2.65,0,0,0,2.24-2.95,2.56,2.56,0,0,0-2.84-2.29A2.65,2.65,0,0,0,258.15,137.31Z" style="fill:#f28f8f"></path><polygon points="272.34 130.89 272.96 140.32 278.14 138.2 272.34 130.89" style="fill:#f28f8f"></polygon></g></g><g id="freepik--Lines--inject-8"><path d="M204.25,207.8c-1.48-1.53-3-2.89-3.82-4.9a10.4,10.4,0,0,1-.8-3.25c-.09-1.18.17-2.36.05-3.54,0-.18-.35-.45-.49-.23a6.28,6.28,0,0,0-.63,3.87,10.63,10.63,0,0,0,.94,3.68,8.87,8.87,0,0,0,4.68,4.8C204.45,208.33,204.34,207.89,204.25,207.8Zm-8.43-2.23a21.63,21.63,0,0,1-1.06-4.19c0-.12-.25-.36-.34-.15-.67,1.45-.11,3.33.53,4.71a6.94,6.94,0,0,0,3.16,3.49c.19.08.18-.23.11-.31A15.51,15.51,0,0,1,195.82,205.57Z" style="fill:#37474f"></path><path d="M309.47,201.63a16.15,16.15,0,0,1,4,4.73,10,10,0,0,1,.94,3.21c.14,1.18-.06,2.37.11,3.54,0,.18.36.44.49.21a6.25,6.25,0,0,0,.47-3.89,10.75,10.75,0,0,0-1.1-3.64,8.87,8.87,0,0,0-4.88-4.6C309.25,201.11,309.38,201.54,309.47,201.63Zm8.52,1.86a23.18,23.18,0,0,1,1.24,4.14c0,.12.26.35.34.15.61-1.48,0-3.34-.73-4.69a6.87,6.87,0,0,0-3.31-3.35c-.18-.07-.16.23-.09.31A15.59,15.59,0,0,1,318,203.49Z" style="fill:#37474f"></path><path d="M268.48,299c.4,2.09.91,4,.52,6.18a10.34,10.34,0,0,1-1.11,3.16c-.57,1-1.43,1.89-2,2.94-.09.16,0,.57.27.46a6.3,6.3,0,0,0,2.65-2.89,10.75,10.75,0,0,0,1.23-3.6,8.93,8.93,0,0,0-1.29-6.58C268.6,298.44,268.46,298.87,268.48,299Zm5.84,6.47a21.94,21.94,0,0,1-1.4,4.09c-.05.12,0,.44.2.32,1.35-.85,1.91-2.73,2.13-4.24a7,7,0,0,0-.74-4.65c-.11-.17-.27.09-.26.2A15.74,15.74,0,0,1,274.32,305.47Z" style="fill:#37474f"></path></g></g></g><g id="freepik--character-1--inject-8"><g id="freepik--character--inject-8"><g id="freepik--bottom--inject-8"><path d="M141.78,394.68a7.66,7.66,0,0,1,.1,4.07c-.39.81-2.83,3.5-7.8,4.48s-12.06-.45-15-.6-11.49,1.05-14.43,1.44c-4.61.63-8.44-.78-10.16-2.46a4.17,4.17,0,0,1-.81-2.88c.08-2,.43-2.11.43-2.11Z" style="fill:#263238"></path><path d="M94.43,391.77c-.11,1-.49,2.15-.63,4.13A4.43,4.43,0,0,0,95,399.75c3.14,3.26,10.57,2.77,14.62,2a44.55,44.55,0,0,1,9.35-.94c3,.2,7.7,1.07,10.73.79a24.68,24.68,0,0,0,7.53-1.53c2-.87,4.09-2,4.58-4.06.6-4.39-1.24-6.32-3.33-7.54s-5.27-1.73-8.43-1.94c-2.86-.19-4.94-.2-7.48-.39a27.88,27.88,0,0,1-5.67-1.17c-1.91-.6-3.2-2.59-4-2.68,0,0-15.43.49-16.65.59-1.52.13-1.55,3.59-1.57,4.61C94.61,388.92,94.59,390.35,94.43,391.77Z" style="fill:#455a64"></path><path d="M91.05,341.19c-.41,13.5,5.64,44.26,5.64,44.26a14.36,14.36,0,0,0,8.62,2.6c5.15-.14,7.31-3.09,7.31-3.09s2.23-31,2.7-44.56Z" style="fill:#b16668"></path><path d="M134.08,401c.39-3.16.67-10.6-5.14-14.56l-.74,0a21,21,0,0,1,8.29.59c4.65,1.24,6.71,5,5.55,9C142,396,141,399.85,134.08,401Z" style="fill:#fafafa"></path><path d="M86.18,363.88a.36.36,0,0,1,.59.23,13.26,13.26,0,0,1-.92,6.39c-1.66,3.66-4.79,5.2-6.66,6.57s-3.52,2.27-5.08,4.71c-1.22,1.93-2.08,5.05-6.19,7.27-1.91,1-7,1.07-9.2,0a6.22,6.22,0,0,1-3.9-6.49c.32-3.1,11.93-3.1,13.09-3.17a.37.37,0,0,0,.2-.09Z" style="fill:#263238"></path><path d="M57.11,370.21c-1,.27-1.13,1.81-1.47,5.12-.27,2.5-1.75,6.22-.29,8.7,2.28,4.59,11,4.51,13.51,2.64,4.65-3.48,4.64-6.88,8.48-10.26,3.34-2.93,6.68-3.79,8.45-10,1.15-4,.54-5.67-2.31-7-3.91-1.83-10.53,3-13.73,3.58C67,363.58,58.08,369.94,57.11,370.21Z" style="fill:#455a64"></path><path d="M83.67,371c0-.06.1-7.46-10.65-9.15l-.64.29A9.2,9.2,0,0,1,78,358.62c3.66-.68,6.46.36,8.21,2.73S85.63,369.64,83.67,371Z" style="fill:#fafafa"></path><path d="M57,330.88c-1.27,11.56.23,41.39.23,41.39,2.12,4,13.45,4.09,14.44.3.42-1.61,8.53-36.24,8.6-37.44C81.26,317.46,58.24,319.31,57,330.88Z" style="fill:#b16668"></path><path d="M90.64,346.53c-.29-6.66,0-10.57-.48-17.32-.73-10.44-3.62-36.27-3.62-36.27-1.64,12.76-2.1,29.4-6.49,47,0,0-16.92,2.21-23.68-3.59a148,148,0,0,1,1.37-18.81s1-9.09,1-21.18c0-9.2.08-15,0-24.83a165.9,165.9,0,0,1,1.58-24.17c15.12-1,55.66,11.71,55.66,11.71s1.27,41.76,1,67.93c-.07,7.4-.53,13.57-1,19.45C116,346.48,108.49,352.27,90.64,346.53Z" style="fill:#BA68C8"></path><path d="M90.64,346.53c-.29-6.66,0-10.57-.48-17.32-.73-10.44-3.62-36.27-3.62-36.27-1.64,12.76-2.1,29.4-6.49,47,0,0-16.92,2.21-23.68-3.59a148,148,0,0,1,1.37-18.81s1-9.09,1-21.18c0-9.2.08-15,0-24.83a165.9,165.9,0,0,1,1.58-24.17c15.12-1,55.66,11.71,55.66,11.71s1.27,41.76,1,67.93c-.07,7.4-.53,13.57-1,19.45C116,346.48,108.49,352.27,90.64,346.53Z" style="opacity:0.2"></path><path d="M69.87,273.77a20.66,20.66,0,0,0,15,6.63l1.68,12.54c-1.14,8.87-1.71,19.63-3.43,31.28l1-29.88-2.77-11.18C70.35,279.1,69.87,273.77,69.87,273.77Z" style="opacity:0.2"></path></g><g id="freepik--top--inject-8"><path d="M106,157.33s5,6.16,4.53,6.86-3.57,1.57-3.57,1.57Z" style="fill:#9a4a4d"></path><path d="M92.61,143.33c8.57-.72,12.32,2.94,14.28,15.12,2,12.71.24,17.75-1.39,19.76-2.47,3-8.56,3.19-12.26,2.67-4.62-.66-15.48-1.42-21.29-9.57-5.49-7.7-7.77-17.38-2.13-22.18C77.77,142.37,89,143.64,92.61,143.33Z" style="fill:#b16668"></path><polygon points="96.41 178.61 92.64 196.69 74.11 192.8 77.36 179.9 96.41 178.61" style="fill:#b16668"></polygon><path d="M100.66,149.18c.37,0,1.18,2.12-.32,3.71a3.63,3.63,0,0,1-3.87.58,8.84,8.84,0,0,1,1.22,5.19c-.33,1.32-1.19,2-2.68,2.78,0,0-1.76-4.6-6.09-3.56s-4.5,6.22-1.44,9.05S93,168.31,93,168.31,91.6,176,88.65,180.13a28.06,28.06,0,0,1-11.29-.23,97.29,97.29,0,0,1-8.74-10.43c-6.63-9.8-7.57-19.85-2.68-22.46-1.11-4.16.13-7.74,4-10.53a11.06,11.06,0,0,1,10.41-1.21c.23.1,1.07-2,1.16-2.14a7.16,7.16,0,0,1,2.6-2.4,12.3,12.3,0,0,1,10.53-.26,6.43,6.43,0,0,1,3.46,4.06c-.1-.42,3.14-.68,3.42-.72a5.16,5.16,0,0,1,2.57.32,8,8,0,0,1,4.25,3.7,8.32,8.32,0,0,1,.83,5.19,7.61,7.61,0,0,1-.87,2.6C107.79,146.42,105.41,149.19,100.66,149.18Z" style="fill:#263238"></path><g id="freepik--arm--inject-8"><path d="M43.63,150.34c2-10.68,2.54-12.51,3.28-15.84a54.67,54.67,0,0,0,1.31-7.24,39.62,39.62,0,0,1,1-8.36c.34-1.09.66-2.19,1-3.29.12-.3.21-.62.3-.92a29.11,29.11,0,0,1,2.21-5.57,7.42,7.42,0,0,1,1.74-2.19,3.47,3.47,0,0,1,2.5-.68.25.25,0,0,0,.15,0,.33.33,0,0,0,.12-.16A3.8,3.8,0,0,1,58.78,104a3.44,3.44,0,0,1,1.48-.3c1.15,0,1.09-1.59,2.1-1.94a1.59,1.59,0,0,1,1.11.11,2.46,2.46,0,0,1,1.61,2.61c2.93,1.18,1,5,.17,6.85-.78,1.72-1.5,3.46-2.15,5.24-.21.58-1,2.63.41,1.92a2.65,2.65,0,0,0,.8-.69c.79-.93,1.23-2.14,2.14-3a3.15,3.15,0,0,1,2.8-.92c2,.36.33,2.35.08,3.45C68.52,120,67,124.1,65,126.1c-.69.67-1.33,1.23-1.88,1.72-1.61,1.42-2.2,2.62-2.79,7.77-.51,4.56-.77,21.1-.77,21.1a139,139,0,0,0,5.64,15.74,42,42,0,0,0,7.24,12c4.14,13.65-15.17,32.49-16.06,25-.8-6.69-3.16-13-5.35-19.61-4-11.93-5.73-16.93-6.69-20.67C42.26,161,41.8,160.1,43.63,150.34Z" style="fill:#b16668"></path><path d="M75.15,184.55c-.82-.22-2.8-1.43-5.23-4.86a50.28,50.28,0,0,1-4-7.34c-.89-1.86-4.79-11.6-4.79-11.6s-2-1.43-9.58,1.43a20.56,20.56,0,0,0-8.08,5.63s4.14,13.56,6.91,21.77a182.17,182.17,0,0,1,6.22,23.86c2.51.45,8.37-3.76,10.3-6.36C74.56,196.69,76.5,186.72,75.15,184.55Z" style="fill:#BA68C8"></path></g><path d="M66.55,185.17c-6.7,2.1-11.57,10.85-9.77,31.51,1.59,18.32,3.38,23.15,2.38,39.21,2.94,8.81,24.12,14.42,33.21,14.85,14,.66,22.24-2.79,24.14-5.45,0-33.73-1-56.17-3.69-62.05-1.8-2.93-8-8.89-8-8.89s-8.16-3.87-13.45-5.66C81.22,185.27,73,183.16,66.55,185.17Z" style="fill:#37474f"></path><path id="freepik--arm--inject-8" d="M123.41,232.69s-.59-3.36-2.63-14.34-2.36-18.57-16-23.33c-2.89,3.14-4.21,9.42-3.44,16.08s5.11,21.6,5.8,24.79a16.87,16.87,0,0,0,2.41,6.08,125.23,125.23,0,0,0,7.29,11.74c2.23,3.25,5.12,7,7.38,10.22a88.77,88.77,0,0,0,6.1,8,26.28,26.28,0,0,0,3.87,3.9,9.79,9.79,0,0,0,4.68,2.16c.28.05.55.08.82.15a5.63,5.63,0,0,1,1,.4,4.92,4.92,0,0,0,2.34.66,12.69,12.69,0,0,1,2-.25,6.7,6.7,0,0,1,1.47.55,3.9,3.9,0,0,0,1.39.27,1.77,1.77,0,0,0,1.73-.88,2.27,2.27,0,0,0-.41-1.87,2.23,2.23,0,0,0,.4-1.71,4.18,4.18,0,0,0-.63-1.51,10.93,10.93,0,0,0-2.42-2.38q-2.16-1.72-4.2-3.58c-.53-.48-3.36-2.55-2.65-3.47.38-.49,2.69.88,3.12,1,1.5.55,4,1,5.38,0,1.07-.74.71-1.69-.33-2.14a37.72,37.72,0,0,1-4.95-2.61c-1.62-1-3.12-2.17-4.76-3.13a23.23,23.23,0,0,0-2.71-1.29c-2.57-1.07-4.31-4.77-5.3-7.19C128.35,244.67,124.5,236.6,123.41,232.69Z" style="fill:#b16668"></path><path d="M104.8,194.35c4.44,2.08,11.29,4.34,13.58,11.83s4.79,23.14,4.79,23.14-1.2,3.38-7.26,4.73a29,29,0,0,1-10.08.68s-4.41-16.61-5.12-20.58C99.13,205.3,100.68,197.74,104.8,194.35Z" style="fill:#BA68C8"></path></g><path d="M45.68,110.44a16.13,16.13,0,0,1,1.92-5.9,10.23,10.23,0,0,1,2.24-2.49c.93-.73,2.06-1.18,3-1.94.14-.12.19-.54-.08-.53a6.24,6.24,0,0,0-3.56,1.64,10.68,10.68,0,0,0-2.52,2.84,8.87,8.87,0,0,0-1.36,6.57C45.35,110.9,45.65,110.56,45.68,110.44Zm-2.88-8.23A22.63,22.63,0,0,1,45.68,99c.08-.09.16-.4-.06-.37-1.58.26-2.82,1.78-3.61,3.08a6.84,6.84,0,0,0-1.11,4.58c0,.19.28,0,.31-.09A15.56,15.56,0,0,1,42.8,102.21Z" style="fill:#37474f"></path><path d="M119.41,195.51c1.53,1.48,3.06,2.79,4,4.77a10.3,10.3,0,0,1,.9,3.22c.13,1.18-.08,2.37.07,3.54,0,.18.36.44.5.22a6.4,6.4,0,0,0,.51-3.89,10.82,10.82,0,0,0-1.07-3.65,8.87,8.87,0,0,0-4.83-4.65C119.18,195,119.31,195.42,119.41,195.51Zm8.5,2a23.13,23.13,0,0,1,1.19,4.15c0,.12.26.35.35.15.62-1.47,0-3.33-.69-4.69a6.89,6.89,0,0,0-3.28-3.39c-.18-.07-.16.23-.09.31A16,16,0,0,1,127.91,197.46Z" style="fill:#37474f"></path></g></g></svg>
