<svg width="318" height="159" viewBox="0 0 318 159" fill="none" xmlns="http://www.w3.org/2000/svg">
<path fill-rule="evenodd" clip-rule="evenodd" d="M1.39002e-05 -2.78004e-05C6.22334e-06 87.8132 71.1867 159 159 159C246.813 159 318 87.8132 318 0L1.39002e-05 -2.78004e-05Z" fill="white"/>
<path d="M80.5315 59.2285V67.4335H97.5053C96.9416 70.1894 95.1252 72.2563 92.1188 73.6343C89.1123 75.0122 85.4796 75.7012 81.3458 75.7012C76.3351 75.7012 72.2639 74.699 69.0696 72.6321C65.8753 70.6279 64.3094 67.3709 64.3094 62.9239C64.3094 58.7901 65.8753 55.5331 69.0696 53.2157C72.2013 50.8983 76.3351 49.7082 81.4084 49.7082C89.5508 49.7082 94.5615 51.5872 96.4405 55.2826H108.654C108.028 52.0257 106.399 49.2698 103.769 46.8897C101.075 44.5096 97.7558 42.8185 93.8725 41.6911C89.9892 40.5637 85.6675 40 81.0326 40C72.5771 40 65.6874 42.0669 60.3009 46.2007C54.9144 50.3346 52.2838 55.9089 52.2838 62.8613C52.2838 66.5567 53.0354 69.8136 54.5386 72.6948C56.0418 75.5759 58.1713 77.8934 60.8646 79.6471C63.4952 81.4635 66.5642 82.8414 70.0717 83.7183C73.5792 84.6578 77.3372 85.0962 81.471 85.0962C89.676 85.0962 96.4405 83.2172 101.827 79.3339C107.213 75.5133 109.907 70.2521 109.907 63.4876V59.2285H80.5315Z" fill="#FF9D0A"/>
<path fill-rule="evenodd" clip-rule="evenodd" d="M142.249 85.0962C150.893 85.0962 157.782 83.092 162.918 79.0208C167.992 75.0122 170.56 69.5005 170.56 62.5481C170.56 55.6584 167.992 50.1467 162.918 46.0755C157.782 42.0669 150.893 40 142.249 40C133.543 40 126.653 42.0669 121.58 46.0755C116.444 50.1467 113.939 55.6584 113.939 62.5481C113.939 69.5005 116.444 75.0122 121.58 79.0208C126.653 83.092 133.543 85.0962 142.249 85.0962ZM142.249 75.8265C137.238 75.8265 133.293 74.6364 130.349 72.1937C127.342 69.751 125.902 66.5567 125.902 62.5481C125.902 58.6022 127.342 55.4079 130.349 52.9652C133.293 50.5225 137.238 49.2698 142.249 49.2698C147.26 49.2698 151.206 50.5225 154.15 52.9652C157.093 55.4079 158.597 58.6022 158.597 62.5481C158.597 66.5567 157.093 69.751 154.15 72.1937C151.206 74.6364 147.26 75.8265 142.249 75.8265Z" fill="#FF9D0A"/>
<path fill-rule="evenodd" clip-rule="evenodd" d="M196.658 85.0962C203.234 85.0962 208.558 83.6557 212.692 80.7745C216.826 77.8934 218.893 73.9474 218.893 68.8115C218.893 63.7382 216.826 59.7296 212.692 56.8485C208.558 53.9673 203.234 52.5267 196.658 52.5267C190.019 52.5267 184.632 53.9673 180.561 56.8485C176.427 59.7296 174.423 63.7382 174.423 68.8115C174.423 73.9474 176.427 77.8934 180.561 80.7745C184.632 83.6557 190.019 85.0962 196.658 85.0962ZM196.658 77.2044C193.526 77.2044 190.958 76.4528 189.016 74.8869C187.075 73.3211 186.135 71.3168 186.135 68.8115C186.135 66.3688 187.075 64.3645 189.016 62.7987C190.958 61.2328 193.526 60.4186 196.658 60.4186C199.789 60.4186 202.295 61.2328 204.236 62.7987C206.178 64.3645 207.18 66.3688 207.18 68.8115C207.18 71.3168 206.178 73.3211 204.236 74.8869C202.295 76.4528 199.789 77.2044 196.658 77.2044Z" fill="#FF9D0A"/>
<path d="M265.716 67.7467C265.716 57.6001 259.844 52.6637 248.194 52.6637H223.251V84.4699H234.775V71.0037C234.775 67.6214 235.715 65.0535 237.719 63.2371C239.661 61.4833 242.229 60.5438 245.423 60.5438C248.429 60.5438 250.684 61.4207 252.125 63.0492C253.503 64.7403 254.254 67.2456 254.254 70.5652V84.4699H265.716V67.7467Z" fill="#FF9D0A"/>
<path d="M132.635 95.4891C130.62 93.7357 127.59 93.9732 125.863 96.0214C124.134 98.0721 124.366 101.161 126.38 102.921L129.511 99.2084C126.38 102.921 126.381 102.923 126.383 102.924L126.386 102.926L126.392 102.932L126.411 102.948C126.425 102.96 126.442 102.975 126.464 102.994C126.484 103.011 126.507 103.03 126.532 103.052C126.564 103.079 126.599 103.109 126.64 103.142C126.787 103.266 126.994 103.436 127.259 103.648C127.789 104.071 128.55 104.657 129.521 105.352C131.462 106.741 134.259 108.575 137.745 110.407C144.683 114.052 154.57 117.803 165.981 117.803C177.405 117.803 187.098 114.045 193.855 110.377C197.248 108.535 199.949 106.69 201.817 105.292C202.753 104.592 203.484 104 203.993 103.573C204.248 103.359 204.448 103.186 204.59 103.061C204.661 102.998 204.718 102.947 204.76 102.909C204.781 102.89 204.799 102.874 204.813 102.861L204.831 102.845L204.838 102.839L204.84 102.836C204.842 102.835 204.843 102.833 201.614 99.2084L204.843 102.833C206.81 101.018 206.959 97.9237 205.175 95.9217C203.395 93.9223 200.361 93.7685 198.394 95.5759L198.393 95.5768L198.39 95.5795L198.388 95.5812L198.386 95.5833L198.382 95.5864C198.367 95.6 198.338 95.6261 198.295 95.6637C198.21 95.7389 198.07 95.8603 197.879 96.0211C197.495 96.3431 196.904 96.8222 196.123 97.4066C194.558 98.5774 192.249 100.158 189.331 101.741C183.469 104.924 175.346 108.016 165.981 108.016C156.603 108.016 148.256 104.916 142.155 101.711C139.123 100.118 136.7 98.5267 135.05 97.3461C134.227 96.7569 133.6 96.2729 133.191 95.9464C132.987 95.7832 132.837 95.6596 132.744 95.5821C132.72 95.562 132.7 95.545 132.684 95.5312C132.669 95.5186 132.657 95.5086 132.649 95.5015L132.635 95.4891Z" fill="#FF9D0A"/>
</svg>
