<svg width="645" height="235" viewBox="0 0 645 235" fill="none" xmlns="http://www.w3.org/2000/svg">
<path d="M85.3213 58.079V82.8619H136.59C134.887 91.1859 129.401 97.4289 120.32 101.591C111.239 105.753 100.267 107.834 87.7806 107.834C72.646 107.834 60.3492 104.807 50.7009 98.564C41.0526 92.5102 36.323 82.6727 36.323 69.2408C36.323 56.7547 41.0526 46.9172 50.7009 39.9175C60.16 32.9177 72.646 29.3233 87.9698 29.3233C112.564 29.3233 127.698 34.9987 133.374 46.1605H170.264C168.372 36.323 163.454 27.999 155.508 20.8101C147.373 13.6211 137.346 8.51321 125.617 5.10793C113.888 1.70264 100.834 0 86.8347 0C61.2951 0 40.485 6.24302 24.2153 18.7291C7.94566 31.2151 0 48.0523 0 69.0516C0 80.2133 2.27019 90.0508 6.81057 98.7532C11.3509 107.456 17.7831 114.455 25.918 119.752C33.8636 125.239 43.1336 129.401 53.7278 132.049C64.322 134.887 75.673 136.211 88.159 136.211C112.942 136.211 133.374 130.536 149.643 118.807C165.913 107.266 174.048 91.3751 174.048 70.9434V58.079H85.3213Z" fill="#FF9D0A"/>
<path fill-rule="evenodd" clip-rule="evenodd" d="M271.737 136.211C297.844 136.211 318.654 130.157 334.167 117.861C349.491 105.753 357.247 89.1049 357.247 68.1057C357.247 47.2956 349.491 30.6475 334.167 18.3507C318.654 6.24302 297.844 0 271.737 0C245.44 0 224.63 6.24302 209.307 18.3507C193.794 30.6475 186.226 47.2956 186.226 68.1057C186.226 89.1049 193.794 105.753 209.307 117.861C224.63 130.157 245.44 136.211 271.737 136.211ZM271.737 108.212C256.602 108.212 244.684 104.618 235.792 97.2398C226.711 89.8616 222.36 80.2133 222.36 68.1057C222.36 56.1872 226.711 46.5389 235.792 39.1608C244.684 31.7826 256.602 27.999 271.737 27.999C286.871 27.999 298.79 31.7826 307.682 39.1608C316.573 46.5389 321.113 56.1872 321.113 68.1057C321.113 80.2133 316.573 89.8616 307.682 97.2398C298.79 104.618 286.871 108.212 271.737 108.212Z" fill="#FF9D0A"/>
<path fill-rule="evenodd" clip-rule="evenodd" d="M436.076 136.211C455.94 136.211 472.02 131.86 484.506 123.158C496.993 114.455 503.236 102.537 503.236 87.0239C503.236 71.7001 496.993 59.5925 484.506 50.8901C472.02 42.1877 455.94 37.8365 436.076 37.8365C416.022 37.8365 399.753 42.1877 387.456 50.8901C374.97 59.5925 368.916 71.7001 368.916 87.0239C368.916 102.537 374.97 114.455 387.456 123.158C399.753 131.86 416.022 136.211 436.076 136.211ZM436.076 112.374C426.617 112.374 418.86 110.104 412.995 105.375C407.131 100.645 404.293 94.5912 404.293 87.0239C404.293 79.6458 407.131 73.5919 412.995 68.8624C418.86 64.1328 426.617 61.6735 436.076 61.6735C445.535 61.6735 453.102 64.1328 458.967 68.8624C464.831 73.5919 467.858 79.6458 467.858 87.0239C467.858 94.5912 464.831 100.645 458.967 105.375C453.102 110.104 445.535 112.374 436.076 112.374Z" fill="#FF9D0A"/>
<path d="M644.664 83.8078C644.664 53.1603 626.927 38.2503 591.739 38.2503H516.398V134.319H551.208V93.6453C551.208 83.4294 554.046 75.673 560.1 70.1867C565.964 64.8896 573.721 62.0518 583.369 62.0518C592.45 62.0518 599.26 64.7004 603.612 69.6191C607.774 74.727 610.044 82.2943 610.044 92.321V134.319H644.664V83.8078Z" fill="#FF9D0A"/>
<path d="M242.696 167.603C236.611 162.307 227.461 163.024 222.244 169.211C217.022 175.405 217.721 184.736 223.805 190.052L233.261 178.837C223.805 190.052 223.809 190.055 223.813 190.059L223.822 190.066L223.842 190.084L223.897 190.132C223.939 190.168 223.993 190.215 224.059 190.271C224.118 190.321 224.187 190.38 224.265 190.446C224.36 190.526 224.468 190.617 224.589 190.719C225.034 191.091 225.661 191.607 226.461 192.246C228.06 193.523 230.359 195.294 233.293 197.394C239.153 201.587 247.602 207.128 258.133 212.662C279.087 223.672 308.95 235 343.417 235C377.922 235 407.201 223.65 427.611 212.57C437.859 207.007 446.016 201.434 451.659 197.211C454.485 195.097 456.694 193.311 458.232 192.02C459.002 191.374 459.605 190.852 460.034 190.473C460.249 190.283 460.421 190.13 460.549 190.014C460.613 189.957 460.665 189.909 460.707 189.871L460.762 189.821L460.783 189.802L460.791 189.793C460.795 189.79 460.799 189.786 451.047 178.837L460.799 189.786C466.74 184.303 467.189 174.956 461.803 168.909C456.425 162.87 447.26 162.406 441.319 167.865L441.316 167.868L441.307 167.876L441.302 167.881L441.295 167.887L441.284 167.897C441.238 167.938 441.151 168.017 441.022 168.13C440.764 168.357 440.342 168.724 439.763 169.21C438.604 170.182 436.819 171.629 434.46 173.394C429.735 176.931 422.758 181.704 413.947 186.487C396.24 196.099 371.704 205.44 343.417 205.44C315.093 205.44 289.879 196.077 271.452 186.395C262.294 181.583 254.976 176.778 249.993 173.212C247.506 171.432 245.614 169.97 244.378 168.984C243.76 168.491 243.308 168.118 243.028 167.884C242.956 167.823 242.895 167.772 242.846 167.73C242.8 167.692 242.765 167.662 242.74 167.64L242.696 167.603Z" fill="#FF9D0A"/>
</svg>
