<svg width="500" height="500" viewBox="0 0 500 500" fill="none" xmlns="http://www.w3.org/2000/svg">
<path d="M238.4 341.53H45.31C43.7964 341.527 42.3456 340.925 41.2753 339.855C40.2051 338.784 39.6026 337.334 39.6 335.82V64.39C39.6158 62.8851 40.224 61.4471 41.2928 60.3876C42.3617 59.3281 43.805 58.7325 45.31 58.73H238.4C239.913 58.7326 241.362 59.3354 242.431 60.4059C243.5 61.4765 244.1 62.9273 244.1 64.44V335.82C244.1 337.333 243.5 338.783 242.431 339.854C241.362 340.925 239.913 341.527 238.4 341.53ZM45.31 58.93C43.8627 58.9326 42.4755 59.5087 41.4521 60.5321C40.4287 61.5555 39.8526 62.9427 39.85 64.39V335.82C39.8526 337.267 40.4287 338.654 41.4521 339.678C42.4755 340.701 43.8627 341.277 45.31 341.28H238.4C239.846 341.277 241.233 340.701 242.254 339.677C243.276 338.654 243.85 337.266 243.85 335.82V64.39C243.85 62.9436 243.276 61.5564 242.254 60.5327C241.233 59.5091 239.846 58.9326 238.4 58.93H45.31Z" fill="#F5F5F5"/>
<path d="M454.7 341.53H261.6C260.087 341.527 258.637 340.925 257.569 339.854C256.5 338.783 255.9 337.333 255.9 335.82V64.39C255.913 62.886 256.519 61.448 257.586 60.3882C258.654 59.3285 260.096 58.7326 261.6 58.73H454.7C456.204 58.7326 457.646 59.3285 458.713 60.3882C459.781 61.448 460.387 62.886 460.4 64.39V335.82C460.4 337.333 459.8 338.783 458.731 339.854C457.662 340.925 456.213 341.527 454.7 341.53ZM261.6 58.93C260.154 58.9326 258.767 59.5091 257.746 60.5327C256.724 61.5564 256.15 62.9436 256.15 64.39V335.82C256.15 337.266 256.724 338.654 257.746 339.677C258.767 340.701 260.154 341.277 261.6 341.28H454.7C456.148 341.277 457.536 340.702 458.561 339.678C459.586 338.655 460.165 337.268 460.17 335.82V64.39C460.165 62.9418 459.586 61.5546 458.561 60.5315C457.536 59.5084 456.148 58.9326 454.7 58.93H261.6Z" fill="#F5F5F5"/>
<path d="M95 392.21H53.79V392.46H95V392.21Z" fill="#E6E6E6"/>
<path d="M179 390.21H137.67V390.46H179V390.21Z" fill="#E6E6E6"/>
<path d="M232.78 390.21H222.78V390.46H232.78V390.21Z" fill="#E6E6E6"/>
<path d="M132.83 398.75H86.58V399H132.83V398.75Z" fill="#E6E6E6"/>
<path d="M292.8 392.08H271.2V392.33H292.8V392.08Z" fill="#E6E6E6"/>
<path d="M329.63 392.08H301.7V392.33H329.63V392.08Z" fill="#E6E6E6"/>
<path d="M464.33 396.31H401.89V396.56H464.33V396.31Z" fill="#E6E6E6"/>
<path d="M47.77 103H144C156.33 103 159.3 85.74 147.66 81.69L147.21 81.54C160.09 70.81 131.83 48.18 101.14 79.54C103.53 69.09 76.25 72.87 67.9 87.12C64.93 77.77 38.92 94 47.77 103Z" fill="#E6E6E6"/>
<path d="M294.59 96.85H349C349 96.85 361.75 92.05 360.1 79.33C358.45 66.61 339.2 77.21 339.2 77.21C339.2 77.21 345 59.46 326.36 64.49C307.72 69.52 305.9 87.12 305.9 87.12C305.9 87.12 281.42 82.85 294.59 96.85Z" fill="#EBEBEB"/>
<path d="M437.42 313.14L405.42 313.02C404.802 313.019 404.191 313.139 403.62 313.375C403.049 313.611 402.53 313.957 402.094 314.394C401.657 314.83 401.311 315.349 401.075 315.92C400.839 316.491 400.719 317.102 400.72 317.72V329C400.72 330.249 400.224 331.447 399.34 332.33C398.457 333.214 397.259 333.71 396.01 333.71H349C347.753 333.71 346.556 333.215 345.673 332.334C344.79 331.453 344.293 330.257 344.29 329.01V287.56C344.287 286.943 344.163 286.332 343.925 285.763C343.686 285.194 343.338 284.677 342.899 284.242C342.461 283.808 341.941 283.464 341.37 283.23C340.799 282.996 340.187 282.877 339.57 282.88H329.57C328.952 282.88 328.34 282.758 327.769 282.521C327.198 282.284 326.68 281.937 326.243 281.5C325.806 281.062 325.46 280.543 325.225 279.972C324.989 279.4 324.869 278.788 324.87 278.17V255.55C324.867 254.303 324.37 253.107 323.487 252.226C322.604 251.345 321.407 250.85 320.16 250.85H303.8C302.553 250.85 301.356 251.345 300.473 252.226C299.59 253.107 299.093 254.303 299.09 255.55V262.21C299.091 262.828 298.971 263.44 298.735 264.012C298.499 264.583 298.153 265.102 297.717 265.54C297.28 265.977 296.762 266.324 296.191 266.561C295.62 266.798 295.008 266.92 294.39 266.92H292.85C292.233 266.92 291.623 266.798 291.053 266.562C290.483 266.326 289.966 265.979 289.53 265.543C289.094 265.106 288.749 264.588 288.514 264.018C288.279 263.448 288.159 262.837 288.16 262.22V237.6C288.16 236.981 288.038 236.367 287.8 235.795C287.563 235.223 287.215 234.703 286.777 234.266C286.338 233.828 285.818 233.482 285.245 233.246C284.673 233.01 284.059 232.889 283.44 232.89H267.22C265.971 232.893 264.773 233.389 263.889 234.272C263.005 235.154 262.505 236.351 262.5 237.6V262.26C262.501 262.877 262.381 263.488 262.146 264.058C261.911 264.628 261.565 265.146 261.13 265.583C260.694 266.019 260.177 266.366 259.607 266.602C259.037 266.838 258.427 266.96 257.81 266.96H252.75C251.503 266.96 250.308 266.465 249.427 265.583C248.545 264.702 248.05 263.507 248.05 262.26V212.56V187.66H247.05V203C246.96 202.87 246.87 202.74 246.77 202.62L209.41 181.17C208.63 180.31 208.18 181.17 208.18 180.02V149.32L205.61 147.48L159 114V100.7H158V113.29L157.81 113.15V262.27C157.81 262.889 157.688 263.503 157.45 264.075C157.213 264.647 156.865 265.167 156.427 265.604C155.988 266.041 155.468 266.388 154.895 266.624C154.323 266.86 153.709 266.981 153.09 266.98H147C146.382 266.981 145.771 266.861 145.2 266.625C144.629 266.389 144.11 266.043 143.674 265.606C143.237 265.17 142.891 264.651 142.655 264.08C142.419 263.509 142.299 262.898 142.3 262.28L140.83 206.61C140.814 206.075 140.685 205.55 140.45 205.07L131.33 186.07H130.65V164.51C130.651 164.01 130.554 163.515 130.364 163.053C130.173 162.591 129.894 162.17 129.541 161.817C129.188 161.463 128.768 161.182 128.306 160.99C127.845 160.799 127.35 160.7 126.85 160.7H125V145.46H124V160.7H123C121.99 160.7 121.02 161.101 120.306 161.816C119.591 162.53 119.19 163.5 119.19 164.51V165.51H114.92V164.51C114.921 164.01 114.824 163.515 114.634 163.053C114.443 162.591 114.164 162.17 113.811 161.817C113.458 161.463 113.038 161.182 112.576 160.99C112.115 160.799 111.62 160.7 111.12 160.7H109.5V145.46H108.5V160.7H107.32C106.31 160.7 105.34 161.101 104.626 161.816C103.911 162.53 103.51 163.5 103.51 164.51V186H102.83L93.71 205C93.4752 205.48 93.3457 206.005 93.33 206.54L91.83 262.15C91.8313 262.768 91.7107 263.38 91.4751 263.952C91.2395 264.523 90.8935 265.042 90.4569 265.48C90.0204 265.917 89.5018 266.264 88.9309 266.501C88.36 266.738 87.748 266.86 87.13 266.86H78.51C77.2652 266.863 76.0723 267.359 75.193 268.24C74.3138 269.121 73.82 270.315 73.82 271.56V278.04C73.82 278.658 73.6981 279.27 73.4613 279.841C73.2244 280.412 72.8773 280.93 72.4398 281.367C72.0023 281.804 71.483 282.149 70.9117 282.385C70.3403 282.621 69.728 282.741 69.11 282.74H63C61.8911 282.734 60.8159 283.121 59.9661 283.834C59.1163 284.546 58.5471 285.537 58.36 286.63L41.94 372.78C41.8848 373.074 41.8547 373.371 41.85 373.67C41.8579 374.919 42.3597 376.115 43.2459 376.995C44.1321 377.876 45.3307 378.37 46.58 378.37H437.37C438.36 378.37 437.42 313.14 437.42 313.14Z" fill="#F0F0F0"/>
<path d="M399.83 111.56C398.92 104.56 392.83 106.19 392.83 106.19C392.83 106.19 396.04 96.42 385.78 99.19C382.968 99.8999 380.418 101.399 378.43 103.51C376.424 105.699 375.322 108.568 375.348 111.538C375.374 114.507 376.526 117.356 378.57 119.51C381.57 122.59 385.84 126.88 393.8 122.51C396 121.4 400.73 118.56 399.83 111.56Z" fill="#F0F0F0"/>
<path d="M405.3 143.55C405.3 144.468 405.028 145.365 404.518 146.128C404.008 146.891 403.284 147.486 402.436 147.837C401.588 148.188 400.655 148.28 399.755 148.101C398.855 147.922 398.028 147.48 397.379 146.831C396.73 146.182 396.288 145.355 396.109 144.455C395.93 143.555 396.022 142.622 396.373 141.774C396.724 140.926 397.319 140.202 398.082 139.692C398.845 139.182 399.742 138.91 400.66 138.91C401.27 138.909 401.874 139.028 402.437 139.26C403.001 139.493 403.513 139.835 403.944 140.266C404.375 140.697 404.717 141.209 404.95 141.773C405.182 142.336 405.301 142.94 405.3 143.55Z" fill="#F5F5F5"/>
<path d="M418.56 164.19H392.26V213.02H418.56V164.19Z" fill="#EBEBEB"/>
<path d="M411.23 164.19H384.93V213.02H411.23V164.19Z" fill="#F5F5F5"/>
<path d="M420.73 153.55H381.49V164.19H420.73V153.55Z" fill="#F5F5F5"/>
<path d="M420.72 153.55H414.68V164.19H420.72V153.55Z" fill="#EBEBEB"/>
<path d="M442.24 246.08H263.86V378.48H442.24V246.08Z" fill="#E6E6E6"/>
<path d="M354.56 145.17L253.64 246.08H455.47L354.56 145.17Z" fill="#F5F5F5"/>
<path d="M455.47 246.08H253.64V257.72H455.47V246.08Z" fill="#E0E0E0"/>
<path d="M72.9999 171.44C72.7535 171.44 72.5095 171.489 72.282 171.583C72.0544 171.678 71.8479 171.817 71.6741 171.991C71.5003 172.166 71.3628 172.373 71.2694 172.601C71.176 172.829 71.1286 173.074 71.1299 173.32V398.86H74.8799V173.29C74.872 172.797 74.6705 172.326 74.3188 171.98C73.9671 171.634 73.4934 171.44 72.9999 171.44Z" fill="#E0E0E0"/>
<path d="M75.3399 227.5C88.8212 227.5 99.7499 216.571 99.7499 203.09C99.7499 189.609 88.8212 178.68 75.3399 178.68C61.8587 178.68 50.9299 189.609 50.9299 203.09C50.9299 216.571 61.8587 227.5 75.3399 227.5Z" fill="#E0E0E0"/>
<path d="M78.3499 227.5C91.8312 227.5 102.76 216.571 102.76 203.09C102.76 189.609 91.8312 178.68 78.3499 178.68C64.8687 178.68 53.9399 189.609 53.9399 203.09C53.9399 216.571 64.8687 227.5 78.3499 227.5Z" fill="#FAFAFA"/>
<path d="M93.84 198.7V198.63C93.7887 198.091 93.5415 197.59 93.1452 197.221C92.7489 196.853 92.2311 196.642 91.69 196.63H63.33C63.0735 196.628 62.8193 196.679 62.5837 196.781C62.3482 196.882 62.1365 197.032 61.9623 197.221C61.7881 197.409 61.6552 197.632 61.5721 197.874C61.4891 198.117 61.4577 198.374 61.48 198.63H61.86L62.42 205.09H62.05L62.48 210H67.87C67.87 210 67.8 209.42 67.77 209.1C67.7302 208.733 67.7689 208.362 67.8836 208.012C67.9982 207.661 68.1862 207.339 68.4349 207.066C68.6837 206.794 68.9876 206.578 69.3264 206.432C69.6652 206.286 70.0312 206.214 70.4 206.22C71.1833 206.235 71.9339 206.537 72.5105 207.067C73.087 207.598 73.4496 208.321 73.53 209.1C73.53 209.42 73.64 210 73.64 210H82.64C82.64 210 82.64 209.42 82.64 209.1C82.6002 208.733 82.6389 208.362 82.7536 208.012C82.8682 207.661 83.0562 207.339 83.3049 207.066C83.5537 206.794 83.8576 206.578 84.1964 206.432C84.5352 206.286 84.9012 206.214 85.27 206.22C86.0533 206.235 86.8039 206.537 87.3805 207.067C87.957 207.598 88.3196 208.321 88.4 209.1C88.4 209.42 88.46 210 88.46 210H94.93L94.25 202.13H93.4L93.1 198.64L93.84 198.7ZM66.17 209H63.45L62.55 198.68H65.26L66.17 209ZM70.32 202.18H66.82L66.51 198.68H70L70.32 202.18ZM75.97 202.18H72.45L72.15 198.68H75.66L75.97 202.18ZM81.6 202.18H78.1L77.79 198.68H81.3L81.6 202.18ZM87.25 202.18H83.74L83.44 198.68H86.94L87.25 202.18ZM92.46 209H89.75L88.85 198.68H91.56L92.46 209Z" fill="#E0E0E0"/>
<path d="M70.49 206.91C70.1982 206.905 69.9089 206.963 69.641 207.079C69.3732 207.195 69.133 207.366 68.9363 207.581C68.7397 207.797 68.5911 208.052 68.5003 208.329C68.4096 208.606 68.3788 208.9 68.41 209.19C68.4734 209.807 68.7607 210.38 69.2176 210.8C69.6745 211.22 70.2694 211.459 70.89 211.47C71.1847 211.481 71.4782 211.427 71.7505 211.314C72.0227 211.201 72.2674 211.03 72.4677 210.814C72.668 210.597 72.8192 210.34 72.9111 210.06C73.0029 209.78 73.0333 209.483 73 209.19C72.936 208.568 72.6444 207.991 72.1812 207.57C71.718 207.149 71.1158 206.914 70.49 206.91ZM70.79 210.34C70.4799 210.332 70.1836 210.21 69.957 209.998C69.7304 209.786 69.5892 209.499 69.56 209.19C69.5414 209.048 69.5534 208.904 69.5953 208.767C69.6372 208.631 69.7079 208.504 69.8026 208.397C69.8974 208.29 70.0141 208.205 70.1447 208.146C70.2754 208.088 70.417 208.059 70.56 208.06C70.8705 208.063 71.1691 208.18 71.3994 208.388C71.6297 208.596 71.7758 208.881 71.81 209.19C71.8321 209.335 71.822 209.483 71.7804 209.624C71.7389 209.764 71.6669 209.894 71.5695 210.004C71.4722 210.114 71.3519 210.201 71.2172 210.259C71.0825 210.317 70.9366 210.345 70.79 210.34Z" fill="#E0E0E0"/>
<path d="M85.26 206.91C84.9678 206.904 84.6776 206.96 84.409 207.075C84.1404 207.191 83.8995 207.362 83.7025 207.578C83.5055 207.794 83.357 208.049 83.2669 208.327C83.1768 208.605 83.1471 208.9 83.18 209.19C83.2413 209.808 83.528 210.382 83.9853 210.803C84.4427 211.223 85.0388 211.461 85.66 211.47C85.9546 211.485 86.2488 211.434 86.5215 211.322C86.7943 211.21 87.0388 211.038 87.2376 210.82C87.4364 210.603 87.5845 210.343 87.6714 210.061C87.7582 209.78 87.7816 209.482 87.74 209.19C87.6766 208.573 87.3893 208 86.9324 207.58C86.4754 207.16 85.8805 206.921 85.26 206.91ZM85.56 210.34C85.2488 210.332 84.9513 210.211 84.723 209.999C84.4948 209.787 84.3515 209.5 84.32 209.19C84.3014 209.048 84.3134 208.904 84.3553 208.767C84.3971 208.631 84.4678 208.504 84.5626 208.397C84.6574 208.29 84.7741 208.205 84.9047 208.146C85.0354 208.088 85.177 208.059 85.32 208.06C85.6294 208.063 85.9267 208.18 86.1554 208.389C86.3841 208.597 86.5281 208.882 86.56 209.19C86.5817 209.333 86.5721 209.48 86.5317 209.619C86.4912 209.758 86.421 209.887 86.3259 209.996C86.2308 210.106 86.113 210.193 85.9808 210.252C85.8485 210.312 85.7049 210.342 85.56 210.34Z" fill="#E0E0E0"/>
<path d="M104.16 289.7V307.22H184.28V289.7H104.16ZM112.31 304.57H106.43V292.52H112.31V304.57ZM126.31 298.39H120.44V292.52H126.31V298.39ZM140.31 298.39H134.44V292.52H140.31V298.39ZM154.31 298.39H148.3V292.52H154.18L154.31 298.39ZM168.31 298.39H162.43V292.52H168.31V298.39ZM182.31 304.57H176.44V292.52H182.31V304.57Z" fill="#E6E6E6"/>
<path d="M126.26 288.11H114.25V289.7H126.26V288.11Z" fill="#E6E6E6"/>
<path d="M174.22 288.11H162.21V289.7H174.22V288.11Z" fill="#E6E6E6"/>
<path d="M117.89 310.05C117.89 310.576 117.734 311.09 117.442 311.528C117.149 311.965 116.734 312.306 116.248 312.508C115.762 312.709 115.227 312.762 114.711 312.659C114.195 312.556 113.721 312.303 113.349 311.931C112.977 311.559 112.724 311.085 112.621 310.569C112.518 310.053 112.571 309.518 112.772 309.032C112.974 308.546 113.315 308.131 113.752 307.838C114.19 307.546 114.704 307.39 115.23 307.39C115.935 307.39 116.612 307.67 117.111 308.169C117.61 308.668 117.89 309.345 117.89 310.05Z" fill="#E6E6E6"/>
<path d="M128 310.05C128.002 310.578 127.847 311.096 127.555 311.536C127.263 311.976 126.846 312.32 126.359 312.524C125.871 312.727 125.334 312.782 124.815 312.68C124.297 312.578 123.82 312.325 123.446 311.952C123.071 311.579 122.816 311.103 122.712 310.585C122.608 310.066 122.661 309.529 122.862 309.041C123.064 308.552 123.406 308.134 123.846 307.841C124.285 307.547 124.802 307.39 125.33 307.39C126.036 307.39 126.714 307.67 127.214 308.168C127.715 308.667 127.997 309.344 128 310.05Z" fill="#E6E6E6"/>
<path d="M165.85 310.05C165.852 310.578 165.697 311.096 165.405 311.536C165.113 311.976 164.696 312.32 164.209 312.524C163.721 312.727 163.184 312.782 162.665 312.68C162.147 312.578 161.67 312.325 161.296 311.952C160.921 311.579 160.666 311.103 160.562 310.585C160.458 310.066 160.511 309.529 160.712 309.041C160.914 308.552 161.256 308.134 161.696 307.841C162.135 307.547 162.651 307.39 163.18 307.39C163.886 307.39 164.564 307.67 165.064 308.168C165.565 308.667 165.847 309.344 165.85 310.05Z" fill="#E6E6E6"/>
<path d="M175.92 310.05C175.922 310.579 175.767 311.096 175.474 311.537C175.182 311.978 174.765 312.321 174.276 312.525C173.788 312.728 173.25 312.782 172.732 312.679C172.213 312.576 171.736 312.322 171.362 311.948C170.988 311.574 170.733 311.097 170.631 310.578C170.528 310.06 170.582 309.522 170.785 309.034C170.988 308.545 171.332 308.128 171.773 307.836C172.213 307.543 172.731 307.388 173.26 307.39C173.965 307.39 174.642 307.67 175.141 308.169C175.64 308.668 175.92 309.345 175.92 310.05Z" fill="#E6E6E6"/>
<path d="M184.81 289.7V307.22H264.93V289.7H184.81ZM193 304.57H187.12V292.52H193V304.57ZM206.95 298.39H201V292.52H206.87L206.95 298.39ZM220.95 298.39H215V292.52H220.87L220.95 298.39ZM234.95 298.39H229V292.52H234.88L234.95 298.39ZM248.95 298.39H243.07V292.52H248.95V298.39ZM262.95 304.57H257.08V292.52H262.95V304.57Z" fill="#E6E6E6"/>
<path d="M206.91 288.11H194.9V289.7H206.91V288.11Z" fill="#E6E6E6"/>
<path d="M254.87 288.11H242.86V289.7H254.87V288.11Z" fill="#E6E6E6"/>
<path d="M198.54 310.05C198.54 310.576 198.384 311.09 198.092 311.528C197.799 311.965 197.384 312.306 196.898 312.508C196.412 312.709 195.877 312.762 195.361 312.659C194.845 312.556 194.371 312.303 193.999 311.931C193.627 311.559 193.374 311.085 193.271 310.569C193.168 310.053 193.221 309.518 193.422 309.032C193.624 308.546 193.965 308.131 194.402 307.838C194.84 307.546 195.354 307.39 195.88 307.39C196.585 307.39 197.262 307.67 197.761 308.169C198.26 308.668 198.54 309.345 198.54 310.05Z" fill="#E6E6E6"/>
<path d="M208.62 310.05C208.622 310.578 208.467 311.096 208.175 311.536C207.883 311.976 207.466 312.32 206.979 312.524C206.491 312.727 205.954 312.782 205.435 312.68C204.917 312.578 204.44 312.325 204.066 311.952C203.691 311.579 203.436 311.103 203.332 310.585C203.228 310.066 203.281 309.529 203.482 309.041C203.684 308.552 204.026 308.134 204.466 307.841C204.905 307.547 205.422 307.39 205.95 307.39C206.656 307.39 207.334 307.67 207.834 308.168C208.335 308.667 208.617 309.344 208.62 310.05Z" fill="#E6E6E6"/>
<path d="M246.5 310.05C246.502 310.578 246.347 311.096 246.055 311.536C245.763 311.976 245.346 312.32 244.859 312.524C244.371 312.727 243.834 312.782 243.315 312.68C242.797 312.578 242.32 312.325 241.946 311.952C241.571 311.579 241.316 311.103 241.212 310.585C241.108 310.066 241.161 309.529 241.362 309.041C241.564 308.552 241.906 308.134 242.346 307.841C242.785 307.547 243.302 307.39 243.83 307.39C244.536 307.39 245.214 307.67 245.714 308.168C246.215 308.667 246.497 309.344 246.5 310.05Z" fill="#E6E6E6"/>
<path d="M256.57 310.05C256.572 310.579 256.417 311.096 256.124 311.537C255.832 311.978 255.415 312.321 254.926 312.525C254.438 312.728 253.9 312.782 253.382 312.679C252.863 312.576 252.386 312.322 252.012 311.948C251.638 311.574 251.384 311.097 251.281 310.578C251.178 310.06 251.232 309.522 251.435 309.034C251.638 308.545 251.982 308.128 252.423 307.836C252.863 307.543 253.381 307.388 253.91 307.39C254.615 307.39 255.292 307.67 255.791 308.169C256.29 308.668 256.57 309.345 256.57 310.05Z" fill="#E6E6E6"/>
<path d="M263.86 378.37H73.87L84.32 312.73H263.86V378.37Z" fill="#E6E6E6"/>
<path d="M250 442.59C357.082 442.59 443.89 437.522 443.89 431.27C443.89 425.018 357.082 419.95 250 419.95C142.917 419.95 56.11 425.018 56.11 431.27C56.11 437.522 142.917 442.59 250 442.59Z" fill="#F5F5F5"/>
<path d="M107.8 260.52C107.8 260.52 115.39 313.52 127.98 339.11C141.08 365.68 167.5 408.68 167.5 408.68L174.28 405.52C174.28 405.52 165.08 369.09 144.42 333.16C135.86 302.16 131.53 250.62 131.53 250.62L107.8 260.52Z" fill="#FFB573"/>
<path opacity="0.8" d="M107.8 260.52C107.8 260.52 115.39 313.52 127.98 339.11C141.08 365.68 167.5 408.68 167.5 408.68L174.28 405.52C174.28 405.52 165.08 369.09 144.42 333.16C135.86 302.16 131.53 250.62 131.53 250.62L107.8 260.52Z" fill="#263238"/>
<path d="M107.79 252.53C107.79 252.53 95.73 303.8 96.34 332.28C96.98 361.9 102.74 412.04 102.74 412.04H110.22C110.22 412.04 117.28 375.14 113.75 333.84C134.22 291.9 139.46 255.84 139.46 255.84L107.79 252.53Z" fill="#FFB573"/>
<path opacity="0.8" d="M107.79 252.53C107.79 252.53 95.73 303.8 96.34 332.28C96.98 361.9 102.74 412.04 102.74 412.04H110.22C110.22 412.04 117.28 375.14 113.75 333.84C134.22 291.9 139.46 255.84 139.46 255.84L107.79 252.53Z" fill="#263238"/>
<path d="M106.25 247.32C103.65 250.47 100.11 252.68 96.6499 254.83C94.1166 256.39 91.5966 257.953 89.0899 259.52C86.4899 261.13 83.7199 262.79 80.6699 262.75C77.6199 262.71 74.9099 257.11 75.6699 255.99C79.9499 249.48 90.0499 242.67 93.4599 237.72C94.0862 236.495 94.6016 235.217 94.9999 233.9C94.9999 231.8 95.2399 223.8 95.2399 223.8C94.4999 211.57 98.1499 198.35 100.91 196.09C104.91 192.82 107.06 190.58 109.91 193.85C111.78 196.03 108.84 217.42 108.97 228.42C108.97 228.74 109.7 233.78 109.8 235.1C110.29 241.78 108.85 244.18 106.25 247.32Z" fill="#FF9D0A"/>
<path opacity="0.2" d="M106.25 247.32C103.65 250.47 100.11 252.68 96.6499 254.83C94.1166 256.39 91.5966 257.953 89.0899 259.52C86.4899 261.13 83.7199 262.79 80.6699 262.75C77.6199 262.71 74.9099 257.11 75.6699 255.99C79.9499 249.48 90.0499 242.67 93.4599 237.72C94.0862 236.495 94.6016 235.217 94.9999 233.9C94.9999 231.8 95.2399 223.8 95.2399 223.8C94.4999 211.57 98.1499 198.35 100.91 196.09C104.91 192.82 107.06 190.58 109.91 193.85C111.78 196.03 108.84 217.42 108.97 228.42C108.97 228.74 109.7 233.78 109.8 235.1C110.29 241.78 108.85 244.18 106.25 247.32Z" fill="black"/>
<path d="M75.83 258.86L68.29 259.2L72.5 267C72.5 267 76.71 264.86 77.99 261.6L75.83 258.86Z" fill="#FFB573"/>
<path d="M63.99 262.92L66.85 269.28L72.46 266.97L68.24 259.21L63.99 262.92Z" fill="#FFB573"/>
<path d="M72.39 255.61L77.84 266.48L83.72 265.89L75.94 251.25L72.39 255.61Z" fill="#FF9D0A"/>
<path opacity="0.4" d="M72.39 255.61L77.84 266.48L83.72 265.89L75.94 251.25L72.39 255.61Z" fill="white"/>
<path d="M111 414.28C111.456 415.23 111.673 416.277 111.63 417.33C111.56 421.17 111.14 431.33 111.14 431.33H110.24C110.24 431.33 110.04 426.33 109.6 423.8C109.16 421.27 108.6 423.39 107.05 426.02C105.5 428.65 101.5 431.19 95.66 431.33C88.81 431.49 86.04 431.19 88.03 429.53C90.02 427.87 94.56 426.8 94.56 426.8C94.56 426.8 101.13 417.65 101.22 411.19C101.31 404.27 109.34 411.29 111.05 410.43C111.64 410.55 110.73 413.7 111 414.28Z" fill="#263238"/>
<path d="M176 407.21C176.812 407.882 177.449 408.74 177.86 409.71C179.42 413.22 183.33 422.61 183.33 422.61L182.51 422.99C182.51 422.99 180.22 418.54 178.75 416.43C177.28 414.32 177.67 416.48 177.38 419.52C177.09 422.56 174.53 426.52 169.3 429.15C163.16 432.15 160.52 433.09 161.62 430.74C162.72 428.39 166.39 425.51 166.39 425.51C166.39 425.51 168.48 414.44 165.83 408.51C162.98 402.2 173.23 405.17 174.41 403.66C174.94 403.57 175.45 406.81 176 407.21Z" fill="#263238"/>
<path d="M88.45 236.19L79.84 267.24C79.22 269.49 78.62 272 79.7 274.06C81.35 277.21 85.7 277.43 89.25 277.21L105.73 276.21C108.6 276.04 111.93 275.6 113.42 273.14C114.31 271.67 114.27 269.83 114.19 268.14C113.75 258.267 112.867 248.43 111.54 238.63C110.77 232.94 109.07 226.11 102.31 226.09C95.17 226.06 90.34 229.41 88.45 236.19Z" fill="#263238"/>
<path opacity="0.1" d="M88.45 236.19L79.84 267.24C79.22 269.49 78.62 272 79.7 274.06C81.35 277.21 85.7 277.43 89.25 277.21L105.73 276.21C108.6 276.04 111.93 275.6 113.42 273.14C114.31 271.67 114.27 269.83 114.19 268.14C113.75 258.267 112.867 248.43 111.54 238.63C110.77 232.94 109.07 226.11 102.31 226.09C95.17 226.06 90.34 229.41 88.45 236.19Z" fill="#FAFAFA"/>
<path d="M141.63 321.73C137.14 322.36 133 325.21 121.32 325.57H120.62C120.13 325.57 119.62 325.57 119.09 325.57C115.96 325.57 98.21 323.57 95.02 321.5C99.76 293.07 105.51 261.61 106.47 255.86L107.25 251.2L106.85 249.6V249.19L122.78 249.77L140.71 250.43C140.71 250.43 154.28 272.82 141.63 321.73Z" fill="#263238"/>
<path d="M106 192.89C109 192.08 114.14 190.78 118.84 189.94C124.355 189.048 129.925 188.541 135.51 188.42C139.05 188.27 142.51 188.42 145.28 188.54C145.966 188.586 146.633 188.785 147.233 189.121C147.833 189.457 148.35 189.923 148.748 190.484C149.145 191.045 149.413 191.687 149.531 192.365C149.649 193.042 149.614 193.738 149.43 194.4C141.9 221.31 140.72 233.29 140.43 247.18L107.48 246.18C107.104 246.167 106.746 246.021 106.467 245.768C106.189 245.516 106.009 245.173 105.96 244.8C104.35 233.04 101.16 223.43 100.88 216.53C100.644 209.848 101.241 203.164 102.66 196.63C102.796 195.751 103.184 194.93 103.777 194.266C104.37 193.603 105.142 193.125 106 192.89Z" fill="#FF9D0A"/>
<path opacity="0.1" d="M106 192.89C109 192.08 114.14 190.78 118.84 189.94C124.355 189.048 129.925 188.541 135.51 188.42C139.05 188.27 142.51 188.42 145.28 188.54C145.966 188.586 146.633 188.785 147.233 189.121C147.833 189.457 148.35 189.923 148.748 190.484C149.145 191.045 149.413 191.687 149.531 192.365C149.649 193.042 149.614 193.738 149.43 194.4C141.9 221.31 140.72 233.29 140.43 247.18L107.59 246.18C107.184 246.167 106.796 246.01 106.496 245.737C106.196 245.464 106.002 245.093 105.95 244.69C104.33 232.99 101.16 223.41 100.88 216.53C100.644 209.848 101.241 203.164 102.66 196.63C102.796 195.751 103.184 194.93 103.777 194.266C104.37 193.603 105.142 193.125 106 192.89Z" fill="black"/>
<path d="M93.64 233.5L91.76 232.81C94.6279 224.808 96.8189 216.579 98.31 208.21C100.17 198.7 101.2 193.46 108.31 192.05L108.69 194.05C102.89 195.19 102.07 199.4 100.27 208.63C98.7514 217.089 96.5338 225.408 93.64 233.5Z" fill="#263238"/>
<path opacity="0.1" d="M93.64 233.5L91.76 232.81C94.6279 224.808 96.8189 216.579 98.31 208.21C100.17 198.7 101.2 193.46 108.31 192.05L108.69 194.05C102.89 195.19 102.07 199.4 100.27 208.63C98.7514 217.089 96.5338 225.408 93.64 233.5Z" fill="#FAFAFA"/>
<path d="M149.62 190.58C148.757 189.836 147.72 189.321 146.606 189.085C145.491 188.849 144.335 188.898 143.244 189.228C142.154 189.558 141.165 190.159 140.368 190.974C139.572 191.789 138.995 192.792 138.69 193.89C137.59 197.29 145.69 228.05 145.69 228.06C145.69 232.06 157.6 238.06 157.6 238.06C161.5 232.9 151.81 192.43 149.62 190.58Z" fill="#FF9D0A"/>
<path d="M139.41 210.15C138.3 207.15 135.84 200.15 132.68 200.04C130.77 199.97 126.89 200.31 125.98 202.04C125.07 203.77 126.14 209.87 128.25 219.78C129.52 225.78 132.48 232.67 136.43 237.36C140.38 242.05 145.19 245.36 151.2 244.12C153.98 243.54 156.71 241.85 157.69 239.19C160.69 230.99 154.14 226.61 149.62 223.19C144.13 219 141.72 216.39 139.41 210.15Z" fill="#FF9D0A"/>
<path d="M140.46 188.41L139.22 190.3C134.44 197.62 123.97 206.71 120.08 207.41C119.326 205.302 118.078 203.406 116.44 201.88C115.394 202.306 114.446 202.941 113.654 203.746C112.861 204.55 112.241 205.508 111.83 206.56C108.9 201.08 109.63 194.44 110.68 191.19C112.68 190.74 114.75 190.29 116.75 189.94C122.265 189.053 127.835 188.548 133.42 188.43C135.764 188.279 138.115 188.272 140.46 188.41Z" fill="#FF9D0A"/>
<path opacity="0.2" d="M140.46 188.41L139.22 190.3C134.44 197.62 123.97 206.71 120.08 207.41C119.326 205.302 118.078 203.406 116.44 201.88C115.394 202.306 114.446 202.941 113.654 203.746C112.861 204.55 112.241 205.508 111.83 206.56C108.9 201.08 109.63 194.44 110.68 191.19C112.68 190.74 114.75 190.29 116.75 189.94C122.265 189.053 127.835 188.548 133.42 188.43C135.764 188.279 138.115 188.272 140.46 188.41Z" fill="white"/>
<path d="M97.74 160.1C98.28 163.93 97.74 170.9 92.62 178.54C86.02 188.33 100.48 194.54 110.1 193.84C118.64 193.22 137.59 184.76 140.86 177.78C144.13 170.8 135.39 170.78 132.69 158.18C129.99 145.58 120.5 147.36 112.75 147.35C102.12 145 96.63 152.27 97.74 160.1Z" fill="#263238"/>
<path d="M116.88 184.11C119.15 187.18 120.82 190.81 117.25 194.87C116.478 195.713 116.026 196.799 115.97 197.94C115.97 199.76 116.97 201.54 122.97 198.03C131.59 192.96 130.87 187.23 130.87 187.23C126.34 185.86 123.63 176.34 122.58 170.9L116.88 184.11Z" fill="#FFB573"/>
<path opacity="0.2" d="M122.07 179.07C122.73 181.39 120.27 185.07 118.41 186.55C117.979 185.689 117.47 184.869 116.89 184.1L120.24 176.29C121.03 177.084 121.653 178.03 122.07 179.07Z" fill="black"/>
<path d="M124.53 156.68C122.904 153.923 120.252 151.921 117.154 151.114C114.057 150.306 110.765 150.758 108 152.37C99.8699 157.08 100.48 170.26 103.47 177.88C106.74 186.35 117.79 187.43 123.47 179.73C127.31 174.6 126.83 170.86 126.15 162.02C126.028 160.139 125.474 158.312 124.53 156.68Z" fill="#FFB573"/>
<path d="M112.77 166.86C112.658 166.82 112.537 166.807 112.419 166.823C112.301 166.838 112.188 166.882 112.09 166.95C112.011 167.038 111.955 167.145 111.927 167.26C111.899 167.375 111.9 167.495 111.93 167.61L111.19 167.71C111.131 167.475 111.138 167.229 111.209 166.998C111.28 166.767 111.412 166.56 111.592 166.398C111.772 166.237 111.993 166.127 112.23 166.082C112.468 166.036 112.713 166.056 112.94 166.14C113.895 166.393 114.735 166.964 115.32 167.76L114.69 168.14C114.202 167.52 113.53 167.072 112.77 166.86Z" fill="#263238"/>
<path d="M104.76 168.45C104.735 168.343 104.689 168.243 104.624 168.155C104.558 168.067 104.475 167.994 104.38 167.94C104.174 167.86 103.946 167.86 103.74 167.94C103.518 168.028 103.329 168.181 103.196 168.379C103.064 168.578 102.996 168.812 103 169.05L102.26 169C102.262 168.619 102.38 168.248 102.598 167.935C102.816 167.623 103.123 167.384 103.48 167.25C103.563 167.21 103.65 167.179 103.74 167.16C104.102 167.068 104.485 167.121 104.809 167.308C105.132 167.495 105.369 167.8 105.47 168.16L104.76 168.45Z" fill="#263238"/>
<path d="M108.1 174C107.681 174.168 107.231 174.243 106.781 174.22C106.33 174.198 105.89 174.078 105.49 173.87C106.35 172.325 106.992 170.67 107.4 168.95L108.1 174Z" fill="#ED893E"/>
<path d="M114.88 173.66C114.892 173.635 114.899 173.608 114.9 173.58C114.901 173.553 114.897 173.525 114.888 173.499C114.879 173.473 114.864 173.449 114.846 173.429C114.827 173.408 114.805 173.392 114.78 173.38C114.728 173.356 114.669 173.352 114.615 173.371C114.561 173.39 114.516 173.429 114.49 173.48C114.052 174.263 113.434 174.931 112.686 175.426C111.938 175.922 111.082 176.232 110.19 176.33C110.138 176.344 110.093 176.375 110.062 176.419C110.031 176.463 110.016 176.516 110.02 176.57C110.024 176.596 110.033 176.622 110.046 176.645C110.06 176.668 110.078 176.688 110.099 176.703C110.121 176.719 110.145 176.731 110.171 176.737C110.197 176.743 110.224 176.744 110.25 176.74C110.589 176.703 110.923 176.636 111.25 176.54C112.016 176.325 112.731 175.959 113.354 175.465C113.977 174.97 114.496 174.357 114.88 173.66Z" fill="#263238"/>
<path d="M99.38 154.32C96.38 158.17 101.53 162.7 102.27 160.32C103.46 156.37 106.85 155.44 106.83 152.13C106.79 146.91 102.4 150.48 99.38 154.32Z" fill="#263238"/>
<path d="M114 161.84C114.033 161.795 114.057 161.745 114.07 161.691C114.084 161.637 114.086 161.581 114.078 161.526C114.07 161.471 114.05 161.419 114.022 161.371C113.993 161.324 113.955 161.283 113.91 161.25C111.98 159.8 109.25 160.64 109.13 160.68C109.077 160.697 109.029 160.724 108.987 160.76C108.945 160.796 108.91 160.84 108.885 160.889C108.835 160.988 108.825 161.104 108.86 161.21C108.894 161.316 108.97 161.404 109.069 161.455C109.168 161.505 109.284 161.514 109.39 161.48C109.39 161.48 111.79 160.7 113.39 161.91C113.461 161.963 113.547 161.991 113.635 161.991C113.723 161.991 113.809 161.963 113.88 161.91L114 161.84Z" fill="#263238"/>
<path d="M101 164.6C101.286 164.151 101.676 163.778 102.138 163.514C102.599 163.249 103.118 163.1 103.65 163.08C103.706 163.081 103.763 163.072 103.815 163.051C103.868 163.031 103.916 163 103.957 162.961C103.998 162.922 104.031 162.875 104.053 162.824C104.076 162.772 104.089 162.716 104.09 162.66C104.091 162.604 104.081 162.548 104.061 162.496C104.04 162.444 104.01 162.397 103.971 162.357C103.931 162.316 103.885 162.285 103.833 162.263C103.781 162.241 103.726 162.23 103.67 162.23C102.997 162.252 102.338 162.436 101.75 162.764C101.162 163.093 100.662 163.558 100.29 164.12C100.259 164.166 100.237 164.217 100.226 164.271C100.215 164.326 100.215 164.381 100.226 164.436C100.237 164.49 100.259 164.541 100.291 164.587C100.323 164.632 100.363 164.671 100.41 164.7C100.472 164.737 100.543 164.757 100.615 164.757C100.687 164.757 100.758 164.737 100.82 164.7C100.886 164.68 100.948 164.646 101 164.6Z" fill="#263238"/>
<path d="M111.87 154.91C113.204 155.159 114.466 155.702 115.564 156.5C116.663 157.297 117.57 158.329 118.22 159.52C118.703 160.706 119.324 161.83 120.07 162.87C120.9 163.8 123.68 167.61 124.67 168.36C125.66 169.11 125.31 166.16 126.25 165.59C127.258 165.139 128.222 164.597 129.13 163.97C129.679 163.446 130.098 162.8 130.352 162.084C130.605 161.368 130.687 160.603 130.59 159.85C130.389 158.339 129.807 156.904 128.9 155.68C127.694 153.917 126.148 152.412 124.352 151.254C122.557 150.095 120.549 149.307 118.445 148.934C116.342 148.562 114.185 148.613 112.101 149.084C110.017 149.556 108.048 150.438 106.31 151.68C105.19 152.48 102.02 155.86 104.86 156.27C105.72 156.39 107.22 155.27 108.1 155.02C109.335 154.717 110.62 154.68 111.87 154.91Z" fill="#263238"/>
<path d="M129.38 167.53C126.75 164.37 123.1 163.99 119.86 163.65C118.313 163.609 116.788 163.27 115.37 162.65C112.26 160.89 110.75 156.04 110.55 154.47C110.416 153.828 110.121 153.23 109.692 152.733C109.263 152.237 108.716 151.857 108.1 151.63C107.586 151.553 107.062 151.596 106.567 151.756C106.073 151.916 105.622 152.187 105.25 152.55C104.59 153.33 104.52 154.55 105.05 156.18L104.58 156.33C103.98 154.53 104.08 153.15 104.87 152.22C105.302 151.798 105.825 151.482 106.399 151.295C106.973 151.107 107.582 151.054 108.18 151.14C108.904 151.382 109.551 151.813 110.053 152.387C110.556 152.962 110.896 153.66 111.04 154.41C111.23 155.85 112.71 160.57 115.62 162.21C116.979 162.786 118.434 163.101 119.91 163.14C123.08 163.47 127.01 163.88 129.77 167.19L129.38 167.53Z" fill="#263238"/>
<path opacity="0.1" d="M129.38 167.53C126.75 164.37 123.1 163.99 119.86 163.65C118.313 163.609 116.788 163.27 115.37 162.65C112.26 160.89 110.75 156.04 110.55 154.47C110.416 153.828 110.121 153.23 109.692 152.733C109.263 152.237 108.716 151.857 108.1 151.63C107.586 151.553 107.062 151.596 106.567 151.756C106.073 151.916 105.622 152.187 105.25 152.55C104.59 153.33 104.52 154.55 105.05 156.18L104.58 156.33C103.98 154.53 104.08 153.15 104.87 152.22C105.302 151.798 105.825 151.482 106.399 151.295C106.973 151.107 107.582 151.054 108.18 151.14C108.904 151.382 109.551 151.813 110.053 152.387C110.556 152.962 110.896 153.66 111.04 154.41C111.23 155.85 112.71 160.57 115.62 162.21C116.979 162.786 118.434 163.101 119.91 163.14C123.08 163.47 127.01 163.88 129.77 167.19L129.38 167.53Z" fill="white"/>
<path d="M129.67 167.56C129.565 166.796 129.163 166.104 128.55 165.636C127.938 165.167 127.165 164.96 126.4 165.06C124.2 165.39 123.2 168.35 123.2 170.29C123.2 172.43 124.8 174.01 126.73 172.81C128.177 171.884 129.201 170.426 129.58 168.75C129.689 168.363 129.72 167.959 129.67 167.56Z" fill="#FFB573"/>
<path d="M128.55 170C128.424 170.37 128.193 170.695 127.885 170.935C127.577 171.175 127.205 171.32 126.815 171.351C126.426 171.382 126.036 171.299 125.693 171.111C125.351 170.922 125.071 170.638 124.888 170.293C124.706 169.948 124.628 169.556 124.665 169.167C124.702 168.778 124.852 168.409 125.097 168.104C125.342 167.8 125.671 167.574 126.043 167.454C126.415 167.334 126.813 167.326 127.19 167.43C127.448 167.509 127.689 167.638 127.897 167.81C128.106 167.982 128.278 168.193 128.404 168.432C128.531 168.671 128.609 168.933 128.634 169.202C128.659 169.471 128.63 169.742 128.55 170Z" fill="white"/>
<path d="M128.172 171.514L126.626 171.047L125.376 175.184L126.922 175.651L128.172 171.514Z" fill="white"/>
<path d="M127.57 168.83C127.556 168.879 127.533 168.925 127.501 168.965C127.469 169.004 127.43 169.037 127.385 169.062C127.34 169.086 127.291 169.101 127.24 169.106C127.19 169.111 127.139 169.105 127.09 169.09C126.993 169.059 126.912 168.992 126.866 168.902C126.819 168.812 126.809 168.707 126.84 168.61C126.87 168.513 126.938 168.432 127.028 168.386C127.118 168.339 127.223 168.33 127.32 168.36C127.415 168.39 127.494 168.456 127.541 168.544C127.588 168.632 127.598 168.735 127.57 168.83Z" fill="#263238"/>
<path d="M131.121 177.239L116.617 189.972C116.061 190.461 116.006 191.307 116.494 191.863L122.049 198.191C122.537 198.747 123.384 198.802 123.94 198.314L138.444 185.581C139 185.093 139.055 184.246 138.567 183.69L133.012 177.362C132.524 176.806 131.677 176.751 131.121 177.239Z" fill="#FF9D0A"/>
<path d="M130.23 197.72L132.68 190.58L123.88 191.68C123.88 191.68 124.33 196.38 126.88 198.78L130.23 197.72Z" fill="#FFB573"/>
<path d="M130.17 183.58L123.81 185.59L123.91 191.66L132.68 190.58L130.17 183.58Z" fill="#FFB573"/>
<path d="M135.08 196.67L122.98 199.04L123.28 204.55L137.4 201.43L135.08 196.67Z" fill="#FF9D0A"/>
<path opacity="0.4" d="M135.08 196.67L122.98 199.04L123.28 204.55L137.4 201.43L135.08 196.67Z" fill="white"/>
<path d="M140.17 250.86L123.56 250.19L122.17 250.13L118.58 249.98H117.2L107.45 249.58C107.15 249.53 106.89 249.4 106.89 249.21L106.71 246.13C106.71 245.92 106.97 245.75 107.31 245.76L117 246H118.16L122.93 246.14H124.06L140.06 246.59C140.169 246.585 140.278 246.608 140.377 246.657C140.475 246.706 140.558 246.779 140.62 246.87L140.76 250.36C140.86 250.64 140.56 250.87 140.17 250.86Z" fill="#FF9D0A"/>
<path opacity="0.2" d="M140.17 250.86L123.56 250.19L122.17 250.13L118.58 249.98H117.2L107.45 249.58C107.15 249.53 106.89 249.4 106.89 249.21L106.71 246.13C106.71 245.92 106.97 245.75 107.31 245.76L117 246H118.16L122.93 246.14H124.06L140.06 246.59C140.169 246.585 140.278 246.608 140.377 246.657C140.475 246.706 140.558 246.779 140.62 246.87L140.76 250.36C140.86 250.64 140.56 250.87 140.17 250.86Z" fill="white"/>
<path d="M112 250.12H113.07C113.111 250.132 113.154 250.135 113.196 250.129C113.238 250.123 113.278 250.108 113.314 250.086C113.35 250.063 113.381 250.033 113.404 249.997C113.428 249.962 113.443 249.922 113.45 249.88L113.15 245.52C113.15 245.39 112.96 245.26 112.74 245.25L111.67 245.2C111.45 245.2 111.29 245.3 111.29 245.43L111.59 249.81C111.617 249.898 111.671 249.975 111.745 250.031C111.819 250.087 111.908 250.118 112 250.12Z" fill="#263238"/>
<path d="M130.5 251.09H131.5C131.537 251.1 131.577 251.103 131.615 251.097C131.654 251.091 131.691 251.078 131.723 251.057C131.756 251.036 131.785 251.009 131.806 250.977C131.828 250.945 131.843 250.908 131.85 250.87L131.57 246.49C131.57 246.37 131.38 246.24 131.18 246.24H130.18C129.98 246.24 129.82 246.32 129.82 246.46L130.11 250.82C130.13 251 130.3 251.07 130.5 251.09Z" fill="#263238"/>
<path opacity="0.4" d="M116.11 210.34C116.828 210.34 117.41 209.758 117.41 209.04C117.41 208.322 116.828 207.74 116.11 207.74C115.392 207.74 114.81 208.322 114.81 209.04C114.81 209.758 115.392 210.34 116.11 210.34Z" fill="white"/>
<path opacity="0.4" d="M118.19 223.32C118.19 223.577 118.114 223.828 117.971 224.042C117.828 224.256 117.625 224.423 117.387 224.521C117.15 224.619 116.889 224.645 116.636 224.595C116.384 224.545 116.153 224.421 115.971 224.239C115.789 224.057 115.665 223.826 115.615 223.574C115.565 223.321 115.591 223.06 115.689 222.823C115.787 222.585 115.954 222.382 116.168 222.239C116.382 222.096 116.633 222.02 116.89 222.02C117.235 222.02 117.565 222.157 117.809 222.401C118.053 222.645 118.19 222.975 118.19 223.32Z" fill="white"/>
<path d="M328.18 244C328.18 244 328.69 249.69 338.75 253.28C348.81 256.87 345.56 250.33 345.56 250.33C340.94 247.18 341.17 243.74 342.84 240.42C343.244 239.585 343.701 238.776 344.21 238L339.81 230.32L336.58 224.69C335.77 230.82 333.41 241.64 328.18 244Z" fill="#7F3E3B"/>
<path d="M359.78 222.38C360.2 222.48 360.43 223.1 360.3 223.74C360.17 224.38 359.72 224.83 359.3 224.74C358.88 224.65 358.66 224.02 358.78 223.37C358.9 222.72 359.36 222.28 359.78 222.38Z" fill="#263238"/>
<path d="M356.87 220.43C356.797 220.355 356.756 220.255 356.756 220.15C356.756 220.045 356.797 219.945 356.87 219.87C357.292 219.408 357.817 219.051 358.403 218.829C358.988 218.607 359.617 218.525 360.24 218.59C360.291 218.599 360.339 218.617 360.382 218.644C360.426 218.671 360.463 218.707 360.493 218.749C360.523 218.79 360.544 218.838 360.556 218.888C360.567 218.938 360.569 218.989 360.56 219.04C360.551 219.091 360.533 219.139 360.506 219.182C360.479 219.226 360.443 219.263 360.401 219.293C360.359 219.323 360.312 219.344 360.262 219.356C360.212 219.367 360.161 219.369 360.11 219.36C359.618 219.314 359.123 219.38 358.66 219.554C358.198 219.727 357.781 220.003 357.44 220.36C357.397 220.408 357.342 220.444 357.281 220.465C357.219 220.486 357.154 220.491 357.09 220.48C357.014 220.481 356.938 220.464 356.87 220.43Z" fill="#263238"/>
<path d="M357.51 228.92C357.911 229.168 358.361 229.325 358.83 229.38C359.298 229.436 359.772 229.388 360.22 229.24C359.55 227.482 359.12 225.642 358.94 223.77L357.51 228.92Z" fill="#630F0F"/>
<path d="M339.8 210.65C341.533 208.389 344.092 206.909 346.916 206.534C349.74 206.159 352.597 206.92 354.86 208.65C361.86 213.72 360.53 225.81 357.35 232.56C356.556 234.328 355.293 235.846 353.698 236.948C352.103 238.051 350.238 238.696 348.303 238.815C346.368 238.933 344.437 238.52 342.72 237.62C341.002 236.721 339.564 235.368 338.56 233.71C335.41 228.71 336.51 223.98 337.68 215.9C337.907 213.992 338.639 212.18 339.8 210.65Z" fill="#7F3E3B"/>
<path d="M353.77 220.58C355.71 221.67 355.86 225.58 355.41 227.88C354.89 230.45 353.05 231.88 351.6 229.82C350.48 228.118 349.931 226.105 350.03 224.07C350.14 221.45 351.83 219.49 353.77 220.58Z" fill="#7F3E3B"/>
<path d="M357.12 232.81C356.879 232.81 356.642 232.756 356.424 232.654C356.206 232.552 356.014 232.402 355.86 232.217C355.707 232.032 355.596 231.816 355.535 231.583C355.475 231.35 355.466 231.107 355.51 230.87V230.76L356 230.86V230.97C355.966 231.15 355.977 231.335 356.031 231.51C356.084 231.685 356.18 231.844 356.309 231.974C356.437 232.104 356.596 232.2 356.77 232.255C356.945 232.31 357.13 232.322 357.31 232.29L357.39 232.79L357.12 232.81Z" fill="black"/>
<path d="M362.85 213.26C362.019 214.616 360.903 215.776 359.58 216.66C359.321 216.835 359.047 216.986 358.76 217.11C357.02 217.91 355.09 218.11 353.66 216.82C353.961 218.008 353.866 219.261 353.39 220.39C352.803 221.862 351.914 223.194 350.78 224.3C351.133 223.312 351.196 222.243 350.96 221.22C350.762 220.575 350.358 220.013 349.81 219.62C349.501 219.386 349.148 219.219 348.771 219.128C348.395 219.037 348.004 219.026 347.623 219.093C347.241 219.161 346.878 219.306 346.556 219.521C346.234 219.736 345.959 220.014 345.75 220.34C345.447 220.957 345.269 221.629 345.226 222.315C345.183 223.001 345.276 223.69 345.5 224.34C345.955 225.622 346.152 226.981 346.08 228.34C345.87 229.69 344.71 231.02 343.36 230.8C343.145 231.252 342.834 231.652 342.449 231.971C342.064 232.291 341.614 232.522 341.13 232.65C340.553 232.83 339.942 232.875 339.345 232.779C338.748 232.684 338.182 232.451 337.69 232.1C337.495 231.954 337.32 231.782 337.17 231.59C336.593 232.205 335.824 232.607 334.99 232.73C334.473 232.82 333.944 232.799 333.436 232.668C332.928 232.537 332.454 232.3 332.045 231.972C331.637 231.643 331.303 231.232 331.065 230.764C330.828 230.297 330.693 229.784 330.67 229.26C329.781 229.384 328.877 229.189 328.117 228.712C327.357 228.234 326.791 227.503 326.517 226.648C326.243 225.794 326.28 224.87 326.621 224.039C326.962 223.209 327.585 222.526 328.38 222.11C327.532 221.754 326.818 221.141 326.337 220.357C325.857 219.573 325.634 218.658 325.702 217.741C325.769 216.824 326.123 215.951 326.713 215.246C327.303 214.541 328.099 214.038 328.99 213.81C327.42 211.67 328.99 208.58 330.81 207.62C330.972 207.538 331.143 207.474 331.32 207.43C331.628 207.351 331.952 207.351 332.26 207.43H332.41C332.57 207.481 332.722 207.555 332.86 207.65C332.896 207.661 332.934 207.661 332.97 207.65C333.423 207.133 333.834 206.581 334.2 206L334.37 205.76C334.44 205.682 334.503 205.598 334.56 205.51C335.33 204.51 336.07 203.51 336.09 204.01C336.002 202.468 336.384 200.935 337.186 199.615C337.989 198.295 339.174 197.25 340.584 196.619C341.994 195.988 343.562 195.8 345.081 196.081C346.601 196.361 347.998 197.097 349.09 198.19C349.69 197.455 350.483 196.903 351.381 196.596C352.278 196.289 353.243 196.24 354.168 196.453C355.092 196.666 355.938 197.134 356.61 197.803C357.282 198.473 357.753 199.317 357.97 200.24C360.85 199.3 364.06 201.68 364.84 204.61C365.62 207.54 364.52 210.71 362.85 213.26Z" fill="#263238"/>
<path d="M388.4 401.26L395.59 398.77L398.04 416.56L390.85 419.04L388.4 401.26Z" fill="#7F3E3B"/>
<path opacity="0.2" d="M389.6 410.97L396.9 409.29L395.53 399.33L388.34 401.81L389.6 410.97Z" fill="black"/>
<path d="M399.79 416.21C402.22 417.44 406.26 418.05 412.45 417.86C413.88 417.86 414.71 420.86 411.61 421.62C408.51 422.38 402.35 423.8 400.09 424.26C397.37 424.81 395.94 425.26 394.21 425.78C393.815 425.9 393.4 425.94 392.989 425.899C392.578 425.857 392.179 425.735 391.816 425.539C391.452 425.343 391.131 425.077 390.871 424.756C390.611 424.435 390.417 424.066 390.3 423.67C390.238 423.422 390.211 423.166 390.22 422.91C390.22 422.91 390.75 416.74 391.04 416.68L397.38 414.06C397.83 414 398.37 415.79 399.79 416.21Z" fill="#7F3E3B"/>
<path d="M315.33 314.15C315.508 321.016 316.931 327.792 319.53 334.15C324.76 346.69 357.03 344.09 371.15 343.49C370.15 360.77 385.95 407.68 385.95 407.68L398.77 404.27C398.77 404.27 392.7 360.38 393 336.5C393.31 314.7 343 312.59 343 312.59L315.33 314.15Z" fill="#FF9D0A"/>
<path opacity="0.3" d="M315.33 314.15C315.508 321.016 316.931 327.792 319.53 334.15C324.76 346.69 357.03 344.09 371.15 343.49C370.15 360.77 385.77 407.13 385.77 407.13L398.77 403.38C398.77 403.38 392.7 360.38 393.04 336.46C393.35 314.66 343.04 312.55 343.04 312.55L315.33 314.15Z" fill="white"/>
<path d="M382.51 401.3L399.4 396.8L399.98 404.07L384.24 409.08L382.51 401.3Z" fill="#FF9D0A"/>
<path d="M417.92 405.55L424.73 402.14L430.24 419.04L423.44 422.45L417.92 405.55Z" fill="#7F3E3B"/>
<path d="M431.53 417.94C433.96 419.17 438 419.78 444.19 419.59C445.62 419.59 446.45 422.59 443.35 423.35C440.25 424.11 434.09 425.53 431.83 425.99C428.15 426.73 423.26 428.34 423.04 425.1C423.04 425.1 422.49 418.46 422.78 418.41L429.11 415.79C429.57 415.71 430 416.92 431.53 417.94Z" fill="#7F3E3B"/>
<path opacity="0.2" d="M420.46 413.23L427.27 409.82L424.43 401.1L417.62 404.51L420.46 413.23Z" fill="black"/>
<path d="M331.78 313.06C331.78 313.06 330.29 327.06 334.57 337.29C339.81 349.82 379.22 340.74 394.76 344.5C395.5 368.92 416.76 410.06 416.76 410.06L429.45 404.31C429.45 404.31 422.18 366.84 415.27 334.31C413.49 310 358.33 311.94 358 312L331.78 313.06Z" fill="#FF9D0A"/>
<path opacity="0.5" d="M331.78 313.06C331.78 313.06 330.29 327.06 334.57 337.29C339.81 349.82 379.22 340.74 394.76 344.5C395.5 368.92 416.76 410.06 416.76 410.06L429.45 404.31C429.45 404.31 422.18 366.84 415.27 334.31C413.41 308.38 349.91 311.43 349.58 311.44L331.78 313.06Z" fill="white"/>
<path d="M413.2 404.72L429.64 398.25L431.19 404.68L415.67 412.46L413.2 404.72Z" fill="#FF9D0A"/>
<path d="M405.88 309.66L347.07 305.89L352.72 268.82L411.53 272.58L405.88 309.66Z" fill="#FF9D0A"/>
<path d="M404.89 312.52L346.89 308.81C346.508 308.793 346.134 308.695 345.793 308.522C345.452 308.349 345.152 308.105 344.913 307.807C344.673 307.509 344.5 307.163 344.405 306.793C344.309 306.423 344.294 306.037 344.36 305.66L350 268.82C350.133 268.02 350.555 267.297 351.185 266.787C351.815 266.277 352.61 266.015 353.42 266.05L411.42 269.76C411.802 269.775 412.177 269.873 412.519 270.045C412.861 270.218 413.162 270.461 413.401 270.76C413.641 271.058 413.814 271.404 413.909 271.775C414.003 272.146 414.017 272.533 413.95 272.91L408.34 309.75C408.206 310.555 407.78 311.282 407.144 311.793C406.507 312.304 405.705 312.563 404.89 312.52Z" fill="#FF9D0A"/>
<path d="M405.88 309.66L347.07 305.89L352.72 268.82L411.53 272.58L405.88 309.66Z" fill="#FF9D0A"/>
<path opacity="0.9" d="M405.88 309.66L347.07 305.89L352.72 268.82L411.53 272.58L405.88 309.66Z" fill="white"/>
<path d="M403.76 282.95L392.96 282.26L393.88 276.22L404.68 276.91L403.76 282.95Z" fill="#FF9D0A"/>
<path d="M401.95 294.86L391.15 294.17L392.07 288.13L402.87 288.82L401.95 294.86Z" fill="#FF9D0A"/>
<path d="M400.13 306.78L389.33 306.09L390.25 300.05L401.05 300.74L400.13 306.78Z" fill="#FF9D0A"/>
<path opacity="0.1" d="M398.84 268.89L384.6 311.13L388.46 311.37L402.57 269.13L398.84 268.89Z" fill="white"/>
<path opacity="0.1" d="M404.8 269.27L390.56 311.51L398.23 312L412.34 269.76L404.8 269.27Z" fill="white"/>
<path d="M354.06 299.16L354 299.5L385.17 301.5L385.23 301.15L354.06 299.16Z" fill="#FF9D0A"/>
<path d="M385.82 297.21L354.7 295.22L357.95 273.84L389.08 275.83L385.82 297.21Z" fill="#FF9D0A"/>
<path d="M355 303.75C354.795 303.74 354.595 303.687 354.413 303.594C354.231 303.501 354.07 303.37 353.943 303.21C353.815 303.05 353.723 302.865 353.672 302.667C353.622 302.468 353.614 302.262 353.65 302.06C353.718 301.631 353.943 301.242 354.281 300.969C354.619 300.696 355.046 300.557 355.48 300.58C355.684 300.588 355.884 300.64 356.066 300.732C356.248 300.824 356.409 300.954 356.537 301.113C356.665 301.272 356.757 301.457 356.808 301.655C356.858 301.853 356.866 302.059 356.83 302.26C356.761 302.69 356.537 303.08 356.199 303.354C355.862 303.629 355.435 303.77 355 303.75Z" fill="#FF9D0A"/>
<path d="M369.86 298.84L354.3 297.85L354.5 296.48L370.07 297.48L369.86 298.84Z" fill="#FF9D0A"/>
<path d="M384.66 304.74L378.65 304.35L378.85 302.98L384.87 303.37L384.66 304.74Z" fill="#FF9D0A"/>
<path d="M385.43 299.84L384.05 299.75L384.26 298.38L385.63 298.47L385.43 299.84Z" fill="#FF9D0A"/>
<path d="M383.1 299.69L381.72 299.6L381.93 298.23L383.3 298.32L383.1 299.69Z" fill="#FF9D0A"/>
<path d="M380.77 299.54L379.39 299.45L379.6 298.08L380.97 298.17L380.77 299.54Z" fill="#FF9D0A"/>
<path opacity="0.2" d="M369.86 298.84L354.3 297.85L354.5 296.48L370.07 297.48L369.86 298.84Z" fill="white"/>
<path opacity="0.2" d="M385.23 301.15L354.06 299.16L354 299.5L385.17 301.5L385.23 301.15Z" fill="black"/>
<path d="M386.52 311.05L406.06 312.56C406.16 314.86 405.06 315.61 403.86 315.51L397.61 315.01L393.44 314.66L386.95 314.16L357.1 312.16V309.3L386.52 311.05Z" fill="#FF9D0A"/>
<path opacity="0.4" d="M386.52 311.05L406.06 312.56C406.16 314.86 405.06 315.61 403.86 315.51L397.61 315.01L393.44 314.66L386.95 314.16L357.1 312.16V309.3L386.52 311.05Z" fill="black"/>
<path d="M379 288.89C379 288.89 379 288.89 379 288.84H378.95L377.89 288.78L377.94 288.22H378.02V287.76H377.94L378.01 285.24H377.96C377.62 285.042 377.238 284.927 376.845 284.905C376.453 284.882 376.06 284.952 375.7 285.11H375.64L375.42 287.63H375.35V288.09H375.43V288.65L374.37 288.58H374.32C374.32 288.58 374.32 288.58 374.32 288.63C374.31 289.011 374.327 289.392 374.37 289.77C373.945 289.568 373.508 289.394 373.06 289.25C372.805 289.161 372.545 289.091 372.28 289.04C372.155 288.907 372.061 288.749 372.004 288.576C371.947 288.404 371.929 288.221 371.95 288.04C372.006 287.806 372.086 287.578 372.19 287.36H372.14C372.675 287.242 373.169 286.986 373.574 286.617C373.98 286.249 374.281 285.781 374.45 285.26C374.614 285.156 374.748 285.011 374.84 284.84C375.24 284.84 375.61 284.11 375.66 283.19C375.71 282.27 375.46 281.6 375.09 281.48C375.223 281.14 375.279 280.774 375.255 280.409C375.231 280.045 375.127 279.69 374.95 279.37C374.47 278.59 373.43 278.11 371.86 277.94C369.86 277.74 368.55 278.1 367.86 279C367.614 279.336 367.441 279.719 367.352 280.125C367.262 280.532 367.258 280.952 367.34 281.36C367.102 281.76 366.972 282.215 366.96 282.68C366.91 283.6 367.19 284.36 367.59 284.42C367.74 284.75 367.94 284.96 368.18 284.97C368.261 284.971 368.342 284.955 368.416 284.922C368.49 284.89 368.556 284.841 368.61 284.78C368.736 285.406 369.03 285.987 369.46 286.46C369.488 287.339 369.197 288.199 368.64 288.88C367.946 288.956 367.27 289.149 366.64 289.45C365.775 289.81 364.964 290.288 364.23 290.87C363.34 292.32 363.7 295.81 363.7 295.81L377.6 296.7L377.5 293.08C377.407 292.786 377.286 292.501 377.14 292.23C378.35 292.03 379.03 290.92 379.14 288.92L379 288.89ZM368.43 280.38C368.43 280.44 368.43 280.5 368.36 280.56C368.317 280.55 368.273 280.55 368.23 280.56C368.131 280.563 368.035 280.59 367.948 280.637C367.862 280.683 367.787 280.75 367.73 280.83C367.698 280.325 367.847 279.825 368.15 279.42C368.73 278.7 369.9 278.42 371.61 278.6C372.1 278.584 372.588 278.676 373.039 278.87C373.491 279.063 373.893 279.354 374.22 279.72C374.431 280.094 374.489 280.535 374.38 280.95H374.26H374.2C374.072 280.503 373.851 280.089 373.551 279.734C373.251 279.379 372.879 279.091 372.46 278.89C371.725 278.553 370.886 278.52 370.128 278.8C369.369 279.079 368.751 279.647 368.41 280.38H368.43ZM374.43 289.88C374.378 289.506 374.358 289.128 374.37 288.75L375.3 288.8L375.25 290.38C374.995 290.19 374.724 290.022 374.44 289.88H374.43ZM376.8 292C376.432 291.486 375.994 291.025 375.5 290.63C375.823 290.786 376.176 290.871 376.535 290.88C376.893 290.888 377.25 290.82 377.58 290.68H377.63L377.78 289.01L378.71 289.06C378.54 290.85 377.92 291.82 376.8 292Z" fill="#FF9D0A"/>
<path opacity="0.2" d="M379 288.89C379 288.89 379 288.89 379 288.84H378.95L377.89 288.78L377.94 288.22H378.02V287.76H377.94L378.01 285.24H377.96C377.62 285.042 377.238 284.927 376.845 284.905C376.453 284.882 376.06 284.952 375.7 285.11H375.64L375.42 287.63H375.35V288.09H375.43V288.65L374.37 288.58H374.32C374.32 288.58 374.32 288.58 374.32 288.63C374.31 289.011 374.327 289.392 374.37 289.77C373.945 289.568 373.508 289.394 373.06 289.25C372.805 289.161 372.545 289.091 372.28 289.04C372.155 288.907 372.061 288.749 372.004 288.576C371.947 288.404 371.929 288.221 371.95 288.04C372.006 287.806 372.086 287.578 372.19 287.36H372.14C372.675 287.242 373.169 286.986 373.574 286.617C373.98 286.249 374.281 285.781 374.45 285.26C374.614 285.156 374.748 285.011 374.84 284.84C375.24 284.84 375.61 284.11 375.66 283.19C375.71 282.27 375.46 281.6 375.09 281.48C375.223 281.14 375.279 280.774 375.255 280.409C375.231 280.045 375.127 279.69 374.95 279.37C374.47 278.59 373.43 278.11 371.86 277.94C369.86 277.74 368.55 278.1 367.86 279C367.614 279.336 367.441 279.719 367.352 280.125C367.262 280.532 367.258 280.952 367.34 281.36C367.102 281.76 366.972 282.215 366.96 282.68C366.91 283.6 367.19 284.36 367.59 284.42C367.74 284.75 367.94 284.96 368.18 284.97C368.261 284.971 368.342 284.955 368.416 284.922C368.49 284.89 368.556 284.841 368.61 284.78C368.736 285.406 369.03 285.987 369.46 286.46C369.488 287.339 369.197 288.199 368.64 288.88C367.946 288.956 367.27 289.149 366.64 289.45C365.775 289.81 364.964 290.288 364.23 290.87C363.34 292.32 363.7 295.81 363.7 295.81L377.6 296.7L377.5 293.08C377.407 292.786 377.286 292.501 377.14 292.23C378.35 292.03 379.03 290.92 379.14 288.92L379 288.89ZM368.43 280.38C368.43 280.44 368.43 280.5 368.36 280.56C368.317 280.55 368.273 280.55 368.23 280.56C368.131 280.563 368.035 280.59 367.948 280.637C367.862 280.683 367.787 280.75 367.73 280.83C367.698 280.325 367.847 279.825 368.15 279.42C368.73 278.7 369.9 278.42 371.61 278.6C372.1 278.584 372.588 278.676 373.039 278.87C373.491 279.063 373.893 279.354 374.22 279.72C374.431 280.094 374.489 280.535 374.38 280.95H374.26H374.2C374.072 280.503 373.851 280.089 373.551 279.734C373.251 279.379 372.879 279.091 372.46 278.89C371.725 278.553 370.886 278.52 370.128 278.8C369.369 279.079 368.751 279.647 368.41 280.38H368.43ZM374.43 289.88C374.378 289.506 374.358 289.128 374.37 288.75L375.3 288.8L375.25 290.38C374.995 290.19 374.724 290.022 374.44 289.88H374.43ZM376.8 292C376.432 291.486 375.994 291.025 375.5 290.63C375.823 290.786 376.176 290.871 376.535 290.88C376.893 290.888 377.25 290.82 377.58 290.68H377.63L377.78 289.01L378.71 289.06C378.54 290.85 377.92 291.82 376.8 292Z" fill="black"/>
<path opacity="0.2" d="M406.06 312.56V313.36C406.071 313.653 406.019 313.945 405.909 314.217C405.799 314.488 405.633 314.734 405.422 314.937C405.21 315.14 404.958 315.296 404.682 315.395C404.406 315.493 404.112 315.533 403.82 315.51L397.57 315.01L386 314.2L386.52 311.05L406.06 312.56Z" fill="black"/>
<path d="M326.73 243L345.73 245.43C345.73 245.43 343.79 240.48 337.03 239.71C335.176 239.431 333.282 239.583 331.496 240.154C329.71 240.724 328.079 241.698 326.73 243Z" fill="#FF9D0A"/>
<path d="M313.07 275.52C313.83 290.52 313.51 305.85 315.33 314.12L319.9 315.34C327.908 317.477 336.325 317.573 344.38 315.62L357.95 312.32C357.87 298.08 359.1 270.32 359.76 256.52C359.876 254.133 359.191 251.776 357.814 249.823C356.437 247.87 354.447 246.433 352.16 245.74C350.85 245.34 349.68 245.01 348.96 244.85C343.305 243.812 337.596 243.098 331.86 242.71C329.002 242.492 326.135 242.429 323.27 242.52L321.85 242.58C319.7 242.67 316.29 244.82 315.63 246.85C312.89 255.2 312.62 266.49 313.07 275.52Z" fill="#FF9D0A"/>
<path d="M313.07 275.52C313.83 290.52 313.51 305.85 315.33 314.12L319.9 315.34C327.908 317.477 336.325 317.573 344.38 315.62L357.95 312.32C357.87 298.08 359.1 270.32 359.76 256.52C359.876 254.133 359.191 251.776 357.814 249.823C356.437 247.87 354.447 246.433 352.16 245.74C350.85 245.34 349.68 245.01 348.96 244.85C343.305 243.812 337.596 243.098 331.86 242.71C329.002 242.492 326.135 242.429 323.27 242.52L321.85 242.58C319.7 242.67 316.29 244.82 315.63 246.85C312.89 255.2 312.62 266.49 313.07 275.52Z" fill="#263238"/>
<path d="M356.43 248.23C356.87 254.69 357.43 261.29 358.03 267.77C358.35 271.02 358.7 274.26 359.12 277.46C359.54 280.66 360 283.85 360.62 286.91C360.93 288.44 361.26 289.91 361.62 291.35C361.82 292.06 362.03 292.73 362.24 293.35C362.36 293.64 362.47 294 362.58 294.23L362.74 294.61C362.76 294.659 362.776 294.709 362.79 294.76C362.739 294.661 362.679 294.567 362.61 294.48C362.41 294.23 362.33 294.28 362.39 294.3C362.522 294.439 362.67 294.563 362.83 294.67C363.326 294.993 363.847 295.274 364.39 295.51C365.739 296.088 367.118 296.595 368.52 297.03C374.47 298.85 381.65 302.17 388.01 303.58L387.55 309.28C380.67 309.55 366.26 307.11 360.92 304.76C359.888 304.448 358.885 304.05 357.92 303.57C357.335 303.275 356.77 302.941 356.23 302.57C355.198 301.858 354.337 300.926 353.71 299.84L353.5 299.43L353.13 298.68C352.86 298.17 352.7 297.75 352.49 297.27C352.11 296.34 351.77 295.45 351.49 294.56C350.92 292.81 350.49 291.09 350.01 289.36C348.462 282.667 347.307 275.888 346.55 269.06C346.17 265.7 345.85 262.37 345.55 258.99C345.25 255.61 345.01 252.29 344.87 248.86L356.43 248.23Z" fill="#7F3E3B"/>
<path d="M384.93 308.53C385.8 310.98 394.19 310.53 394.19 310.53L393.43 302.65L385.91 304L384.93 308.53Z" fill="#7F3E3B"/>
<path d="M393.43 302.61L394.19 310.49L399.29 311.26L398.02 305.73L393.43 302.61Z" fill="#7F3E3B"/>
<path d="M341.86 252.09C340.42 256.97 341.92 271.66 344.49 278.54L361.99 276.69C361.99 276.69 364.07 256.78 360.1 251C353.72 241.77 344 244.59 341.86 252.09Z" fill="#263238"/>
<path d="M429.4 415.7L422.28 418.44C422.124 418.497 421.995 418.608 421.916 418.754C421.837 418.899 421.813 419.069 421.85 419.23L423.52 429.84C423.564 430.017 423.643 430.184 423.752 430.33C423.862 430.477 423.999 430.6 424.156 430.693C424.313 430.786 424.487 430.847 424.668 430.872C424.849 430.897 425.033 430.886 425.21 430.84L425.36 430.79C428.44 429.56 429.87 428.79 433.8 427.34C436.21 426.44 443.99 424.79 447.02 422.92C450.05 421.05 448.36 417.92 446.93 418.46C442.34 420.11 435.99 418.9 432.13 416.29C431.63 416.08 429.89 415.5 429.4 415.7Z" fill="#263238"/>
<path d="M433.14 419.74L433.21 419.83C433.39 419.931 433.593 419.984 433.8 419.984C434.007 419.984 434.21 419.931 434.39 419.83C434.505 419.777 434.605 419.694 434.678 419.591C434.752 419.487 434.797 419.366 434.81 419.24C434.94 418.11 432.4 416.05 432.15 415.84C432.115 415.814 432.073 415.8 432.03 415.8C431.987 415.8 431.945 415.814 431.91 415.84C431.876 415.861 431.848 415.89 431.828 415.925C431.809 415.96 431.799 416 431.8 416.04C431.94 417.16 432.26 419.16 433.14 419.74ZM432.3 416.46C433.3 417.3 434.49 418.55 434.41 419.16C434.405 419.217 434.383 419.271 434.348 419.315C434.312 419.36 434.264 419.393 434.21 419.41C434.091 419.478 433.957 419.514 433.82 419.514C433.683 419.514 433.549 419.478 433.43 419.41C432.93 419.12 432.49 418.05 432.31 416.46H432.3Z" fill="#FF9D0A"/>
<path d="M432.17 416.36C433.09 416.99 435.07 417.7 435.88 417.26C436.025 417.175 436.137 417.045 436.198 416.889C436.26 416.733 436.268 416.561 436.22 416.4C436.191 416.239 436.124 416.087 436.022 415.958C435.921 415.829 435.79 415.726 435.64 415.66C434.52 415 432.07 415.8 431.97 415.83C431.933 415.834 431.897 415.849 431.867 415.872C431.837 415.895 431.814 415.925 431.8 415.96C431.796 415.996 431.8 416.033 431.812 416.068C431.824 416.103 431.844 416.134 431.87 416.16L432.17 416.36ZM435.5 416.02C435.577 416.069 435.642 416.133 435.692 416.209C435.742 416.285 435.776 416.37 435.79 416.46C435.85 416.73 435.79 416.82 435.67 416.87C435.12 417.18 433.42 416.67 432.51 416.08C433.34 415.86 434.76 415.59 435.44 415.99H435.5V416.02Z" fill="#FF9D0A"/>
<path d="M397.17 413.45L389.89 415.63C389.734 415.668 389.597 415.76 389.503 415.89C389.41 416.021 389.366 416.18 389.38 416.34L389.68 426.46C389.709 426.629 389.773 426.79 389.867 426.933C389.961 427.076 390.084 427.199 390.228 427.292C390.371 427.386 390.532 427.45 390.701 427.478C390.87 427.507 391.043 427.501 391.21 427.46H391.36C394.51 426.46 395.99 425.86 400 424.69C402.45 423.97 410.24 422.86 413.42 421.27C416.6 419.68 415.34 416.66 413.89 417.05C411.464 417.602 408.948 417.629 406.511 417.128C404.074 416.628 401.772 415.613 399.76 414.15C398.95 413.752 398.07 413.514 397.17 413.45Z" fill="#263238"/>
<path d="M401.85 417.78L401.94 417.85C402.137 417.904 402.345 417.908 402.544 417.861C402.744 417.814 402.928 417.717 403.08 417.58C403.183 417.504 403.264 417.401 403.315 417.284C403.366 417.166 403.385 417.037 403.37 416.91C403.26 415.78 400.37 414.31 400.04 414.16C400.006 414.136 399.966 414.124 399.925 414.124C399.884 414.124 399.844 414.136 399.81 414.16C399.78 414.187 399.758 414.222 399.745 414.261C399.733 414.299 399.731 414.34 399.74 414.38C400.13 415.52 400.87 417.4 401.85 417.78ZM400.32 414.78C401.47 415.39 402.92 416.35 402.97 416.96C402.974 417.018 402.963 417.075 402.936 417.126C402.91 417.178 402.869 417.22 402.82 417.25C402.719 417.343 402.597 417.41 402.465 417.444C402.332 417.479 402.193 417.481 402.06 417.45C401.52 417.27 400.86 416.32 400.35 414.8L400.32 414.78Z" fill="#FF9D0A"/>
<path d="M400.18 414.68C401.18 415.1 403.29 415.37 404 414.77C404.122 414.654 404.202 414.5 404.227 414.334C404.253 414.167 404.222 413.997 404.14 413.85C404.073 413.702 403.973 413.572 403.848 413.468C403.724 413.364 403.577 413.29 403.42 413.25C402.18 412.85 399.96 414.16 399.87 414.25C399.833 414.262 399.799 414.284 399.774 414.314C399.75 414.344 399.734 414.381 399.73 414.42C399.735 414.456 399.748 414.49 399.767 414.521C399.786 414.552 399.81 414.579 399.84 414.6L400.18 414.68ZM403.36 413.68C403.445 413.712 403.523 413.761 403.589 413.825C403.654 413.889 403.706 413.965 403.74 414.05C403.85 414.3 403.74 414.4 403.74 414.47C403.28 414.89 401.51 414.76 400.49 414.38C401.25 413.99 402.58 413.38 403.34 413.66H403.4L403.36 413.68Z" fill="#FF9D0A"/>
<path d="M349.53 218.26C350.281 218.726 350.931 219.338 351.442 220.059C351.953 220.78 352.315 221.597 352.505 222.46C352.695 223.323 352.711 224.216 352.551 225.085C352.39 225.955 352.058 226.783 351.572 227.522C351.087 228.261 350.458 228.895 349.724 229.386C348.989 229.878 348.163 230.218 347.295 230.386C346.427 230.553 345.535 230.545 344.67 230.362C343.805 230.179 342.986 229.825 342.26 229.32C340.55 228.32 339.08 224.26 341.1 221.21C343.12 218.16 346.49 216.26 349.53 218.26Z" fill="#FF9D0A"/>
<path d="M342.84 208.68C341.13 206.86 338.67 204.68 335.84 203.99C335.84 203.99 333.67 206.9 333.42 207.05C333.25 206.96 338.23 208.97 340.02 211.11C342.136 213.794 343.817 216.794 345 220L348.08 218.13C347.091 214.616 345.297 211.38 342.84 208.68Z" fill="#FF9D0A"/>
<g opacity="0.3">
<path d="M342.84 208.68C341.13 206.86 338.67 204.68 335.84 203.99C335.84 203.99 333.67 206.9 333.42 207.05C333.25 206.96 338.23 208.97 340.02 211.11C342.136 213.794 343.817 216.794 345 220L348.08 218.13C347.091 214.616 345.297 211.38 342.84 208.68Z" fill="black"/>
</g>
<path opacity="0.3" d="M350.36 220.53C352.16 221.78 352.36 224.67 350.82 227.02C349.28 229.37 346.54 230.33 344.72 229.13C342.9 227.93 343.24 224.96 344.79 222.6C346.34 220.24 348.55 219.29 350.36 220.53Z" fill="black"/>
<path d="M344.95 227.53L351.1 222.62L351.28 223.77L345.93 228.17L344.95 227.53Z" fill="#263238"/>
<path d="M337.37 373.73L329.85 429.16H332.55L342.3 373.73H337.37Z" fill="#263238"/>
<path d="M328.22 266.47C322.62 263 312.98 263.63 306.9 266.16C300.82 268.69 295.83 273.34 291.7 278.47C276.8 296.98 271.91 329.11 276.2 352.47C277.73 360.86 280.49 369.25 285.91 375.84C290.41 381.3 296.51 385.23 302.85 388.38C314.256 394.175 326.847 397.256 339.64 397.38C352.462 397.455 365.009 393.66 375.64 386.49C383.21 381.22 389.56 373.89 392.49 365.15C395.42 356.41 394.56 346.52 389.19 339.03C384.37 332.31 376.33 328.89 368.39 326.61C367.55 326.38 366.7 326.16 365.84 325.98C352.01 322.98 341.71 304.46 339.76 290.44C339.78 290.37 335.94 271.26 328.22 266.47Z" fill="#FF9D0A"/>
<path d="M303.51 383.8L293.88 433H297.34L309.81 383.8H303.51Z" fill="#263238"/>
<path d="M361.76 383.8L371.39 433H367.94L355.46 383.8H361.76Z" fill="#263238"/>
<path d="M175.52 126.41H175.36C175.236 126.367 175.133 126.277 175.073 126.159C175.014 126.042 175.002 125.906 175.04 125.78C176.155 122.313 177.563 118.947 179.25 115.72C179.278 115.657 179.319 115.601 179.369 115.555C179.42 115.509 179.48 115.474 179.545 115.452C179.609 115.429 179.678 115.421 179.746 115.426C179.815 115.432 179.881 115.451 179.942 115.484C180.002 115.516 180.055 115.56 180.098 115.614C180.141 115.668 180.172 115.73 180.189 115.796C180.207 115.862 180.211 115.931 180.201 115.999C180.19 116.067 180.166 116.132 180.13 116.19C178.473 119.367 177.088 122.679 175.99 126.09C175.955 126.186 175.89 126.268 175.806 126.325C175.722 126.383 175.622 126.412 175.52 126.41Z" fill="#FF9D0A"/>
<path d="M180.06 180.48C179.972 180.477 179.886 180.452 179.811 180.407C179.735 180.361 179.673 180.297 179.63 180.22C171.93 166.43 169.63 148.9 173.32 132.11C173.353 131.982 173.434 131.872 173.545 131.802C173.656 131.731 173.79 131.705 173.92 131.73C173.985 131.744 174.046 131.771 174.1 131.809C174.154 131.847 174.2 131.895 174.235 131.951C174.27 132.007 174.294 132.069 174.305 132.134C174.317 132.199 174.315 132.266 174.3 132.33C170.66 148.88 172.92 166.15 180.5 179.73C180.533 179.787 180.555 179.85 180.564 179.915C180.572 179.981 180.567 180.047 180.55 180.11C180.532 180.174 180.502 180.233 180.46 180.285C180.419 180.336 180.368 180.379 180.31 180.41C180.235 180.457 180.148 180.482 180.06 180.48Z" fill="#FF9D0A"/>
<path d="M166.16 162C166.048 162.001 165.938 161.964 165.849 161.895C165.76 161.826 165.697 161.729 165.67 161.62C162.434 147.716 164.205 133.117 170.67 120.39C170.732 120.274 170.837 120.187 170.962 120.148C171.087 120.108 171.223 120.12 171.34 120.18C171.398 120.21 171.45 120.25 171.493 120.3C171.535 120.35 171.567 120.408 171.586 120.471C171.606 120.533 171.613 120.599 171.607 120.664C171.6 120.729 171.581 120.792 171.55 120.85C165.212 133.371 163.488 147.724 166.68 161.39C166.695 161.454 166.697 161.521 166.686 161.586C166.674 161.651 166.65 161.713 166.615 161.769C166.58 161.825 166.534 161.873 166.48 161.911C166.426 161.949 166.365 161.976 166.3 161.99L166.16 162Z" fill="#FF9D0A"/>
<path d="M171.4 175.7C171.311 175.701 171.223 175.679 171.146 175.635C171.069 175.591 171.005 175.527 170.96 175.45C169.686 173.159 168.593 170.771 167.69 168.31C167.658 168.247 167.64 168.179 167.636 168.108C167.632 168.038 167.644 167.968 167.669 167.902C167.694 167.836 167.733 167.777 167.783 167.727C167.833 167.678 167.893 167.639 167.959 167.614C168.025 167.59 168.095 167.579 168.166 167.583C168.236 167.588 168.305 167.607 168.367 167.639C168.429 167.672 168.484 167.717 168.528 167.773C168.571 167.828 168.603 167.892 168.62 167.96C169.51 170.373 170.587 172.714 171.84 174.96C171.882 175.036 171.903 175.122 171.901 175.209C171.9 175.296 171.876 175.381 171.831 175.456C171.787 175.53 171.724 175.592 171.648 175.635C171.572 175.678 171.487 175.7 171.4 175.7Z" fill="#FF9D0A"/>
<path d="M158.48 136.52H158.36C158.231 136.487 158.12 136.404 158.051 136.29C157.981 136.176 157.96 136.04 157.99 135.91C158.864 132.12 160.211 128.454 162 125C162.025 124.934 162.064 124.874 162.114 124.824C162.164 124.774 162.224 124.735 162.29 124.71C162.356 124.685 162.427 124.674 162.497 124.678C162.568 124.683 162.636 124.702 162.699 124.734C162.762 124.767 162.817 124.813 162.86 124.868C162.904 124.924 162.935 124.988 162.953 125.057C162.97 125.125 162.972 125.197 162.96 125.266C162.947 125.336 162.92 125.402 162.88 125.46C161.151 128.843 159.847 132.427 159 136.13C158.974 136.246 158.907 136.35 158.812 136.421C158.717 136.493 158.599 136.528 158.48 136.52Z" fill="#FF9D0A"/>
<path d="M162.73 170.93C162.643 170.929 162.557 170.906 162.482 170.862C162.406 170.818 162.344 170.756 162.3 170.68C157.707 162.09 155.818 152.313 156.88 142.63C156.892 142.497 156.956 142.375 157.058 142.29C157.161 142.204 157.292 142.163 157.425 142.175C157.558 142.187 157.68 142.251 157.765 142.353C157.851 142.455 157.892 142.587 157.88 142.72C156.835 152.201 158.679 161.776 163.17 170.19C163.235 170.305 163.251 170.442 163.216 170.569C163.18 170.697 163.095 170.805 162.98 170.87C162.903 170.91 162.817 170.93 162.73 170.93Z" fill="#FF9D0A"/>
<path d="M325.43 166.93H325.3C325.236 166.914 325.177 166.885 325.125 166.845C325.072 166.806 325.029 166.756 324.996 166.699C324.963 166.642 324.942 166.579 324.935 166.514C324.927 166.449 324.932 166.383 324.95 166.32C329.585 149.563 327.772 131.677 319.87 116.19C319.839 116.132 319.819 116.068 319.813 116.002C319.807 115.936 319.813 115.869 319.833 115.806C319.852 115.743 319.884 115.684 319.927 115.633C319.969 115.582 320.021 115.541 320.08 115.51C320.197 115.45 320.333 115.438 320.458 115.478C320.584 115.517 320.688 115.604 320.75 115.72C328.772 131.431 330.613 149.578 325.91 166.58C325.878 166.682 325.814 166.771 325.728 166.834C325.641 166.897 325.537 166.931 325.43 166.93Z" fill="#FF9D0A"/>
<path d="M319.94 180.48C319.852 180.482 319.765 180.457 319.69 180.41C319.632 180.379 319.581 180.336 319.54 180.285C319.499 180.233 319.468 180.174 319.45 180.11C319.433 180.047 319.428 179.98 319.436 179.915C319.445 179.85 319.467 179.787 319.5 179.73C320.837 177.328 322.003 174.836 322.99 172.27C323.012 172.208 323.047 172.152 323.091 172.104C323.136 172.056 323.189 172.017 323.249 171.99C323.309 171.963 323.373 171.948 323.438 171.946C323.504 171.945 323.569 171.956 323.63 171.98C323.692 172.003 323.749 172.039 323.797 172.084C323.845 172.129 323.884 172.184 323.911 172.244C323.938 172.305 323.953 172.37 323.954 172.436C323.956 172.502 323.944 172.568 323.92 172.63C322.918 175.241 321.731 177.777 320.37 180.22C320.327 180.297 320.265 180.361 320.189 180.407C320.114 180.452 320.028 180.477 319.94 180.48Z" fill="#FF9D0A"/>
<path d="M335.28 151.7C335.148 151.69 335.026 151.629 334.938 151.53C334.85 151.431 334.805 151.302 334.81 151.17C335.477 140.665 333.301 130.173 328.51 120.8C328.467 120.686 328.467 120.559 328.51 120.445C328.554 120.33 328.637 120.236 328.746 120.179C328.854 120.123 328.98 120.108 329.099 120.137C329.217 120.167 329.321 120.239 329.39 120.34C334.27 129.872 336.488 140.543 335.81 151.23C335.8 151.362 335.739 151.484 335.64 151.572C335.541 151.66 335.412 151.706 335.28 151.7Z" fill="#FF9D0A"/>
<path d="M328.6 175.7C328.513 175.7 328.428 175.678 328.352 175.635C328.276 175.592 328.213 175.53 328.169 175.456C328.124 175.381 328.1 175.296 328.099 175.209C328.097 175.122 328.118 175.036 328.16 174.96C331.093 169.638 333.086 163.85 334.05 157.85C334.071 157.717 334.144 157.599 334.253 157.52C334.362 157.441 334.497 157.409 334.63 157.43C334.763 157.451 334.881 157.524 334.96 157.633C335.039 157.742 335.071 157.877 335.05 158.01C334.071 164.126 332.041 170.026 329.05 175.45C329.005 175.529 328.939 175.593 328.86 175.637C328.78 175.681 328.691 175.703 328.6 175.7Z" fill="#FF9D0A"/>
<path d="M340.75 133.65C340.643 133.649 340.539 133.614 340.455 133.549C340.37 133.484 340.308 133.393 340.28 133.29C339.466 130.579 338.398 127.951 337.09 125.44C337.061 125.38 337.044 125.315 337.041 125.249C337.037 125.183 337.046 125.117 337.068 125.054C337.09 124.991 337.124 124.933 337.168 124.884C337.212 124.834 337.265 124.794 337.325 124.765C337.385 124.736 337.45 124.719 337.516 124.715C337.582 124.712 337.649 124.721 337.711 124.743C337.774 124.765 337.832 124.798 337.881 124.843C337.931 124.887 337.971 124.94 338 125C339.345 127.554 340.437 130.234 341.26 133C341.298 133.127 341.285 133.264 341.223 133.382C341.161 133.5 341.056 133.589 340.93 133.63L340.75 133.65Z" fill="#FF9D0A"/>
<path d="M337.27 170.93C337.183 170.93 337.097 170.91 337.02 170.87C336.905 170.805 336.82 170.697 336.785 170.569C336.749 170.442 336.765 170.305 336.83 170.19C341.73 161.42 343.47 150.58 341.73 139.68C341.712 139.548 341.746 139.414 341.824 139.306C341.903 139.198 342.019 139.124 342.15 139.1C342.281 139.083 342.414 139.117 342.52 139.195C342.626 139.273 342.698 139.39 342.72 139.52C344.49 150.65 342.72 161.71 337.72 170.68C337.675 170.759 337.609 170.823 337.53 170.867C337.45 170.911 337.361 170.933 337.27 170.93Z" fill="#FF9D0A"/>
<path d="M230.23 75C230.164 75.0085 230.098 75.0041 230.034 74.9868C229.97 74.9696 229.91 74.9399 229.858 74.8995C229.752 74.8179 229.682 74.6976 229.665 74.565C229.648 74.4324 229.684 74.2984 229.766 74.1924C229.847 74.0864 229.968 74.0172 230.1 74C241.484 70.8403 253.473 70.5414 265 73.13C265.065 73.1442 265.126 73.171 265.18 73.2089C265.234 73.2468 265.28 73.295 265.315 73.3508C265.35 73.4066 265.374 73.4688 265.386 73.5339C265.397 73.599 265.395 73.6656 265.38 73.73C265.367 73.7941 265.341 73.8549 265.304 73.9089C265.268 73.9629 265.22 74.009 265.165 74.0444C265.11 74.0798 265.049 74.1039 264.984 74.1151C264.92 74.1264 264.854 74.1247 264.79 74.11C253.428 71.563 241.613 71.8549 230.39 74.96L230.23 75Z" fill="#FF9D0A"/>
<path d="M217.12 80.37C217.012 80.3668 216.908 80.3285 216.823 80.2609C216.738 80.1933 216.678 80.1 216.651 79.9952C216.624 79.8903 216.631 79.7794 216.673 79.6793C216.714 79.5792 216.787 79.4952 216.88 79.44C219.314 78.0806 221.84 76.8944 224.44 75.89C224.563 75.8444 224.7 75.8493 224.82 75.9036C224.939 75.9579 225.033 76.0572 225.08 76.18C225.104 76.2403 225.116 76.3049 225.115 76.3699C225.114 76.4349 225.1 76.4991 225.074 76.5587C225.048 76.6182 225.01 76.672 224.963 76.7169C224.916 76.7617 224.861 76.7968 224.8 76.82C222.244 77.8064 219.761 78.9726 217.37 80.31C217.293 80.3498 217.207 80.3704 217.12 80.37Z" fill="#FF9D0A"/>
<path d="M249.97 218.93C289.293 218.93 321.17 187.053 321.17 147.73C321.17 108.407 289.293 76.53 249.97 76.53C210.647 76.53 178.77 108.407 178.77 147.73C178.77 187.053 210.647 218.93 249.97 218.93Z" fill="#FF9D0A"/>
<path opacity="0.9" d="M249.97 218.93C289.293 218.93 321.17 187.053 321.17 147.73C321.17 108.407 289.293 76.53 249.97 76.53C210.647 76.53 178.77 108.407 178.77 147.73C178.77 187.053 210.647 218.93 249.97 218.93Z" fill="white"/>
<path d="M250.14 220.36C235.86 220.36 221.901 216.126 210.028 208.192C198.155 200.259 188.901 188.983 183.436 175.79C177.971 162.597 176.542 148.08 179.327 134.074C182.113 120.069 188.99 107.204 199.087 97.1069C209.184 87.0095 222.049 80.1332 236.055 77.3473C250.06 74.5614 264.577 75.9912 277.77 81.4559C290.963 86.9205 302.239 96.1746 310.172 108.048C318.106 119.921 322.34 133.88 322.34 148.16C322.319 167.302 314.705 185.654 301.17 199.19C287.634 212.725 269.282 220.339 250.14 220.36ZM250.14 77.96C236.256 77.96 222.683 82.0771 211.139 89.7908C199.595 97.5045 190.597 108.468 185.284 121.296C179.97 134.123 178.58 148.238 181.289 161.855C183.998 175.473 190.684 187.981 200.501 197.799C210.319 207.617 222.827 214.302 236.445 217.011C250.062 219.72 264.177 218.33 277.004 213.016C289.832 207.703 300.796 198.705 308.509 187.161C316.223 175.617 320.34 162.044 320.34 148.16C320.308 129.555 312.901 111.722 299.741 98.5703C286.582 85.4185 268.745 78.0211 250.14 78V77.96Z" fill="#FF9D0A"/>
<mask id="mask0_224_616" style="mask-type:luminance" maskUnits="userSpaceOnUse" x="178" y="76" width="144" height="143">
<path d="M249.97 218.93C289.293 218.93 321.17 187.053 321.17 147.73C321.17 108.407 289.293 76.53 249.97 76.53C210.647 76.53 178.77 108.407 178.77 147.73C178.77 187.053 210.647 218.93 249.97 218.93Z" fill="white"/>
</mask>
<g mask="url(#mask0_224_616)">
<path d="M213.33 122.42C213.12 121.9 208.33 109.58 215.13 100.09C220.31 92.82 230.57 89.48 245.65 90.15C257.74 90.69 265.95 93.91 270.04 99.72C274.96 106.72 272.4 114.98 271.43 118.09L271.32 118.46L266.54 117L266.66 116.61C267.5 113.91 269.45 107.61 265.95 102.61C262.8 98.13 255.89 95.61 245.42 95.15C232.17 94.56 223.33 97.15 219.21 103C214 110.3 217.94 120.49 217.98 120.59L213.33 122.42Z" fill="#263238"/>
<path d="M265.64 128.77C265.64 135.98 268.23 141.83 271.42 141.83C274.61 141.83 277.21 135.98 277.21 128.77C277.21 121.56 274.62 115.7 271.42 115.7C268.22 115.7 265.64 121.55 265.64 128.77Z" fill="#263238"/>
<path opacity="0.2" d="M265.64 128.77C265.64 135.98 268.23 141.83 271.42 141.83C274.61 141.83 277.21 135.98 277.21 128.77C277.21 121.56 274.62 115.7 271.42 115.7C268.22 115.7 265.64 121.55 265.64 128.77Z" fill="white"/>
<path d="M266.81 145.82C270.98 145.82 274.36 138.186 274.36 128.77C274.36 119.354 270.98 111.72 266.81 111.72C262.64 111.72 259.26 119.354 259.26 128.77C259.26 138.186 262.64 145.82 266.81 145.82Z" fill="#263238"/>
<path d="M279.78 184.85C279.78 184.85 273.66 180.15 259.94 176.51C251.82 174.35 243.26 174.05 234.86 174.43C226.46 174.81 218.03 176.69 210.75 180.87C207.57 182.69 195.25 189.04 195.25 192.69L195.44 193.5C207.513 207.885 224.78 216.918 243.481 218.632C262.183 220.346 280.804 214.601 295.29 202.65C290.77 191.68 284.89 189.72 279.78 184.85Z" fill="#FF9D0A"/>
<path d="M252.63 160.44C249.74 167.99 248.92 176.16 262.91 179.58C262.91 179.58 269.69 189.99 247.63 191.58C224.09 193.21 223.52 177.41 223.52 177.41C232.77 171.28 231.25 152.96 229.35 142.97L252.63 160.44Z" fill="#FF8B7B"/>
<path opacity="0.2" d="M235 160.64C235.35 165.02 242.44 172.11 250.87 168.18C251.179 166.294 251.688 164.447 252.39 162.67L238.6 152.33C238.11 153.34 234.89 158.25 235 160.64Z" fill="black"/>
<path d="M220.44 121.27C222.09 138.39 222.16 148.51 231.15 157.04C244.6 169.9 265.58 161.27 269.15 144.04C272.3 128.46 269.15 103.04 252.05 96.77C248.295 95.3717 244.245 94.9564 240.284 95.5634C236.324 96.1703 232.584 97.7795 229.42 100.238C226.256 102.697 223.773 105.923 222.207 109.611C220.64 113.299 220.043 117.326 220.47 121.31L220.44 121.27Z" fill="#FF8B7B"/>
<path d="M215.56 132.89C216.07 134.983 216.99 136.955 218.267 138.69C219.544 140.426 221.153 141.891 223 143C227.93 145.93 231.89 141.88 231.77 136.45C231.67 131.54 228.94 124.17 223.36 123.45C217.78 122.73 214.32 127.75 215.56 132.89Z" fill="#FF8B7B"/>
<path d="M246.68 125.18C246.68 126.58 247.51 127.69 248.4 127.64C249.29 127.59 250.02 126.47 249.98 125.06C249.94 123.65 249.15 122.55 248.33 122.51C247.51 122.47 246.55 123.83 246.68 125.18Z" fill="#263238"/>
<path d="M262.46 124.66C262.46 126.07 263.27 127.18 264.1 127.19C264.93 127.2 265.72 126.01 265.67 124.6C265.62 123.19 264.84 122.09 263.92 122.13C263 122.17 262.44 123.24 262.46 124.66Z" fill="#263238"/>
<path d="M257.47 125.51C259.293 129.722 261.678 133.668 264.56 137.24C263.624 137.972 262.539 138.488 261.38 138.751C260.222 139.013 259.02 139.017 257.86 138.76L257.47 125.51Z" fill="#FF5652"/>
<path d="M267.65 117.24C267.812 117.097 267.911 116.897 267.926 116.681C267.941 116.466 267.871 116.254 267.73 116.09C267.605 115.939 267.425 115.842 267.23 115.82C265.943 115.598 264.621 115.69 263.377 116.087C262.132 116.484 261.001 117.174 260.08 118.1C259.935 118.261 259.859 118.473 259.868 118.69C259.878 118.907 259.972 119.112 260.13 119.26C260.297 119.4 260.511 119.469 260.728 119.452C260.945 119.435 261.147 119.334 261.29 119.17C262.023 118.432 262.922 117.881 263.912 117.562C264.902 117.244 265.954 117.168 266.98 117.34C267.092 117.374 267.21 117.383 267.326 117.365C267.442 117.348 267.553 117.305 267.65 117.24Z" fill="#263238"/>
<path d="M251.84 119.13C251.946 119.106 252.046 119.06 252.134 118.996C252.222 118.932 252.296 118.851 252.352 118.757C252.408 118.664 252.445 118.56 252.46 118.453C252.475 118.345 252.468 118.235 252.44 118.13C252.393 117.943 252.284 117.777 252.13 117.66C251.089 116.871 249.873 116.343 248.585 116.122C247.297 115.901 245.975 115.993 244.73 116.39C244.536 116.462 244.377 116.606 244.286 116.792C244.195 116.978 244.178 117.192 244.24 117.39C244.322 117.594 244.482 117.758 244.684 117.846C244.886 117.934 245.114 117.939 245.32 117.86C246.31 117.541 247.362 117.465 248.387 117.639C249.413 117.814 250.381 118.232 251.21 118.86C251.287 118.951 251.384 119.022 251.493 119.069C251.603 119.116 251.721 119.137 251.84 119.13Z" fill="#263238"/>
<path d="M262.3 144.25C262.3 144.25 257.01 142.51 242.49 141.84C244.65 147.34 248.19 151.84 255.63 152.2C263.07 152.56 262.3 144.25 262.3 144.25Z" fill="#263238"/>
<path d="M251.81 147.76C254.841 147.74 257.784 148.78 260.13 150.7C259.517 151.221 258.805 151.614 258.037 151.854C257.269 152.095 256.461 152.178 255.66 152.1C252.636 152.128 249.7 151.087 247.37 149.16C247.979 148.643 248.686 148.252 249.449 148.012C250.211 147.771 251.014 147.686 251.81 147.76Z" fill="#FF5652"/>
<path d="M261.63 144.06C261.596 144.649 261.381 145.213 261.014 145.675C260.647 146.137 260.146 146.474 259.58 146.64C255.209 146.395 250.872 145.725 246.63 144.64C245.866 144.475 245.151 144.133 244.544 143.641C243.936 143.15 243.452 142.522 243.13 141.81C249.353 141.983 255.547 142.736 261.63 144.06Z" fill="white"/>
<path d="M276.05 202L269.18 192C269.014 191.761 268.762 191.596 268.477 191.538C268.192 191.481 267.896 191.535 267.65 191.69L255.92 199.14L254.74 193.83C254.7 193.659 254.602 193.507 254.464 193.398C254.326 193.289 254.156 193.23 253.98 193.23H251.9C251.702 193.233 251.513 193.312 251.373 193.453C251.232 193.593 251.153 193.782 251.15 193.98L250.88 212.44L244.56 218.66C246.35 218.79 248.15 218.88 249.97 218.88C251.79 218.88 253.83 218.79 255.73 218.63C257.63 218.47 259.8 218.22 261.79 217.89C264.227 216.434 266.471 214.676 268.47 212.66V212.59L275.95 203.3C276.102 203.122 276.193 202.9 276.211 202.666C276.229 202.433 276.173 202.2 276.05 202Z" fill="#FF8B7B"/>
<path d="M220.31 145.82C224.48 145.82 227.86 138.186 227.86 128.77C227.86 119.354 224.48 111.72 220.31 111.72C216.14 111.72 212.76 119.354 212.76 128.77C212.76 138.186 216.14 145.82 220.31 145.82Z" fill="#263238"/>
<path d="M221.48 128.77C221.48 135.98 218.89 141.83 215.69 141.83C212.49 141.83 209.91 135.98 209.91 128.77C209.91 121.56 212.5 115.7 215.69 115.7C218.88 115.7 221.48 121.55 221.48 128.77Z" fill="#263238"/>
<path opacity="0.2" d="M221.48 128.77C221.48 135.98 218.89 141.83 215.69 141.83C212.49 141.83 209.91 135.98 209.91 128.77C209.91 121.56 212.5 115.7 215.69 115.7C218.88 115.7 221.48 121.55 221.48 128.77Z" fill="white"/>
<path d="M288.1 198C276.1 198 269.68 188.72 269.37 171.15C269.37 170.885 269.475 170.63 269.663 170.443C269.85 170.255 270.105 170.15 270.37 170.15C270.635 170.15 270.89 170.255 271.077 170.443C271.265 170.63 271.37 170.885 271.37 171.15C271.66 187.66 277.29 196.03 288.1 196.03C299.1 196.03 304.56 187.89 304.82 171.15C304.82 170.885 304.925 170.63 305.113 170.443C305.3 170.255 305.555 170.15 305.82 170.15C306.085 170.15 306.34 170.255 306.527 170.443C306.715 170.63 306.82 170.885 306.82 171.15C306.55 189 300.25 198 288.1 198Z" fill="#263238"/>
<path d="M305.82 172.16H270.37C270.105 172.16 269.85 172.055 269.663 171.867C269.475 171.68 269.37 171.425 269.37 171.16C269.37 170.895 269.475 170.64 269.663 170.453C269.85 170.265 270.105 170.16 270.37 170.16H305.82C306.085 170.16 306.34 170.265 306.527 170.453C306.715 170.64 306.82 170.895 306.82 171.16C306.82 171.425 306.715 171.68 306.527 171.867C306.34 172.055 306.085 172.16 305.82 172.16Z" fill="#263238"/>
<path d="M297.83 164H278.36L278.96 142.94L279.36 142.75C282.065 141.37 285.058 140.65 288.095 140.65C291.132 140.65 294.125 141.37 296.83 142.75L297.24 142.94L297.83 164Z" fill="#263238"/>
<g opacity="0.1">
<path d="M297.83 164H278.36L278.96 142.94L279.36 142.75C282.065 141.37 285.058 140.65 288.095 140.65C291.132 140.65 294.125 141.37 296.83 142.75L297.24 142.94L297.83 164Z" fill="#FAFAFA"/>
</g>
<path d="M278.36 164H297.83L297.24 185L296.83 185.21C294.124 186.585 291.131 187.302 288.095 187.302C285.059 187.302 282.066 186.585 279.36 185.21L279 185L278.36 164Z" fill="#263238"/>
<path d="M298.42 162.31H277.84V165.85H298.42V162.31Z" fill="#263238"/>
<path opacity="0.12" d="M298.42 162.31H277.84V165.85H298.42V162.31Z" fill="white"/>
<path d="M290.52 173.86C290.14 174.331 289.63 174.678 289.053 174.859C288.476 175.04 287.858 175.046 287.278 174.876C286.697 174.706 286.18 174.367 285.792 173.904C285.404 173.44 285.162 172.872 285.096 172.271C285.03 171.67 285.145 171.063 285.424 170.526C285.703 169.99 286.135 169.548 286.665 169.257C287.195 168.966 287.799 168.838 288.402 168.891C289.004 168.943 289.578 169.172 290.05 169.55C290.683 170.06 291.088 170.8 291.176 171.608C291.264 172.416 291.028 173.226 290.52 173.86Z" fill="#263238"/>
<path opacity="0.2" d="M288.13 175C289.82 175 291.19 173.63 291.19 171.94C291.19 170.25 289.82 168.88 288.13 168.88C286.44 168.88 285.07 170.25 285.07 171.94C285.07 173.63 286.44 175 288.13 175Z" fill="white"/>
<path d="M289.44 170.5C289.44 170.672 289.372 170.838 289.25 170.96C289.128 171.082 288.962 171.15 288.79 171.15C288.617 171.15 288.45 171.082 288.327 170.96C288.203 170.839 288.133 170.673 288.13 170.5C288.133 170.326 288.203 170.159 288.326 170.036C288.449 169.913 288.616 169.843 288.79 169.84C288.963 169.843 289.129 169.913 289.25 170.037C289.372 170.16 289.44 170.327 289.44 170.5Z" fill="#FF9D0A"/>
<path d="M288.1 224.17C287.835 224.17 287.58 224.065 287.393 223.877C287.205 223.69 287.1 223.435 287.1 223.17V197C287.1 196.735 287.205 196.48 287.393 196.293C287.58 196.105 287.835 196 288.1 196C288.365 196 288.62 196.105 288.807 196.293C288.995 196.48 289.1 196.735 289.1 197V223.15C289.103 223.283 289.079 223.415 289.03 223.539C288.981 223.662 288.907 223.775 288.814 223.87C288.721 223.965 288.61 224.041 288.487 224.092C288.365 224.144 288.233 224.17 288.1 224.17Z" fill="#263238"/>
</g>
</svg>
