<svg width="62" height="57" viewBox="0 0 62 57" fill="none" xmlns="http://www.w3.org/2000/svg">
<g filter="url(#filter0_d_109_20)">
<circle cx="28.6504" cy="24.3894" r="24.3403" fill="#FF9D0A"/>
<path d="M53.1084 48.8476L33.8189 43.679L47.9398 29.5582L53.1084 48.8476Z" fill="#FF9D0A"/>
<path d="M20.1456 28.0802V29.0001H16.6066V28.0802H20.1456ZM16.7999 20.4689V29.0001H15.7218V20.4689H16.7999ZM21.3114 26.1349V25.5314C21.3114 25.0392 21.3739 24.6075 21.4989 24.2365C21.6239 23.8615 21.7977 23.549 22.0204 23.299C22.2431 23.049 22.5028 22.8615 22.7997 22.7365C23.0966 22.6075 23.4149 22.5431 23.7548 22.5431C24.1024 22.5431 24.4247 22.6075 24.7216 22.7365C25.0184 22.8615 25.2782 23.049 25.5009 23.299C25.7274 23.549 25.9032 23.8615 26.0282 24.2365C26.1532 24.6075 26.2157 25.0392 26.2157 25.5314V26.1349C26.2157 26.6271 26.1532 27.0607 26.0282 27.4357C25.9032 27.8068 25.7294 28.1173 25.5067 28.3673C25.2841 28.6173 25.0243 28.8048 24.7274 28.9298C24.4306 29.0548 24.1102 29.1173 23.7665 29.1173C23.4227 29.1173 23.1024 29.0548 22.8056 28.9298C22.5087 28.8048 22.247 28.6173 22.0204 28.3673C21.7977 28.1173 21.6239 27.8068 21.4989 27.4357C21.3739 27.0607 21.3114 26.6271 21.3114 26.1349ZM22.3485 25.5314V26.1349C22.3485 26.4825 22.3837 26.7872 22.454 27.049C22.5243 27.3107 22.6239 27.5294 22.7528 27.7052C22.8817 27.881 23.0321 28.0138 23.204 28.1036C23.3759 28.1896 23.5634 28.2325 23.7665 28.2325C24.0009 28.2325 24.2059 28.1896 24.3817 28.1036C24.5614 28.0138 24.7098 27.881 24.827 27.7052C24.9442 27.5294 25.0321 27.3107 25.0907 27.049C25.1493 26.7872 25.1786 26.4825 25.1786 26.1349V25.5314C25.1786 25.1837 25.1434 24.881 25.0731 24.6232C25.0028 24.3615 24.9032 24.1427 24.7743 23.9669C24.6454 23.7872 24.4931 23.6544 24.3173 23.5685C24.1454 23.4786 23.9579 23.4337 23.7548 23.4337C23.5556 23.4337 23.37 23.4786 23.1981 23.5685C23.0263 23.6544 22.8759 23.7872 22.747 23.9669C22.622 24.1427 22.5243 24.3615 22.454 24.6232C22.3837 24.881 22.3485 25.1837 22.3485 25.5314ZM29.9889 28.2325C30.1959 28.2325 30.3834 28.1915 30.5514 28.1095C30.7233 28.0236 30.8639 27.8907 30.9733 27.7111C31.0827 27.5275 31.1452 27.2892 31.1608 26.9962H32.1334C32.1178 27.4181 32.0104 27.7892 31.8112 28.1095C31.6159 28.4259 31.3581 28.674 31.0377 28.8536C30.7213 29.0294 30.3717 29.1173 29.9889 29.1173C29.5788 29.1173 29.2213 29.0509 28.9166 28.9181C28.6159 28.7853 28.3659 28.5939 28.1666 28.3439C27.9713 28.09 27.8248 27.7833 27.7272 27.424C27.6295 27.0607 27.5807 26.6486 27.5807 26.1876V25.4728C27.5807 25.0118 27.6295 24.6017 27.7272 24.2423C27.8248 23.879 27.9713 23.5724 28.1666 23.3224C28.3659 23.0685 28.6159 22.8751 28.9166 22.7423C29.2213 22.6095 29.5788 22.5431 29.9889 22.5431C30.4186 22.5431 30.7897 22.6349 31.1022 22.8185C31.4186 22.9982 31.6647 23.2599 31.8405 23.6036C32.0202 23.9435 32.1178 24.3556 32.1334 24.84H31.1608C31.1452 24.5275 31.0885 24.2677 30.9909 24.0607C30.8932 23.8497 30.7604 23.6935 30.5924 23.5919C30.4245 23.4865 30.2233 23.4337 29.9889 23.4337C29.7155 23.4337 29.4889 23.4825 29.3092 23.5802C29.1334 23.674 28.9948 23.8107 28.8932 23.9904C28.7916 24.17 28.7194 24.3849 28.6764 24.6349C28.6373 24.8849 28.6178 25.1642 28.6178 25.4728V26.1876C28.6178 26.4962 28.6373 26.7775 28.6764 27.0314C28.7194 27.2814 28.7897 27.4962 28.8873 27.6759C28.9889 27.8556 29.1295 27.9943 29.3092 28.0919C29.4889 28.1857 29.7155 28.2325 29.9889 28.2325ZM36.6801 27.9161V24.4767C36.6801 24.2267 36.641 24.0255 36.5629 23.8732C36.4887 23.7208 36.3754 23.6095 36.2231 23.5392C36.0746 23.4689 35.8871 23.4337 35.6606 23.4337C35.4418 23.4337 35.2523 23.4786 35.0922 23.5685C34.9359 23.6583 34.8148 23.7775 34.7289 23.9259C34.6469 24.0743 34.6059 24.2384 34.6059 24.4181H33.5688C33.5688 24.1915 33.6176 23.9669 33.7152 23.7443C33.8168 23.5216 33.9613 23.3204 34.1488 23.1407C34.3363 22.9572 34.5609 22.8126 34.8227 22.7072C35.0883 22.5978 35.3852 22.5431 35.7133 22.5431C36.1039 22.5431 36.4496 22.6075 36.7504 22.7365C37.0512 22.8615 37.2875 23.0665 37.4594 23.3517C37.6313 23.6368 37.7172 24.0157 37.7172 24.4884V27.6173C37.7172 27.8282 37.7328 28.0529 37.7641 28.2911C37.7992 28.5294 37.8481 28.7345 37.9106 28.9064V29.0001H36.8383C36.7875 28.8751 36.7484 28.7091 36.7211 28.5021C36.6938 28.2911 36.6801 28.0958 36.6801 27.9161ZM36.8441 25.1564L36.8559 25.9181H36.1352C35.8891 25.9181 35.6645 25.9454 35.4613 26.0001C35.2621 26.0548 35.0902 26.1349 34.9457 26.2404C34.8012 26.3419 34.6898 26.4689 34.6117 26.6212C34.5375 26.7736 34.5004 26.9474 34.5004 27.1427C34.5004 27.3966 34.5356 27.5997 34.6059 27.7521C34.6762 27.9005 34.7816 28.0079 34.9223 28.0743C35.0629 28.1407 35.2406 28.174 35.4555 28.174C35.7172 28.174 35.9477 28.1134 36.1469 27.9923C36.3461 27.8712 36.5004 27.7247 36.6098 27.5529C36.7231 27.381 36.7758 27.2208 36.768 27.0724L36.9965 27.5587C36.9809 27.7111 36.9301 27.8771 36.8441 28.0568C36.7621 28.2325 36.6469 28.4025 36.4984 28.5665C36.35 28.7267 36.1742 28.8595 35.9711 28.965C35.7719 29.0665 35.5473 29.1173 35.2973 29.1173C34.9301 29.1173 34.6078 29.047 34.3305 28.9064C34.057 28.7657 33.8441 28.5587 33.6918 28.2853C33.5395 28.0118 33.4633 27.674 33.4633 27.2716C33.4633 26.9669 33.516 26.6857 33.6215 26.4279C33.727 26.17 33.8832 25.9474 34.0902 25.7599C34.2973 25.5685 34.557 25.42 34.8695 25.3146C35.1859 25.2091 35.5512 25.1564 35.9652 25.1564H36.8441ZM40.6818 20.0001V29.0001H39.6506V20.0001H40.6818Z" fill="white"/>
</g>
<defs>
<filter id="filter0_d_109_20" x="0.310028" y="0.0490723" width="56.7984" height="56.7986" filterUnits="userSpaceOnUse" color-interpolation-filters="sRGB">
<feFlood flood-opacity="0" result="BackgroundImageFix"/>
<feColorMatrix in="SourceAlpha" type="matrix" values="0 0 0 0 0 0 0 0 0 0 0 0 0 0 0 0 0 0 127 0" result="hardAlpha"/>
<feOffset dy="4"/>
<feGaussianBlur stdDeviation="2"/>
<feComposite in2="hardAlpha" operator="out"/>
<feColorMatrix type="matrix" values="0 0 0 0 0 0 0 0 0 0 0 0 0 0 0 0 0 0 0.25 0"/>
<feBlend mode="normal" in2="BackgroundImageFix" result="effect1_dropShadow_109_20"/>
<feBlend mode="normal" in="SourceGraphic" in2="effect1_dropShadow_109_20" result="shape"/>
</filter>
</defs>
</svg>
